<?xml version="1.0" encoding="UTF-8" standalone="no"?>
<!DOCTYPE svg PUBLIC "-//W3C//DTD SVG 1.1//EN" "http://www.w3.org/Graphics/SVG/1.1/DTD/svg11.dtd">
<svg width="100%" height="100%" viewBox="0 0 301 250" version="1.1" xmlns="http://www.w3.org/2000/svg" xmlns:xlink="http://www.w3.org/1999/xlink" xml:space="preserve" xmlns:serif="http://www.serif.com/" style="fill-rule:evenodd;clip-rule:evenodd;stroke-linejoin:round;stroke-miterlimit:2;">
    <g transform="matrix(1,0,0,1,-2428,-51)">
        <g transform="matrix(9.11103,0,0,5.59949,5122.68,1153.28)">
            <g id="boat_3" transform="matrix(0.427662,0,0,0.404025,-106.297,-200.264)">
                <g transform="matrix(0.388343,0,0,0.111975,-1276.7,18.5852)">
                    <rect x="2308.6" y="311.705" width="8.551" height="72.089" style="fill:rgb(44,44,44);"/>
                </g>
                <g transform="matrix(1.09545,0,0,0.483653,-1444.05,-277.064)">
                    <g transform="matrix(0.354505,0,0,2.31519,128.534,-114.654)">
                        <rect x="2308.6" y="311.705" width="8.551" height="72.089" style="fill:rgb(44,44,44);"/>
                    </g>
                    <g transform="matrix(0.746198,0,0,4.70767,-778.607,-900.231)">
                        <path d="M2326.95,335.095L2301.99,335.095L2301.99,346.222L2307.24,342.884L2311.99,346.222L2314.49,343.996L2316.99,346.222L2321.68,342.884L2326.95,346.222L2326.95,335.095Z" style="fill:rgb(153,48,48);"/>
                    </g>
                    <g transform="matrix(0.606255,0,0,2.34643,-454.71,-118.577)">
                        <path d="M2326.95,318.505L2301.99,318.505L2306.99,332.731L2321.95,332.731L2326.95,318.505Z" style="fill:rgb(153,48,48);"/>
                    </g>
                    <g transform="matrix(-0.393496,0,0,2.18707,1858.67,-68.1947)">
                        <path d="M2316.99,301.091L2293.88,301.091L2300.5,305.065L2293.88,308.722L2316.99,308.722L2316.99,301.091Z" style="fill:rgb(153,48,48);"/>
                    </g>
                    <g transform="matrix(0.642105,0,0,1.60809,-555.005,80.3387)">
                        <path d="M2356.81,339.317L2355.7,337.587L2327.23,337.587L2326.12,339.317L2326.12,342.777L2327.23,344.506L2355.7,344.506L2356.81,342.777L2356.81,339.317Z" style="fill:rgb(51,42,39);"/>
                    </g>
                    <g transform="matrix(0.790324,0,0,1.60809,-902.054,128.852)">
                        <path d="M2356.81,339.317L2355.91,337.587L2327.03,337.587L2326.12,339.317L2326.12,342.777L2327.03,344.506L2355.91,344.506L2356.81,342.777L2356.81,339.317Z" style="fill:rgb(51,42,39);"/>
                    </g>
                </g>
                <g id="cannon" transform="matrix(-0.965926,-0.445917,-0.150224,0.965926,-871.528,-193.801)">
                    <g transform="matrix(0.209545,0,0,0.378215,-550.036,-181.599)">
                        <path d="M423.186,702.186L335.297,696.594L335.297,724.558L423.186,718.965L423.186,702.186Z" style="fill:rgb(90,90,90);"/>
                    </g>
                    <g transform="matrix(0.179277,0,0,0.376933,-538.097,-173.911)">
                        <path d="M433.173,684.461C433.173,682.138 430.872,680.252 428.037,680.252C425.202,680.252 422.9,682.138 422.9,684.461L422.9,700.736C422.9,703.059 425.202,704.945 428.037,704.945C430.872,704.945 433.173,703.059 433.173,700.736L433.173,684.461Z" style="fill:rgb(75,75,75);"/>
                    </g>
                </g>
                <g transform="matrix(0.245556,0,0,0.423067,-562.25,-205.961)">
                    <path d="M786.456,631.948L748.438,767.985L538.438,767.985L493.438,617.985L570.64,617.985L605.938,712.112L680.938,712.112L710.999,631.948L786.456,631.948Z" style="fill:rgb(72,56,49);"/>
                    <clipPath id="_clip1">
                        <path d="M786.456,631.948L748.438,767.985L538.438,767.985L493.438,617.985L570.64,617.985L605.938,712.112L680.938,712.112L710.999,631.948L786.456,631.948Z"/>
                    </clipPath>
                    <g clip-path="url(#_clip1)">
                        <g transform="matrix(1.14674,0,0,1,-68.2332,0)">
                            <rect x="464.997" y="731.835" width="352.076" height="74.242" style="fill:rgb(53,47,45);"/>
                        </g>
                        <g transform="matrix(3.26494,0,0,0.840437,-6887.85,338.276)">
                            <rect x="2258.8" y="396.301" width="107.248" height="16.989" style="fill:rgb(99,78,69);"/>
                        </g>
                        <g transform="matrix(3.26494,0,0,0.840437,-6892.96,309.335)">
                            <rect x="2258.8" y="396.301" width="107.248" height="16.989" style="fill:rgb(99,78,69);"/>
                        </g>
                    </g>
                </g>
                <g transform="matrix(0.761226,0,0,0.777757,-2213.71,-210.227)">
                    <path d="M2356.81,339.317L2355.78,337.587L2327.15,337.587L2326.12,339.317L2326.12,342.777L2327.15,344.506L2355.78,344.506L2356.81,342.777L2356.81,339.317Z" style="fill:rgb(51,42,39);"/>
                </g>
                <g transform="matrix(0.761226,0,0,0.777757,-2161.26,-203.734)">
                    <path d="M2356.81,339.317L2355.78,337.587L2327.15,337.587L2326.12,339.317L2326.12,342.777L2327.15,344.506L2355.78,344.506L2356.81,342.777L2356.81,339.317Z" style="fill:rgb(51,42,39);"/>
                </g>
                <g>
                    <g transform="matrix(1,0,0,1,-4.91113,0)">
                        <g transform="matrix(0.143471,0,0,0.247185,-497.961,-98.1032)">
                            <path d="M556.46,785.412L588.853,808.947L576.48,847.026L536.44,847.026L524.068,808.947L556.46,785.412Z" style="fill:rgb(99,78,69);"/>
                        </g>
                        <g transform="matrix(0.0878435,0,0,0.151345,-467.006,-19.3852)">
                            <path d="M556.46,785.412L588.853,808.947L576.48,847.026L536.44,847.026L524.068,808.947L556.46,785.412Z" style="fill:rgb(53,47,45);"/>
                        </g>
                    </g>
                    <g transform="matrix(1,0,0,1,4.91113,0)">
                        <g transform="matrix(0.143471,0,0,0.247185,-469.385,-98.1032)">
                            <path d="M556.46,785.412L588.853,808.947L576.48,847.026L536.44,847.026L524.068,808.947L556.46,785.412Z" style="fill:rgb(99,78,69);"/>
                        </g>
                        <g transform="matrix(0.0878435,0,0,0.151345,-438.43,-19.3852)">
                            <path d="M556.46,785.412L588.853,808.947L576.48,847.026L536.44,847.026L524.068,808.947L556.46,785.412Z" style="fill:rgb(53,47,45);"/>
                        </g>
                    </g>
                    <g>
                        <g transform="matrix(-0.143471,3.02715e-17,-1.75701e-17,-0.247185,-324.415,308.855)">
                            <path d="M556.46,785.412L588.853,808.947L576.48,847.026L536.44,847.026L524.068,808.947L556.46,785.412Z" style="fill:rgb(99,78,69);"/>
                        </g>
                        <g transform="matrix(-0.0878435,1.85344e-17,-1.07577e-17,-0.151345,-355.369,230.137)">
                            <path d="M556.46,785.412L588.853,808.947L576.48,847.026L536.44,847.026L524.068,808.947L556.46,785.412Z" style="fill:rgb(53,47,45);"/>
                        </g>
                    </g>
                </g>
                <g transform="matrix(-0.800167,0,0,1.29677,1439.52,-394.02)">
                    <path d="M2283.48,311.917L2256.44,311.917L2261.28,328.814L2256.44,345.095L2283.48,345.095L2287.67,328.502L2283.48,311.917Z" style="fill:rgb(38,38,38);"/>
                </g>
            </g>
        </g>
    </g>
</svg>
