<?xml version="1.0" encoding="UTF-8" standalone="no"?>
<!DOCTYPE svg PUBLIC "-//W3C//DTD SVG 1.1//EN" "http://www.w3.org/Graphics/SVG/1.1/DTD/svg11.dtd">
<svg width="100%" height="100%" viewBox="0 0 116 85" version="1.1" xmlns="http://www.w3.org/2000/svg" xmlns:xlink="http://www.w3.org/1999/xlink" xml:space="preserve" xmlns:serif="http://www.serif.com/" style="fill-rule:evenodd;clip-rule:evenodd;stroke-linejoin:round;stroke-miterlimit:2;">
    <g transform="matrix(1,0,0,1,-1811,-29)">
        <g transform="matrix(9.11103,0,0,5.59949,5122.68,1153.28)">
            <g id="cloud_light" transform="matrix(0.0422161,0.0627564,-0.0409095,0.0728591,-376.256,-233.959)">
                <path d="M545.287,30.2C554.539,19.622 568.132,12.936 583.275,12.936C600.35,12.936 615.455,21.437 624.586,34.434C625.122,34.397 625.664,34.379 626.21,34.379C638.922,34.379 649.242,44.495 649.242,56.956C649.242,65.071 644.866,72.191 638.303,76.171C641.235,81.02 642.923,86.703 642.923,92.778C642.923,110.529 628.511,124.941 610.759,124.941C610.66,124.941 610.56,124.941 610.459,124.94C606.587,131.047 600.715,135.762 593.766,138.162C593.835,138.738 593.87,139.322 593.87,139.915C593.87,148.179 587.026,154.888 578.596,154.888C572.508,154.888 567.248,151.39 564.794,146.333C563.326,146.633 561.821,146.833 560.287,146.926C556.678,160.742 544.104,170.95 529.164,170.95C528.969,170.95 528.774,170.948 528.578,170.944C528.962,172.577 529.164,174.278 529.164,176.025C529.164,188.486 518.844,198.602 506.133,198.602C493.421,198.602 483.101,188.486 483.101,176.025C483.101,171.316 484.575,166.941 487.096,163.321C463.987,158.714 446.548,138.298 446.548,113.842C446.548,95.586 456.265,79.582 470.803,70.725C472.732,44.632 494.538,24.036 521.117,24.036C529.872,24.036 538.108,26.27 545.287,30.2Z" style="fill:rgb(179,180,191);"/>
            </g>
        </g>
    </g>
</svg>
