<?xml version="1.0" encoding="UTF-8" standalone="no"?>
<!DOCTYPE svg PUBLIC "-//W3C//DTD SVG 1.1//EN" "http://www.w3.org/Graphics/SVG/1.1/DTD/svg11.dtd">
<svg width="100%" height="100%" viewBox="0 0 1020 221" version="1.1" xmlns="http://www.w3.org/2000/svg" xmlns:xlink="http://www.w3.org/1999/xlink" xml:space="preserve" xmlns:serif="http://www.serif.com/" style="fill-rule:evenodd;clip-rule:evenodd;stroke-linejoin:round;stroke-miterlimit:2;">
    <g transform="matrix(1,0,0,1,-485,-38)">
        <g transform="matrix(9.11103,0,0,5.59949,5122.68,1153.28)">
            <g id="gameplay_border" transform="matrix(0.175656,0,0,0.211861,-907.845,-214.413)">
                <g id="gameplay_border1" serif:id="gameplay_border" transform="matrix(1.03066,0,0,0.378795,1495.23,-103.141)">
                    <rect x="758.273" y="484.455" width="606.255" height="445.068" style="fill:rgb(126,161,107);"/>
                </g>
                <g transform="matrix(1.03066,0,0,0.378795,1495.23,-103.141)">
                    <path d="M1370.59,484.455C1370.59,472.165 1367.88,462.201 1364.53,462.201L758.273,462.201C754.924,462.201 752.21,472.165 752.21,484.455L752.21,929.523C752.21,941.813 754.924,951.776 758.273,951.776L1364.53,951.776C1367.88,951.776 1370.59,941.813 1370.59,929.523L1370.59,484.455ZM1364.53,484.455L758.273,484.455L758.273,929.523L1364.53,929.523L1364.53,484.455Z" style="fill:rgb(244,182,62);"/>
                </g>
            </g>
        </g>
    </g>
</svg>
