<?xml version="1.0" encoding="UTF-8" standalone="no"?>
<!DOCTYPE svg PUBLIC "-//W3C//DTD SVG 1.1//EN" "http://www.w3.org/Graphics/SVG/1.1/DTD/svg11.dtd">
<svg width="100%" height="100%" viewBox="0 0 61 76" version="1.1" xmlns="http://www.w3.org/2000/svg" xmlns:xlink="http://www.w3.org/1999/xlink" xml:space="preserve" xmlns:serif="http://www.serif.com/" style="fill-rule:evenodd;clip-rule:evenodd;stroke-linejoin:round;stroke-miterlimit:2;">
    <g transform="matrix(1,0,0,1,-2911,-1651)">
        <g transform="matrix(2.69775,0,0,1.44916,4378.24,1772.66)">
            <g id="icon_skull" transform="matrix(3.23591,0,0,3.71297,1128.68,425.062)">
                <g transform="matrix(0.109757,0,0,0.178588,-519.168,-139.229)">
                    <path d="M50.46,12.69L49.79,12.74C49.52,12.74 49.25,12.74 48.98,12.82C48.55,12.88 48.08,12.97 47.54,13.1L46.85,13.24L46.46,13.31L46.2,13.31C45.901,13.356 45.606,13.43 45.32,13.53C45.024,13.627 44.74,13.755 44.47,13.91L44.04,14.18L43.69,14.4L43.29,14.63L42.83,14.9C42.537,15.075 42.253,15.265 41.98,15.47L41.51,15.85L41.22,16.09L40.81,16.44L40.57,16.64C40.3,16.87 40.02,17.08 39.75,17.3L39.44,17.54L39.06,17.88L38.37,18.54C38.17,18.72 37.98,18.92 37.79,19.12L37.15,19.75C36.96,19.93 36.77,20.13 36.58,20.33L36.46,20.46C36.33,20.6 36.2,20.73 36.09,20.87C36.001,20.972 35.918,21.079 35.84,21.19L35.79,21.27C35.673,21.445 35.57,21.629 35.48,21.82L35.27,22.3L35.13,22.66L34.95,23.13L34.78,23.49C34.71,23.63 34.65,23.76 34.59,23.9C34.472,24.161 34.369,24.428 34.28,24.7L34.13,25.22C34.004,25.678 33.854,26.128 33.68,26.57L33.52,26.93C33.45,27.12 33.38,27.31 33.32,27.5C33.26,27.69 33.19,27.92 33.14,28.1C33.09,28.28 33.05,28.49 33.01,28.69L32.95,29.12C32.95,29.33 32.88,29.55 32.84,29.76L32.69,30.66L32.69,30.89C32.69,31.01 32.69,31.13 32.62,31.25L32.62,32.01C32.62,32.22 32.56,32.43 32.55,32.63C32.54,32.83 32.55,32.96 32.55,33.13L32.55,34.62C32.54,34.783 32.54,34.947 32.55,35.11C32.55,35.3 32.55,35.49 32.62,35.68C32.69,35.87 32.62,35.93 32.62,36.06L32.62,36.5C32.62,36.78 32.67,37.07 32.68,37.35C32.662,37.388 32.662,37.432 32.68,37.47L32.68,37.82C32.675,37.9 32.675,37.98 32.68,38.06C32.67,38.166 32.67,38.274 32.68,38.38C32.675,38.44 32.675,38.5 32.68,38.56C32.674,38.596 32.674,38.634 32.68,38.67L32.77,39L32.77,39.28C32.83,39.55 32.88,39.83 32.94,40.11C33.008,40.386 33.095,40.656 33.2,40.92C33.336,41.271 33.511,41.607 33.72,41.92C33.788,42.027 33.865,42.127 33.95,42.22C34.033,42.308 34.123,42.388 34.22,42.46L34.68,42.81L34.77,42.88C34.936,43.018 35.113,43.142 35.3,43.25C35.494,43.368 35.694,43.475 35.9,43.57C36.1,43.66 36.31,43.73 36.52,43.81C36.73,43.89 37.03,43.99 37.23,44.08L37.34,44.13L37.5,44.2L37.8,44.37C37.935,44.436 38.075,44.49 38.22,44.53L38.51,44.63L38.73,44.76L38.73,44.94C38.73,45.29 38.73,45.65 38.78,46L38.78,47.01C38.78,47.2 38.86,47.51 38.91,47.76C38.96,48.01 39.03,48.34 39.1,48.62L39.21,49.1C39.28,49.39 39.33,49.69 39.38,49.98L39.46,50.41C39.51,50.64 39.55,50.87 39.59,51.1C39.63,51.33 39.68,51.52 39.74,51.73C39.8,51.94 39.82,51.96 39.87,52.08L39.87,52.21L39.93,52.35C40,52.51 40.06,52.67 40.13,52.82C40.271,53.14 40.439,53.447 40.63,53.74L40.91,54.09C41.002,54.188 41.098,54.282 41.2,54.37C41.39,54.519 41.598,54.644 41.82,54.74C41.982,54.808 42.149,54.862 42.32,54.9C42.524,54.949 42.731,54.982 42.94,55L44.09,55L45.25,55.12L45.81,55.17L49.15,55.17C49.48,55.17 49.8,55.17 50.15,55.23L50.42,55.23L51.02,55.32L51.51,55.38L52.02,55.44C52.3,55.48 52.59,55.51 52.89,55.53L54.79,55.53L55.19,55.46L55.51,55.4L55.65,55.4C55.97,55.4 56.35,55.4 56.74,55.34L57.86,55.34C58.197,55.311 58.532,55.254 58.86,55.17L59.37,55.05L59.49,55.05L59.82,54.98L60.28,54.92L61.02,54.84L61.23,54.84C61.514,54.818 61.795,54.771 62.07,54.7C62.206,54.659 62.34,54.609 62.47,54.55L62.67,54.41L62.85,54.27C63.055,54.06 63.198,53.797 63.26,53.51C63.26,53.36 63.32,53.3 63.33,53.24L63.39,52.93C63.39,52.74 63.45,52.56 63.47,52.37C63.53,51.96 63.58,51.6 63.63,51.23L63.63,50.63C63.63,50.36 63.69,50.08 63.71,49.8L63.71,49.64C63.71,49.44 63.71,49.23 63.77,49.03L63.77,44.9C63.794,45.007 63.891,45.083 64,45.08C64.143,45.08 64.26,44.963 64.26,44.82C64.259,44.736 64.218,44.658 64.15,44.61C64.41,44.53 64.68,44.47 64.96,44.4L65.31,44.32L65.69,44.23L66.11,44.12L66.35,44.05L66.49,44.05L66.99,43.9C67.13,43.9 67.26,43.8 67.39,43.75L67.63,43.66L67.92,43.57L68.24,43.47C68.378,43.423 68.507,43.352 68.62,43.26L68.78,43.1L68.87,42.95L68.95,42.77C68.975,42.695 68.995,42.618 69.01,42.54C69.015,42.47 69.015,42.4 69.01,42.33C69.016,42.227 69.016,42.123 69.01,42.02C69.051,41.765 69.078,41.508 69.09,41.25L69.09,40.47C69.106,40.224 69.106,39.976 69.09,39.73C69.09,39.5 69.09,39.27 69.03,39.04C68.97,38.81 69.03,38.5 69.03,38.23L69.03,36.73C69.03,36.42 69.03,36.11 69.1,35.8L69.1,35.44C69.1,35 69.15,34.55 69.16,34.1C69.17,33.65 69.16,33.19 69.16,32.74L69.16,29.67L69.75,29C69.75,28.78 69.75,28.56 69.68,28.34C69.61,28.12 69.62,27.89 69.58,27.69L69.52,27.42C69.52,27.29 69.52,27.16 69.44,27.03C69.36,26.9 69.44,26.74 69.37,26.59L69.37,25.81C69.37,25.68 69.37,25.27 69.31,25C69.25,24.73 69.31,24.28 69.31,23.92L69.31,23.46C69.305,23.255 69.285,23.052 69.25,22.85C69.213,22.636 69.15,22.428 69.06,22.23C68.896,21.88 68.702,21.546 68.48,21.23L68.42,21.13L68.2,20.78L68,20.56C67.91,20.4 67.8,20.25 67.7,20.1L67.6,20L67.46,19.78L67.24,19.43C67.117,19.231 66.977,19.044 66.82,18.87L66.67,18.71L66.37,18.41L66.27,18.3C66.16,18.19 66.06,18.08 65.95,17.99C65.84,17.9 65.56,17.69 65.36,17.56L64.76,17.17L64.62,17.09C64.463,16.981 64.299,16.88 64.13,16.79L63.84,16.61L63.55,16.44L63.21,16.23L62.88,16.03L62.61,15.87L62.27,15.67L62,15.51L61.8,15.38L61.71,15.32C61.54,15.205 61.363,15.101 61.18,15.01C60.886,14.853 60.582,14.716 60.27,14.6L60.17,14.6C60.108,14.556 60.041,14.519 59.97,14.49L59.85,14.43L59.64,14.33C59.407,14.255 59.17,14.195 58.93,14.15L58.69,14.09L57.93,13.89C57.662,13.822 57.398,13.738 57.14,13.64L56.74,13.45L56.36,13.29C56.159,13.208 55.951,13.141 55.74,13.09L55.48,13L55,13L54.31,12.92L53.3,12.92C52.88,12.92 52.46,12.92 52.03,12.87L50.49,12.87L50.46,12.69ZM38.74,25C38.93,24.76 39.13,24.52 39.34,24.3C39.446,24.179 39.559,24.066 39.68,23.96L39.86,23.8L40.03,23.64C40.131,23.554 40.224,23.461 40.31,23.36L40.55,23.11L40.72,22.93L40.81,22.84C40.967,22.67 41.134,22.51 41.31,22.36C41.478,22.226 41.659,22.109 41.85,22.01L41.97,22.01C42.029,21.999 42.091,21.999 42.15,22.01L42.24,22.1L42.24,22.33C42.24,22.33 42.05,22.63 41.94,22.78L41.64,23.13L41.45,23.34C41.249,23.579 41.025,23.796 40.78,23.99C40.61,24.13 40.44,24.29 40.28,24.44C40.16,24.56 40.033,24.674 39.9,24.78L39.59,25.05L39.29,25.36C39.191,25.459 39.098,25.562 39.01,25.67C38.815,25.906 38.644,26.16 38.5,26.43C38.373,26.643 38.259,26.863 38.16,27.09L38.1,27.21C38.069,27.275 38.042,27.342 38.02,27.41C37.986,27.475 37.956,27.542 37.93,27.61C37.905,27.681 37.872,27.748 37.83,27.81C37.788,27.872 37.76,27.81 37.76,27.81L37.63,27.75C37.71,27.43 37.8,27.11 37.9,26.8C38,26.49 38.08,26.16 38.2,25.8C38.269,25.643 38.345,25.489 38.43,25.34C38.51,25.2 38.61,25.08 38.7,24.95C38.698,24.93 38.698,24.91 38.7,24.89C38.702,24.87 38.7,24.89 38.7,24.89L38.74,25ZM56.4,30.21C56.4,29.9 56.34,29.61 56.32,29.3C56.3,28.99 56.32,28.66 56.32,28.3C56.349,28.071 56.406,27.846 56.49,27.63C56.526,27.555 56.566,27.481 56.61,27.41C56.662,27.348 56.718,27.292 56.78,27.24C56.833,27.201 56.89,27.168 56.95,27.14L57.14,27.05L57.26,26.99L57.54,26.83L57.85,26.65L58.95,26.65L59.17,26.73C59.276,26.774 59.38,26.824 59.48,26.88L59.72,27L60.42,27.34C60.61,27.44 60.8,27.54 60.98,27.65C61.16,27.76 61.28,27.83 61.42,27.93L61.58,28.06C61.655,28.139 61.725,28.222 61.79,28.31L61.89,28.45C62,28.59 62.11,28.74 62.23,28.87L62.33,28.96L62.43,29.06L62.57,29.21L62.64,29.29C62.696,29.409 62.763,29.523 62.84,29.63C62.949,29.793 63.065,29.949 63.19,30.1C63.297,30.236 63.394,30.38 63.48,30.53L63.57,30.7L63.62,30.81L63.76,31.11C63.76,31.26 63.86,31.4 63.9,31.56C63.966,31.768 64.01,31.983 64.03,32.2C64.051,32.42 64.051,32.64 64.03,32.86L63.97,33.1L63.89,33.23L63.81,33.31C63.742,33.36 63.668,33.4 63.59,33.43L63.08,33.58L62.59,33.58L62.09,33.7L61.62,33.77C61.195,33.818 60.768,33.842 60.34,33.84L59.74,33.84C59.514,33.855 59.286,33.855 59.06,33.84C58.906,33.812 58.755,33.768 58.61,33.71C58.504,33.666 58.4,33.616 58.3,33.56L58,33.43C57.92,33.43 57.84,33.31 57.76,33.25C57.68,33.19 57.71,33.15 57.76,33.11C57.79,33.043 57.79,32.967 57.76,32.9C57.726,32.842 57.667,32.801 57.6,32.79L57.4,32.73L57.21,32.61C57.126,32.514 57.053,32.411 56.99,32.3L56.92,32.15C56.855,32.001 56.801,31.847 56.76,31.69C56.731,31.595 56.707,31.498 56.69,31.4L56.69,31.07L56.62,30.77C56.62,30.61 56.56,30.46 56.53,30.3L56.53,30.22L56.4,30.21ZM46.86,26.7L47.81,26.7L47.99,26.77L48.16,26.86L48.27,26.92C48.368,27.005 48.461,27.095 48.55,27.19C48.603,27.266 48.649,27.347 48.69,27.43C48.729,27.558 48.76,27.688 48.78,27.82C48.78,28.15 48.78,28.46 48.84,28.77L48.84,29.12C48.84,29.6 48.84,30.12 48.92,30.55L48.92,30.76C48.931,30.839 48.966,30.912 49.02,30.97L49.08,31.38L49.08,31.52C49.087,31.633 49.087,31.747 49.08,31.86C49.095,31.986 49.095,32.114 49.08,32.24C49.049,32.433 49.002,32.624 48.94,32.81C48.873,32.949 48.796,33.082 48.71,33.21C48.57,33.379 48.42,33.54 48.26,33.69C48.18,33.799 48.093,33.902 48,34L47.55,34.24C47.199,34.377 46.833,34.474 46.46,34.53L45.56,34.53C45.21,34.53 44.87,34.44 44.56,34.41L43.95,34.35L43.41,34.3L43.12,34.3C42.985,34.28 42.851,34.249 42.72,34.21L42.38,34.02C42.302,33.955 42.229,33.885 42.16,33.81C42.049,33.655 41.952,33.491 41.87,33.32C41.822,33.201 41.788,33.077 41.77,32.95L41.77,32.41C41.78,32.295 41.8,32.181 41.83,32.07C41.845,31.986 41.865,31.902 41.89,31.82C41.99,31.48 42.08,31.22 42.18,30.97C42.292,30.725 42.425,30.491 42.58,30.27C42.71,30.08 42.85,29.89 42.99,29.71L43.2,29.43L43.35,29.24L43.45,29.1L43.72,28.73C43.83,28.58 43.92,28.49 44,28.39C44.08,28.29 44.13,28.25 44.2,28.19C44.367,28.02 44.544,27.859 44.73,27.71C44.82,27.65 44.92,27.57 45.03,27.51L45.19,27.43L45.83,27.14L46.3,26.95L46.66,26.84C46.749,26.815 46.839,26.795 46.93,26.78L46.86,26.7ZM52.42,31.84L52.53,31.75C52.605,31.842 52.669,31.943 52.72,32.05C52.754,32.125 52.784,32.202 52.81,32.28C52.833,32.341 52.875,32.394 52.93,32.43C52.976,32.44 53.024,32.44 53.07,32.43L53.19,32.89C53.253,33.093 53.334,33.29 53.43,33.48L53.54,33.73C53.61,33.92 53.68,34.11 53.74,34.31C53.8,34.51 53.87,34.84 53.93,35.11C53.971,35.353 54.028,35.594 54.1,35.83C54.17,36.05 54.25,36.26 54.34,36.48L54.58,37.06L54.65,37.22L55.03,38.14C55.09,38.29 55.14,38.44 55.19,38.59C55.252,38.783 55.299,38.98 55.33,39.18C55.35,39.393 55.35,39.607 55.33,39.82C55.33,39.95 55.28,40.08 55.24,40.21C55.209,40.322 55.173,40.432 55.13,40.54C55.108,40.601 55.078,40.658 55.04,40.71L54.95,40.8L54.53,40.8L54.21,40.72C54.147,40.693 54.086,40.659 54.03,40.62C53.951,40.541 53.878,40.458 53.81,40.37C53.666,40.185 53.532,39.991 53.41,39.79L53.31,39.62L53.16,39.41C53.084,39.308 52.996,39.214 52.9,39.13C52.745,38.962 52.536,38.853 52.31,38.82C52.046,38.821 51.79,38.917 51.59,39.09C51.437,39.209 51.294,39.34 51.16,39.48C51.017,39.636 50.886,39.803 50.77,39.98L50.68,40.13C50.58,40.29 50.48,40.44 50.37,40.59C50.305,40.677 50.231,40.757 50.15,40.83L50.06,40.83C50.021,40.786 49.991,40.735 49.97,40.68C49.941,40.595 49.917,40.508 49.9,40.42C49.9,40.078 49.933,39.736 50,39.4C50,39.15 50.11,38.86 50.18,38.58C50.25,38.3 50.34,37.99 50.43,37.7L50.61,37.11L50.7,36.84L50.91,36.11C51.01,35.79 51.09,35.47 51.17,35.11C51.25,34.75 51.29,34.64 51.36,34.41L51.44,34.12C51.5,33.9 51.56,33.67 51.63,33.45C51.7,33.23 51.82,32.94 51.93,32.69L51.98,32.57C52.076,32.341 52.197,32.123 52.34,31.92C52.382,31.86 52.433,31.806 52.49,31.76L52.42,31.84ZM37.42,34.34C37.42,34.05 37.51,33.76 37.56,33.47L37.56,36.27C37.565,36.36 37.565,36.45 37.56,36.54L37.56,40.21C37.566,40.283 37.566,40.357 37.56,40.43C37.539,40.483 37.513,40.533 37.48,40.58C37.422,40.648 37.358,40.712 37.29,40.77L37.18,40.83L36.31,40.83L35.89,40.74L35.47,40.61C35.312,40.541 35.162,40.458 35.02,40.36L34.88,40.23L34.68,39.98L35.2,39.98C35.338,39.973 35.475,39.953 35.61,39.92C35.734,39.894 35.852,39.846 35.96,39.78C36.018,39.755 36.072,39.721 36.12,39.68C36.203,39.613 36.277,39.536 36.34,39.45L36.47,39.24C36.627,38.957 36.754,38.659 36.85,38.35C36.95,38.03 37.05,37.71 37.12,37.35C37.19,36.99 37.23,36.78 37.28,36.5L37.28,36.33C37.28,36.19 37.28,36.05 37.33,35.91L37.33,35.73L37.4,35.19L37.45,34.79L37.45,34.19L37.42,34.34ZM44.81,48.63L45.04,48.63L45.15,48.57C45.192,48.551 45.227,48.52 45.25,48.48C45.285,48.438 45.312,48.391 45.33,48.34C45.363,48.266 45.389,48.189 45.41,48.11C45.416,48.043 45.416,47.977 45.41,47.91C45.41,47.78 45.47,47.65 45.49,47.51C45.573,47.046 45.7,46.59 45.87,46.15C45.91,46.078 45.953,46.008 46,45.94L46.06,45.86L46.12,45.79C46.162,45.744 46.209,45.704 46.26,45.67C46.383,45.578 46.513,45.498 46.65,45.43L46.78,45.43L46.85,45.52L46.92,45.7C46.949,45.812 46.972,45.926 46.99,46.04C46.99,46.34 47.06,46.7 47.08,47.04L47.08,47.81C47.089,47.908 47.116,48.003 47.16,48.09L47.23,48.2L47.34,48.29C47.456,48.345 47.577,48.392 47.7,48.43C47.872,48.485 48.05,48.522 48.23,48.54L48.43,48.54C48.601,48.533 48.771,48.517 48.94,48.49L49.08,48.49L49.6,48.42L50.39,48.42C50.433,48.409 50.472,48.384 50.5,48.35C50.538,48.326 50.572,48.295 50.6,48.26L50.6,48.17C50.634,48.104 50.657,48.033 50.67,47.96C50.68,47.874 50.68,47.786 50.67,47.7L50.67,46.62C50.687,46.471 50.718,46.324 50.76,46.18C50.784,46.142 50.811,46.105 50.84,46.07L50.93,45.96C50.977,45.925 51.032,45.905 51.09,45.9C51.145,45.924 51.193,45.962 51.23,46.01C51.23,46.16 51.3,46.26 51.32,46.35C51.34,46.44 51.32,46.43 51.32,46.47L51.32,46.6C51.329,46.763 51.329,46.927 51.32,47.09L51.32,47.9C51.329,48.019 51.352,48.137 51.39,48.25C51.451,48.394 51.585,48.493 51.74,48.51L55.16,48.51C55.235,48.497 55.305,48.463 55.36,48.41C55.441,48.317 55.493,48.202 55.51,48.08C55.543,47.898 55.563,47.715 55.57,47.53C55.57,47.21 55.57,46.9 55.63,46.6C55.65,46.442 55.691,46.288 55.75,46.14C55.778,46.08 55.811,46.023 55.85,45.97L55.93,45.89L56.03,45.83C56.121,45.884 56.183,45.976 56.2,46.08L56.2,46.32C56.242,46.735 56.258,47.153 56.25,47.57L56.25,47.95C56.244,48.088 56.283,48.225 56.36,48.34C56.473,48.443 56.617,48.507 56.77,48.52C56.932,48.546 57.096,48.563 57.26,48.57L59,48.57C59.1,48.58 59.2,48.58 59.3,48.57C59.368,48.56 59.432,48.536 59.49,48.5C59.56,48.5 59.6,48.4 59.65,48.34C59.682,48.279 59.708,48.215 59.73,48.15C59.734,48.09 59.734,48.03 59.73,47.97C59.735,47.883 59.735,47.797 59.73,47.71L59.73,46.9C59.773,46.586 59.851,46.278 59.96,45.98C59.992,45.903 60.032,45.829 60.08,45.76C60.18,45.76 60.2,45.86 60.22,45.94C60.24,46.02 60.22,46.11 60.22,46.19L60.22,50.4C60.222,50.834 60.202,51.268 60.16,51.7C60.142,51.878 60.101,52.052 60.04,52.22C60.04,52.16 60.04,52.09 59.96,52.02C59.88,51.95 59.89,51.83 59.86,51.73C59.823,51.606 59.796,51.479 59.78,51.35C59.78,51.14 59.73,50.92 59.71,50.71C59.69,50.5 59.71,50.28 59.66,50.07C59.651,49.918 59.628,49.767 59.59,49.62C59.533,49.423 59.395,49.259 59.21,49.17C59.098,49.125 58.98,49.095 58.86,49.08L58.39,49.08C58.22,49.07 58.05,49.07 57.88,49.08L57.04,49.08C56.98,49.073 56.92,49.073 56.86,49.08C56.766,49.131 56.692,49.212 56.65,49.31C56.577,49.52 56.533,49.738 56.52,49.96C56.52,50.25 56.52,50.49 56.47,50.72C56.42,50.95 56.47,51.19 56.47,51.42C56.445,51.608 56.398,51.793 56.33,51.97C56.278,52.089 56.215,52.203 56.14,52.31C56.003,52.105 55.91,51.873 55.87,51.63L56,51.28L55.93,50.93L55.93,50.8C55.887,50.625 55.854,50.448 55.83,50.27C55.83,50.09 55.83,49.92 55.75,49.74L55.75,49.64C55.754,49.395 55.656,49.16 55.48,48.99C55.314,48.901 55.128,48.856 54.94,48.86L54.4,48.86C54.065,48.868 53.732,48.894 53.4,48.94L53.27,48.94L52.57,49.06L51.87,49.06C51.79,49.09 51.721,49.142 51.67,49.21C51.565,49.36 51.493,49.53 51.46,49.71C51.46,49.83 51.4,49.95 51.38,50.07C51.375,50.15 51.375,50.23 51.38,50.31L51.38,51.16L51.32,51.5C51.301,51.571 51.278,51.642 51.25,51.71C51.183,51.82 51.098,51.917 51,52C50.955,52.055 50.905,52.105 50.85,52.15L50.85,49.88C50.86,49.774 50.86,49.666 50.85,49.56C50.862,49.511 50.862,49.459 50.85,49.41C50.832,49.332 50.794,49.259 50.74,49.2C50.594,49.072 50.419,48.983 50.23,48.94L49.67,48.84L49.49,48.84C49.292,48.849 49.095,48.872 48.9,48.91L48.63,48.96L48.3,48.96L48,49L47.82,49C47.736,49.005 47.654,49.029 47.58,49.07C47.533,49.084 47.491,49.112 47.46,49.15C47.411,49.2 47.377,49.262 47.36,49.33C47.29,49.54 47.25,49.759 47.24,49.98L47.15,50.98C47.112,51.22 47.059,51.457 46.99,51.69C46.937,51.867 46.874,52.041 46.8,52.21L46.8,51.79C46.8,51.65 46.8,51.38 46.73,51.18C46.73,50.82 46.67,50.46 46.66,50.1C46.67,49.95 46.67,49.8 46.66,49.65C46.651,49.549 46.624,49.451 46.58,49.36C46.535,49.293 46.481,49.233 46.42,49.18C46.35,49.117 46.269,49.07 46.18,49.04L46,49.04C45.818,49 45.635,48.97 45.45,48.95L44.54,48.95C44.417,48.94 44.293,48.94 44.17,48.95C44.044,48.952 43.92,48.972 43.8,49.01C43.719,49.039 43.644,49.083 43.58,49.14L43.51,49.24C43.474,49.314 43.444,49.391 43.42,49.47C43.393,49.578 43.376,49.689 43.37,49.8L43.37,50.66C43.385,50.896 43.385,51.134 43.37,51.37C43.357,51.489 43.334,51.606 43.3,51.72L43.3,51.48C43.301,51.416 43.276,51.354 43.23,51.31C43.183,51.254 43.113,51.221 43.04,51.22L43.04,51.02C43.04,50.9 43.04,50.78 42.98,50.65C42.98,50.31 42.91,49.99 42.9,49.65C42.89,49.31 42.9,48.95 42.9,48.6L42.9,47.55C42.9,47.37 42.9,46.95 42.95,46.65C42.944,46.432 42.961,46.214 43,46C43.025,45.924 43.062,45.853 43.11,45.79L43.19,45.72L43.26,45.82C43.322,46.019 43.366,46.223 43.39,46.43C43.4,46.546 43.4,46.664 43.39,46.78L43.39,47.56C43.38,47.676 43.38,47.794 43.39,47.91C43.397,48.041 43.45,48.165 43.54,48.26C43.616,48.339 43.704,48.406 43.8,48.46C44.006,48.563 44.23,48.624 44.46,48.64L44.8,48.64L44.81,48.63Z" style="fill:rgb(213,213,213);fill-rule:nonzero;"/>
                </g>
                <g transform="matrix(0.109757,0,0,0.178588,-519.168,-139.229)">
                    <path d="M28.67,52.66L28.62,52.66C28.421,52.664 28.223,52.69 28.03,52.74C27.875,52.774 27.729,52.838 27.6,52.93L27.39,53.1C27.089,53.348 26.84,53.654 26.66,54C26.593,54.115 26.536,54.235 26.49,54.36C26.434,54.507 26.388,54.657 26.35,54.81L26.28,55.08C26.28,55.2 26.23,55.31 26.19,55.43C26.15,55.55 26.1,55.72 26.05,55.87L26,56L25.73,56.64C25.67,56.768 25.596,56.888 25.51,57C25.444,57.084 25.371,57.161 25.29,57.23C25.107,57.356 24.912,57.467 24.71,57.56L24.27,57.69L24.08,57.74L23.94,57.74L23.57,57.9L23.42,57.96C23.25,58.03 23.07,58.08 22.89,58.14L22.78,58.14C22.674,58.168 22.57,58.205 22.47,58.25L22.17,58.41L21.92,58.57L21.75,58.68L21.57,58.81C21.531,58.848 21.497,58.892 21.47,58.94C21.423,59.021 21.389,59.109 21.37,59.2C21.36,59.283 21.36,59.367 21.37,59.45L21.37,60.51C21.393,60.649 21.426,60.786 21.47,60.92L21.53,61.06C21.61,61.218 21.704,61.369 21.81,61.51C21.87,61.593 21.94,61.667 22.02,61.73C22.082,61.786 22.149,61.836 22.22,61.88L22.38,61.97L22.57,62.09C22.749,62.2 22.94,62.287 23.14,62.35C23.35,62.401 23.564,62.435 23.78,62.45L26,62.45C26.44,62.45 26.89,62.45 27.33,62.55L27.65,62.55C27.759,62.567 27.866,62.594 27.97,62.63L28.1,62.69L28.66,62.97L28.79,63.06L28.97,63.17L29.28,63.35C29.421,63.475 29.571,63.589 29.73,63.69L29.93,63.79L30.15,63.88C30.372,63.973 30.586,64.084 30.79,64.21L31.16,64.41L31.27,64.47L31.38,64.47L31.51,64.54L31.91,64.74C32.049,64.81 32.193,64.87 32.34,64.92L32.58,65.01C32.91,65.15 33.25,65.32 33.58,65.49L34,65.7L34.3,65.84L34.73,66.04L34.98,66.19L35.07,66.19L35.3,66.34L35.43,66.43C35.676,66.577 35.93,66.711 36.19,66.83C36.41,66.94 36.63,67.05 36.84,67.17L37.23,67.4L37.47,67.55L37.74,67.71L38.02,67.91L38.22,68.06L38.9,68.62L39.19,68.84L39.38,68.98L39.56,69.1L39.67,69.18L39.86,69.29L39.96,69.29C40.14,69.39 40.32,69.5 40.5,69.59L40.84,69.78L41.07,69.91C41.4,70.1 41.73,70.29 42.07,70.45L43.07,70.91L43.34,71.04L43.61,71.16L44.08,71.38L44.73,71.75L44.99,71.91C45.175,72.023 45.365,72.127 45.56,72.22L46.11,72.45C46.343,72.562 46.567,72.693 46.78,72.84L46.6,72.84L46.43,72.94L45.78,73.35L44.71,74.1L44.33,74.39L44.2,74.49L43.7,74.91C43.354,75.153 42.994,75.373 42.62,75.57C42.19,75.82 41.75,76.05 41.3,76.29C40.85,76.53 40.66,76.65 40.3,76.83L40.06,76.97L39.38,77.35L39.19,77.44L39,77.54L38.86,77.61L38.68,77.67L37.99,77.97L37.68,78.11L37.33,78.27L36.81,78.46L36.4,78.61L35.4,79.02L35.26,79.08L35.11,79.15L34.88,79.26L34.78,79.33L34.63,79.39L34.43,79.5L34.02,79.74L33.81,79.86L33.46,80.04L33.33,80.1L33.23,80.1C33.127,80.149 33.02,80.19 32.91,80.22L32.36,80.41C32.058,80.514 31.746,80.587 31.43,80.63L30.71,80.69L29.82,80.69C29.75,80.699 29.68,80.699 29.61,80.69L29.36,80.64L29,80.7L28.9,80.7C28.777,80.655 28.663,80.591 28.56,80.51L28.17,80.28L27.72,80L27.39,79.9L27.24,79.9C27.085,79.866 26.928,79.846 26.77,79.84L26.63,79.84C26.463,79.83 26.297,79.83 26.13,79.84C25.851,79.86 25.576,79.914 25.31,80L25.1,80.11C25.022,80.153 24.948,80.203 24.88,80.26C24.738,80.374 24.605,80.498 24.48,80.63C24.26,80.861 24.063,81.112 23.89,81.38C23.746,81.594 23.637,81.831 23.57,82.08C23.548,82.186 23.531,82.293 23.52,82.4L23.52,82.56C23.5,82.649 23.5,82.741 23.52,82.83C23.51,82.91 23.51,82.99 23.52,83.07C23.565,83.32 23.66,83.558 23.8,83.77C23.883,83.885 23.977,83.993 24.08,84.09L24.3,84.3L24.42,84.42L24.67,84.64C24.798,84.749 24.935,84.846 25.08,84.93C25.22,85.02 25.36,85.11 25.51,85.19C25.682,85.277 25.868,85.332 26.06,85.35C26.104,85.37 26.156,85.37 26.2,85.35C26.253,85.361 26.307,85.361 26.36,85.35L26.61,85.35L26.52,85.44L26.52,85.72L26.46,85.93L26.46,86.28C26.412,86.501 26.379,86.725 26.36,86.95C26.329,87.185 26.312,87.423 26.31,87.66C26.3,87.847 26.3,88.033 26.31,88.22L26.31,88.34C26.342,88.579 26.399,88.813 26.48,89.04C26.55,89.26 26.637,89.474 26.74,89.68C26.848,89.871 26.983,90.046 27.14,90.2C27.264,90.345 27.413,90.467 27.58,90.56C27.749,90.65 27.931,90.71 28.12,90.74L28.8,90.74C29.113,90.705 29.416,90.606 29.69,90.45C30.054,90.252 30.39,90.006 30.69,89.72C30.771,89.652 30.848,89.578 30.92,89.5L31.05,89.36L31.14,89.27L31.58,88.7C31.689,88.549 31.789,88.393 31.88,88.23L32,88L32.16,87.66L32.28,87.33L32.28,87.22L32.37,86.94C32.43,86.74 32.5,86.54 32.57,86.35C32.64,86.16 32.57,86.25 32.65,86.19L32.78,86.09C32.924,85.978 33.074,85.874 33.23,85.78C33.365,85.7 33.505,85.63 33.65,85.57L34.2,85.34C34.55,85.21 34.82,85.1 35.09,84.97C35.222,84.906 35.349,84.833 35.47,84.75L35.6,84.67C35.713,84.601 35.83,84.537 35.95,84.48L36.41,84.25C36.7,84.11 36.93,84 37.16,83.87C37.39,83.74 37.68,83.54 37.92,83.37C38.029,83.287 38.142,83.21 38.26,83.14C38.356,83.076 38.456,83.019 38.56,82.97C38.96,82.77 39.25,82.64 39.56,82.52C39.87,82.4 40.38,82.18 40.8,81.98C41.211,81.784 41.611,81.567 42,81.33L42.29,81.15L42.61,80.95L43.04,80.71L43.27,80.58C43.322,80.554 43.372,80.524 43.42,80.49L43.8,80.24L43.89,80.17L44.53,79.71L44.98,79.41L45.13,79.32L45.76,78.93C46.25,78.64 46.76,78.34 47.22,78.03L47.7,77.7L48.12,77.42L48.25,77.33L48.47,77.18L48.59,77.11L48.75,77.01L48.93,76.9L49.09,76.8L49.89,76.37L50.1,76.26L50.31,76.14C50.364,76.117 50.415,76.087 50.46,76.05L50.71,75.91L51.17,75.61L51.3,75.51L51.43,75.42C51.564,75.502 51.704,75.572 51.85,75.63L52.1,75.74L52.25,75.8L52.66,75.97L53.19,76.15L53.36,76.15L53.91,76.32L54.12,76.41L54.34,76.48L55.23,76.82C55.36,76.872 55.487,76.932 55.61,77L55.78,77.09L56.37,77.44L56.95,77.78C57.22,77.93 57.51,78.06 57.79,78.19L58.3,78.43L58.81,78.66C59.14,78.82 59.48,78.95 59.81,79.08L60.12,79.19L60.22,79.19L60.59,79.32L60.71,79.32C61.04,79.43 61.38,79.52 61.71,79.62L62.21,79.77L62.62,79.92L63.32,80.24C63.64,80.39 63.95,80.54 64.32,80.67C64.69,80.8 64.8,80.88 65.06,81.03L65.49,81.31L65.94,81.58L66.3,81.77L66.87,82.04C67.19,82.18 67.5,82.32 67.8,82.48L68.24,82.72L68.67,82.95L68.85,83.04L68.96,83.1L69.36,83.33L69.66,83.53L69.77,83.6L69.98,83.74L70.15,83.85L70.46,84.06L70.55,84.12L70.63,84.18C70.81,84.3 70.95,84.39 71.09,84.5C71.23,84.61 71.25,84.64 71.32,84.72L71.39,84.8L71.53,84.97L71.65,85.11L71.82,85.32L72.07,85.62C72.141,85.718 72.205,85.822 72.26,85.93L72.43,86.22L72.64,86.61L72.73,86.8L72.8,86.96L72.9,87.18C73.112,87.626 73.381,88.043 73.7,88.42C73.829,88.576 73.97,88.723 74.12,88.86C74.501,89.232 74.916,89.566 75.36,89.86C75.516,89.971 75.684,90.065 75.86,90.14C75.953,90.184 76.05,90.217 76.15,90.24C76.293,90.282 76.441,90.302 76.59,90.3L76.83,90.3C77.061,90.267 77.288,90.213 77.51,90.14C77.594,90.117 77.675,90.084 77.75,90.04C77.811,90.015 77.869,89.982 77.92,89.94L78.22,89.75L78.33,89.67L78.45,89.6L78.73,89.39C78.837,89.304 78.937,89.211 79.03,89.11C79.104,89.047 79.169,88.973 79.22,88.89C79.272,88.82 79.319,88.747 79.36,88.67L79.36,88.55C79.382,88.511 79.402,88.471 79.42,88.43C79.51,88.21 79.56,88.12 79.6,88.04L79.74,87.78C79.8,87.66 79.85,87.53 79.91,87.4C79.961,87.279 79.992,87.151 80,87.02C80.01,86.93 80.01,86.84 80,86.75L80,86.37C80,86.25 80,85.91 79.95,85.68L79.95,84.94C79.935,84.694 79.935,84.446 79.95,84.2C79.945,84.12 79.945,84.04 79.95,83.96C79.968,83.866 79.998,83.776 80.04,83.69C80.062,83.623 80.092,83.559 80.13,83.5C80.16,83.442 80.197,83.388 80.24,83.34L80.33,83.22C80.419,83.106 80.515,82.999 80.62,82.9L80.77,82.8L80.89,82.73L81.43,82.51L81.6,82.45L81.89,82.45L82.15,82.39C82.31,82.39 82.46,82.39 82.61,82.3C82.832,82.248 83.04,82.149 83.22,82.01C83.344,81.919 83.461,81.819 83.57,81.71C83.651,81.622 83.722,81.525 83.78,81.42C83.839,81.32 83.882,81.212 83.91,81.1C83.963,80.898 83.987,80.689 83.98,80.48C83.984,80.41 83.984,80.34 83.98,80.27L83.98,80.12L83.93,80.02L83.81,79.81L83.67,79.64L83.55,79.54C83.428,79.423 83.298,79.316 83.16,79.22C83.03,79.138 82.892,79.068 82.75,79.01C82.56,78.93 82.35,78.86 82.14,78.79C81.95,78.729 81.756,78.679 81.56,78.64L81.24,78.64C81.083,78.63 80.927,78.63 80.77,78.64C80.61,78.628 80.45,78.628 80.29,78.64L80.05,78.64C79.85,78.64 79.65,78.64 79.46,78.7L78.84,78.8C78.659,78.85 78.475,78.89 78.29,78.92L77.92,78.92L77.47,78.97L76.88,79.05L76.39,79.05L75.88,79.14L75.68,79.14L75.18,79.23L74.78,79.23C74.603,79.24 74.427,79.24 74.25,79.23L73.34,79.11L72.98,79.11L72.29,79.03L71.64,78.9C71.492,78.869 71.348,78.822 71.21,78.76L71.11,78.76C70.73,78.63 70.35,78.49 69.98,78.33C69.809,78.249 69.642,78.159 69.48,78.06L69.12,78L68.92,77.86C68.69,77.68 68.44,77.52 68.19,77.36L67.8,77.11L67.64,77L67.43,76.86L67.31,76.77L67.15,76.67C66.86,76.48 66.57,76.29 66.27,76.11L65.93,75.9C65.51,75.64 65.08,75.4 64.65,75.16L64.48,75.07C64.1,74.86 63.71,74.65 63.35,74.41C62.99,74.17 62.76,74.01 62.47,73.8L62.21,73.6C61.96,73.42 61.69,73.25 61.42,73.09L60.92,72.78C60.54,72.54 60.2,72.33 59.87,72.09L59.33,71.73L58.84,71.41L58.75,71.41C58.435,71.189 58.101,70.998 57.75,70.84C57.858,70.825 57.961,70.784 58.05,70.72L58.31,70.58L58.54,70.46L58.63,70.4C58.98,70.21 59.32,70.03 59.63,69.81L60.21,69.41L60.56,69.17L60.8,69L61.18,68.74L61.42,68.6L61.55,68.53L61.9,68.32L62.38,68.02L62.96,67.66L63.42,67.41L63.92,67.16L64.14,67.06L64.43,66.93L64.87,66.72L65.21,66.52L65.3,66.46L65.49,66.35L65.58,66.35L65.76,66.24L65.86,66.17L66.21,65.95C66.6,65.72 67.01,65.5 67.41,65.28C67.81,65.06 67.97,64.95 68.25,64.77L68.54,64.59C68.95,64.36 69.11,64.28 69.28,64.2C69.499,64.108 69.727,64.038 69.96,63.99C70.313,63.97 70.667,63.97 71.02,63.99L72.76,63.99L73.34,63.94L74.51,63.94L74.98,63.86L75.71,63.72C76.205,63.518 76.683,63.277 77.14,63C77.356,62.93 77.567,62.843 77.77,62.74L78.1,62.58L78.28,62.47C78.357,62.421 78.43,62.368 78.5,62.31L78.68,62.15L78.83,62.01C78.895,61.951 78.952,61.884 79,61.81L79.07,61.7C79.098,61.645 79.121,61.588 79.14,61.53C79.144,61.463 79.144,61.397 79.14,61.33C79.148,61.254 79.148,61.176 79.14,61.1C79.18,60.83 79.108,60.555 78.94,60.34C78.787,60.172 78.62,60.018 78.44,59.88L78.16,59.68L78,59.59L77.91,59.59L77.48,59.35L77.17,59.18L77.07,59L76.92,58.91L76.36,58.61L75.71,58.27C75.564,58.192 75.414,58.122 75.26,58.06C75.065,57.977 74.875,57.883 74.69,57.78C74.458,57.662 74.234,57.529 74.02,57.38L73.9,57.27C73.825,57.137 73.759,57 73.7,56.86C73.62,56.67 73.51,56.43 73.39,56.2C73.27,55.97 73.14,55.68 73.03,55.41C72.905,55.106 72.765,54.809 72.61,54.52L72.53,54.39C72.485,54.297 72.435,54.207 72.38,54.12C72.301,54.007 72.211,53.903 72.11,53.81C71.974,53.683 71.809,53.591 71.63,53.54C71.481,53.495 71.326,53.475 71.17,53.48C71.044,53.466 70.916,53.466 70.79,53.48L70.46,53.55L70.21,53.65L69.94,53.78C69.682,53.906 69.432,54.046 69.19,54.2C69.032,54.305 68.888,54.429 68.76,54.57C68.692,54.658 68.632,54.751 68.58,54.85C68.49,55.04 68.426,55.242 68.39,55.45C68.33,55.685 68.303,55.927 68.31,56.17L68.31,58.18C68.302,58.405 68.279,58.629 68.24,58.85L68.24,59C68.215,59.199 68.178,59.396 68.13,59.59C68.079,59.687 68.022,59.78 67.96,59.87C67.756,60.034 67.526,60.162 67.28,60.25L66.58,60.52L66.14,60.69C65.79,60.816 65.454,60.981 65.14,61.18L64.82,61.37L64.63,61.5L64.07,61.86L63.92,61.96L63.49,62.23L63.05,62.52L62.88,62.64L62.67,62.79C62.561,62.872 62.447,62.949 62.33,63.02L61.96,63.25L61.72,63.4L61.41,63.6L61.24,63.71L61,63.9L60.9,63.96L60.73,64.09C60.577,64.195 60.43,64.308 60.29,64.43L60.07,64.61L59.99,64.68C59.87,64.77 59.76,64.87 59.65,64.97L59.24,65.33L59.04,65.5C58.861,65.679 58.667,65.843 58.46,65.99L58.33,66.08L58.16,66.19L57.92,66.34L57.67,66.49L57.55,66.57L57.39,66.66L57.18,66.78L56.46,67.21L56.15,67.39L56,67.49L55.49,67.82L55.28,67.94L55.11,68.04L54.79,68.21L54.47,68.39L53.55,68.92L53.47,68.85C53.304,68.768 53.134,68.694 52.96,68.63C52.59,68.51 52.23,68.37 51.87,68.22L51.76,68.22L50.9,67.85L50.21,67.55L49.73,67.37L49.45,67.26L49.34,67.26L49.09,67.16L49,67L48.83,67L48.63,66.9L48.28,66.77L48.16,66.72L47.96,66.72L47.76,66.64L47.36,66.45L46.73,66.17C46.41,66.03 46.077,65.9 45.73,65.78L45.51,65.69C45.284,65.601 45.063,65.497 44.85,65.38L44.51,65.2L44.42,65L44.33,65L44.06,64.85C43.777,64.69 43.483,64.55 43.18,64.43L43,64.35L42.7,64.24L42.36,64.11C42.01,63.96 41.8,63.85 41.59,63.75C41.481,63.69 41.368,63.64 41.25,63.6L41,63.49L40.69,63.35L40.36,63.19L39.57,62.85C39.28,62.72 38.95,62.55 38.57,62.37L38.07,62.1L38,62L37.9,62L37.54,61.83L37.25,61.68L36.89,61.5C36.56,61.34 36.3,61.21 36.05,61.07L35.45,60.7L35.16,60.52L34.22,59.94L33.4,59.39C33.17,59.21 32.96,59.01 32.75,58.81L32.6,58.66C32.461,58.532 32.331,58.395 32.21,58.25C32.017,57.992 31.853,57.714 31.72,57.42C31.658,57.257 31.608,57.09 31.57,56.92C31.526,56.756 31.493,56.589 31.47,56.42L31.47,55.66C31.47,55.49 31.41,55.33 31.38,55.18L31.38,55.04C31.335,54.838 31.271,54.641 31.19,54.45C31.095,54.258 30.985,54.074 30.86,53.9C30.734,53.734 30.597,53.577 30.45,53.43L30.35,53.33C30.278,53.261 30.201,53.198 30.12,53.14L29.76,53L29.26,52.77C29.146,52.729 29.029,52.695 28.91,52.67L28.67,52.67L28.67,52.66Z" style="fill:rgb(213,213,213);fill-rule:nonzero;"/>
                </g>
            </g>
        </g>
    </g>
</svg>
