<?xml version="1.0" encoding="UTF-8" standalone="no"?>
<!DOCTYPE svg PUBLIC "-//W3C//DTD SVG 1.1//EN" "http://www.w3.org/Graphics/SVG/1.1/DTD/svg11.dtd">
<svg width="100%" height="100%" viewBox="0 0 51 76" version="1.1" xmlns="http://www.w3.org/2000/svg" xmlns:xlink="http://www.w3.org/1999/xlink" xml:space="preserve" xmlns:serif="http://www.serif.com/" style="fill-rule:evenodd;clip-rule:evenodd;stroke-linejoin:round;stroke-miterlimit:2;">
    <g transform="matrix(1,0,0,1,-2961,-1486)">
        <g transform="matrix(2.69775,0,0,1.44916,4378.24,1772.66)">
            <g id="icon_rumbottle" transform="matrix(0.354175,0,0,0.660468,-534.579,-202.137)">
                <path d="M56.44,22.09L48.95,22.09L47.27,7.27L58.11,7.27L56.44,22.09Z" style="fill:rgb(51,42,39);fill-rule:nonzero;"/>
                <g transform="matrix(0.449532,0,0,0.48296,-1789.95,-881.216)">
                    <path d="M4085.8,1870.37L4081.49,1870.37L4081.49,1858.01L4116.37,1858.01L4116.37,1870.37L4112.25,1870.37L4112.25,1899.38L4130.54,1899.38C4145.22,1899.38 4157.23,1909.4 4157.23,1921.66L4141.66,1988.91C4141.66,2001.17 4127.42,2001.92 4112.74,2001.92L4083.09,2001.92C4068.41,2001.92 4054.17,2001.17 4054.17,1988.91L4040.82,1921.66C4040.82,1909.4 4052.84,1899.38 4067.52,1899.38L4085.8,1899.38L4085.8,1870.37Z" style="fill:rgb(8,57,86);"/>
                </g>
                <ellipse cx="52.18" cy="61.92" rx="19.84" ry="8.59" style="fill:rgb(126,161,107);"/>
                <g transform="matrix(1,0,0,1,-3322.55,-1765.29)">
                    <path d="M3374.74,1825.8L3372.18,1823.23L3370.76,1824.65L3373.32,1827.21L3370.76,1829.77L3372.18,1831.19L3374.74,1828.62L3377.29,1831.19L3378.71,1829.77L3376.15,1827.21L3378.71,1824.65L3377.29,1823.23L3374.74,1825.8ZM3384.66,1825.8L3382.1,1823.23L3380.68,1824.65L3383.24,1827.21L3380.68,1829.77L3382.1,1831.19L3384.66,1828.62L3387.21,1831.19L3388.63,1829.77L3386.07,1827.21L3388.63,1824.65L3387.21,1823.23L3384.66,1825.8ZM3364.82,1825.8L3362.26,1823.23L3360.84,1824.65L3363.4,1827.21L3360.84,1829.77L3362.26,1831.19L3364.82,1828.62L3367.37,1831.19L3368.79,1829.77L3366.23,1827.21L3368.79,1824.65L3367.37,1823.23L3364.82,1825.8Z" style="fill:rgb(153,48,48);"/>
                </g>
            </g>
        </g>
    </g>
</svg>
