<?xml version="1.0" encoding="UTF-8" standalone="no"?>
<!DOCTYPE svg PUBLIC "-//W3C//DTD SVG 1.1//EN" "http://www.w3.org/Graphics/SVG/1.1/DTD/svg11.dtd">
<svg width="100%" height="100%" viewBox="0 0 31 76" version="1.1" xmlns="http://www.w3.org/2000/svg" xmlns:xlink="http://www.w3.org/1999/xlink" xml:space="preserve" xmlns:serif="http://www.serif.com/" style="fill-rule:evenodd;clip-rule:evenodd;stroke-linejoin:round;stroke-miterlimit:2;">
    <g transform="matrix(1,0,0,1,-3011,-1486)">
        <g transform="matrix(2.69775,0,0,1.44916,4378.24,1772.66)">
            <g id="icon_flamechalier" transform="matrix(1.68864,0,0,1.93198,419.58,105.896)">
                <g transform="matrix(0.218579,0,0,0.330973,-556.712,-159.376)">
                    <path d="M67.15,50.7L56.13,50.7C55.67,50.7 55.2,50.7 54.74,50.77L54,51L53.35,51.05C52.67,51.05 52.04,51.11 51.41,51.12L47.31,51.12C47.11,51.12 46.92,51.12 46.73,51.06L46.29,50.99L45.78,50.89L45.26,50.81L42.39,50.81C41.64,50.81 40.89,50.81 40.13,50.89L38.51,50.89L37.72,51C37.654,51.02 37.597,51.062 37.56,51.12C37.53,51.187 37.53,51.263 37.56,51.33C37.57,51.368 37.591,51.403 37.62,51.43C37.649,51.457 37.62,51.43 37.56,51.51C37.534,51.578 37.534,51.652 37.56,51.72L37.82,52.28L37.82,52.39C37.91,52.61 38,52.82 38.07,53.04C38.14,53.26 38.25,53.65 38.33,53.96L38.43,54.32L38.43,54.42C38.43,54.59 38.52,54.77 38.56,54.95C38.6,55.13 38.66,55.53 38.7,55.82L38.7,56.76C38.722,57.096 38.765,57.43 38.83,57.76C38.83,58.07 38.95,58.38 39.02,58.69L39.08,58.95L39.08,59.13C39.08,59.25 39.13,59.38 39.16,59.52L39.26,60.04C39.34,60.46 39.43,60.88 39.54,61.29C39.65,61.7 39.72,61.87 39.82,62.15L40.12,62.85C40.334,63.339 40.599,63.805 40.91,64.24C41.049,64.431 41.203,64.612 41.37,64.78C41.443,64.864 41.527,64.938 41.62,65L41.89,65.22L42.59,65.74L42.87,65.95L43,66.05L43.2,66.23L43.5,66.46L43.67,66.59L43.94,66.79L44.15,66.95L44.24,67.03L44.33,67.1L44.79,67.44L44.99,67.6L45.34,67.87C45.487,67.982 45.641,68.086 45.8,68.18C46,68.29 46.21,68.38 46.42,68.47C46.63,68.56 46.77,68.62 46.98,68.7C47.212,68.792 47.449,68.872 47.69,68.94L48.18,69.07L48.38,69.13C48.6,69.19 48.82,69.26 49.03,69.34L49.34,69.48L49.45,69.53L49.96,69.75L50.11,69.75L50.34,69.8L50.8,69.95L50.96,70.02L51.08,70.02C51.07,70.197 51.07,70.373 51.08,70.55L51.08,72.22C51.095,72.366 51.095,72.514 51.08,72.66C51.058,72.779 51.028,72.896 50.99,73.01L50.65,73.4L50.41,73.67C50.255,73.844 50.111,74.028 49.98,74.22C49.898,74.319 49.821,74.423 49.75,74.53C49.663,74.673 49.589,74.823 49.53,74.98C49.459,75.173 49.412,75.375 49.39,75.58L49.39,76.76C49.375,76.976 49.375,77.194 49.39,77.41C49.432,77.801 49.516,78.187 49.64,78.56C49.69,78.7 49.746,78.836 49.81,78.97L50.01,79.31C50.139,79.511 50.253,79.722 50.35,79.94C50.35,80.07 50.42,80.11 50.43,80.15L50.49,80.4L50.49,80.82L50.44,81.03L50.44,81.61C50.44,81.77 50.37,81.93 50.33,82.08C50.29,82.23 50.23,82.39 50.17,82.54C50.025,82.858 49.851,83.163 49.65,83.45L49.52,83.6L49.38,83.77L49.3,83.88L49.21,83.98C49.132,84.071 49.048,84.158 48.96,84.24L48.88,84.31C48.67,84.49 48.47,84.67 48.25,84.84C48.03,85.01 47.96,85.05 47.81,85.15C47.683,85.243 47.549,85.326 47.41,85.4C47.14,85.551 46.863,85.687 46.58,85.81L46.17,85.95L46.03,86L45.8,86.07L45.46,86.07L45.13,86.17C44.903,86.238 44.683,86.325 44.47,86.43C44.347,86.491 44.238,86.576 44.15,86.68C44.072,86.781 44.014,86.897 43.98,87.02C43.956,87.125 43.956,87.235 43.98,87.34C43.994,87.478 44.046,87.609 44.13,87.72C44.196,87.822 44.273,87.915 44.36,88C44.502,88.112 44.68,88.169 44.86,88.16L45.55,88.16L46.04,88.06L46.55,87.96L47,87.96L47.39,87.89C47.84,87.89 48.29,87.83 48.74,87.82L49.51,87.82C49.71,87.82 49.92,87.82 50.13,87.75C50.223,87.739 50.317,87.739 50.41,87.75L50.74,87.75C50.923,87.74 51.107,87.74 51.29,87.75L51.71,87.81L51.83,87.81L52.34,87.88L54.82,87.88C54.99,87.88 55.16,87.88 55.33,87.94L55.84,88.04L56.01,88.04L56.49,88.15C56.751,88.199 57.015,88.232 57.28,88.25L57.63,88.25C57.81,88.26 57.99,88.26 58.17,88.25L60.15,88.25C60.321,88.237 60.491,88.213 60.66,88.18L60.94,88.1L61.08,88.05L61.4,87.93L61.75,87.81L61.85,87.81L62.02,87.7C62.076,87.642 62.12,87.574 62.15,87.5C62.153,87.46 62.153,87.42 62.15,87.38L62.15,86.71C62.157,86.617 62.157,86.523 62.15,86.43C62.14,86.372 62.123,86.315 62.1,86.26C62.065,86.177 62.001,86.109 61.92,86.07C61.822,85.995 61.704,85.95 61.58,85.94C61.331,85.884 61.086,85.807 60.85,85.71L60.73,85.71L60.56,85.62C60.36,85.54 60.16,85.45 59.96,85.38L59.71,85.28L59.2,85.1C59.157,85.072 59.11,85.051 59.06,85.04L58.66,84.85C58.553,84.789 58.449,84.722 58.35,84.65L58.1,85L58,84.85L57.75,84.63L57.3,84.23C56.996,84.004 56.718,83.746 56.47,83.46C56.403,83.375 56.343,83.284 56.29,83.19C56.244,83.127 56.204,83.06 56.17,82.99L56,82.7L55.79,82.26L55.79,82.09C55.743,81.916 55.706,81.739 55.68,81.56L55.68,81.21C55.67,81.084 55.67,80.956 55.68,80.83C55.709,80.689 55.753,80.552 55.81,80.42C55.904,80.219 56.018,80.028 56.15,79.85C56.223,79.756 56.286,79.656 56.34,79.55C56.426,79.389 56.49,79.218 56.53,79.04C56.53,78.92 56.59,78.79 56.62,78.67L56.62,78.52C56.62,78.36 56.7,78.19 56.73,78.02C56.768,77.819 56.792,77.615 56.8,77.41L56.8,76.01C56.792,75.799 56.768,75.588 56.73,75.38C56.681,75.032 56.576,74.695 56.42,74.38C56.353,74.246 56.269,74.122 56.17,74.01C56.079,73.895 55.982,73.785 55.88,73.68C55.824,73.613 55.76,73.552 55.69,73.5L55.35,73.23L55.26,73.14C55.207,73.019 55.173,72.891 55.16,72.76C55.153,72.643 55.153,72.527 55.16,72.41L55.16,70.29L55.42,70.22L55.7,70.13L56.07,70C56.269,69.958 56.463,69.898 56.65,69.82C56.758,69.78 56.862,69.73 56.96,69.67L57.12,69.59C57.339,69.515 57.553,69.424 57.76,69.32C57.96,69.213 58.16,69.113 58.36,69.02C58.5,69.02 58.7,68.89 58.89,68.8L59.52,68.49C59.723,68.385 59.92,68.268 60.11,68.14C60.293,68.026 60.47,67.902 60.64,67.77C60.868,67.597 61.079,67.403 61.27,67.19L61.46,67C61.58,66.87 61.71,66.74 61.83,66.6L62.05,66.33L62.45,65.84L62.82,65.41L62.9,65.32L63.21,64.98C63.39,64.77 63.55,64.55 63.72,64.33L63.87,64.12C64.066,63.869 64.24,63.601 64.39,63.32C64.567,63.002 64.711,62.667 64.82,62.32C64.82,62.19 64.89,62.06 64.92,61.92L64.92,61.67L65.02,61.33L65.1,61.02L65.18,60.74L65.25,60.47L65.37,60.02L65.43,59.78L65.51,59.48L65.59,59.16L65.65,58.94C65.65,58.79 65.73,58.64 65.76,58.48C66.035,57.635 66.359,56.807 66.73,56C66.9,55.575 67.047,55.141 67.17,54.7L67.31,54.18L67.31,54.04C67.371,53.827 67.418,53.61 67.45,53.39C67.52,52.95 67.59,52.51 67.64,52.07C67.675,51.798 67.675,51.522 67.64,51.25C67.627,51.149 67.596,51.051 67.55,50.96C67.481,50.855 67.373,50.783 67.25,50.76L67.15,50.7Z" style="fill:rgb(213,213,213);fill-rule:nonzero;"/>
                </g>
                <g transform="matrix(0.218579,0,0,0.330973,-556.712,-159.376)">
                    <path d="M44.48,15.28C44.402,15.278 44.327,15.307 44.27,15.36C44.219,15.415 44.187,15.485 44.18,15.56C44.166,15.629 44.166,15.701 44.18,15.77L44.18,15.97C44.226,16.074 44.266,16.181 44.3,16.29L44.36,16.47C44.438,16.698 44.535,16.919 44.65,17.13L45.06,17.93L45.26,18.29C45.319,18.404 45.373,18.521 45.42,18.64C45.55,18.96 45.67,19.27 45.79,19.59L45.85,19.75L45.94,20.02C45.991,20.191 46.031,20.364 46.06,20.54C46.06,20.75 46.14,20.97 46.18,21.19L46.26,21.62L46.34,22.03C46.387,22.237 46.427,22.447 46.46,22.66C46.515,22.991 46.551,23.325 46.57,23.66L46.57,24.21C46.58,24.4 46.58,24.59 46.57,24.78L46.57,26.71C46.561,26.898 46.541,27.085 46.51,27.27L46.51,27.37L46.42,27.9C46.42,28.13 46.32,28.36 46.26,28.58C46.144,29.015 46,29.443 45.83,29.86L45.69,30.18L45.59,30.38L45.54,30.49C45.401,30.74 45.24,30.978 45.06,31.2L45,31.29L44.82,31.53C44.682,31.695 44.528,31.845 44.36,31.98L44.27,32.04L44.27,31.06C44.27,30.86 44.21,30.59 44.17,30.36C44.13,30.13 44.12,30.14 44.09,30.03L44,29.6C43.94,29.43 43.86,29.26 43.78,29.09L43.72,29C43.63,28.82 43.54,28.63 43.43,28.45C43.323,28.267 43.206,28.09 43.08,27.92C42.99,27.78 42.87,27.62 42.7,27.62C42.53,27.62 42.46,27.73 42.44,27.81C42.419,27.858 42.419,27.912 42.44,27.96C42.434,27.993 42.434,28.027 42.44,28.06C42.44,28.14 42.51,28.22 42.55,28.29L42.66,28.6C42.66,28.71 42.66,28.83 42.73,28.95C42.749,29.23 42.749,29.51 42.73,29.79C42.73,30.09 42.73,30.39 42.67,30.69C42.61,30.99 42.6,31.11 42.56,31.32L42.56,31.47C42.514,31.733 42.454,31.993 42.38,32.25C42.245,32.688 42.088,33.118 41.91,33.54C41.84,33.69 41.76,33.88 41.69,34.08C41.62,34.28 41.52,34.56 41.44,34.81C41.304,35.247 41.194,35.691 41.11,36.14C41.063,36.36 41.023,36.58 40.99,36.8C40.99,37.07 40.93,37.34 40.91,37.61C40.9,37.787 40.9,37.963 40.91,38.14L40.91,38.98C40.934,39.988 41.044,40.991 41.24,41.98C41.36,42.48 41.49,42.98 41.63,43.47L41.68,43.64C41.68,43.78 41.77,43.87 41.81,43.96L41.98,44.33C42.05,44.47 42.14,44.6 42.22,44.74L42.32,44.88L42.64,45.42L42.86,45.75C42.93,45.86 43.02,45.96 43.1,46.07L43.49,46.59L43.71,46.86C43.792,46.952 43.878,47.038 43.97,47.12C44.053,47.201 44.144,47.275 44.24,47.34C44.321,47.418 44.412,47.485 44.51,47.54C44.713,47.678 44.923,47.805 45.14,47.92L45.73,48.23L46.4,48.58L47.7,49.28L48.06,49.47L48.28,49.59C48.491,49.702 48.708,49.802 48.93,49.89C49.133,49.977 49.34,50.054 49.55,50.12C49.789,50.187 50.033,50.234 50.28,50.26C50.523,50.275 50.767,50.275 51.01,50.26L51.64,50.26C51.9,50.26 52.16,50.26 52.41,50.19L52.76,50.19C52.82,50.198 52.88,50.198 52.94,50.19L53.65,50.19C53.918,50.175 54.185,50.145 54.45,50.1L55.73,50L56,50C56.123,49.99 56.247,49.99 56.37,50L57.02,49.94L57.68,49.94C57.832,49.914 57.983,49.877 58.13,49.83C58.414,49.713 58.689,49.572 58.95,49.41L59.35,49.16C59.48,49.06 59.61,48.96 59.73,48.85C59.922,48.654 60.1,48.443 60.26,48.22C60.339,48.117 60.412,48.011 60.48,47.9C60.539,47.82 60.593,47.737 60.64,47.65L60.69,47.56C60.84,47.3 60.99,47.06 61.15,46.82C61.267,46.672 61.398,46.534 61.54,46.41C61.761,46.256 61.999,46.129 62.25,46.03L62.4,45.97C62.652,45.877 62.897,45.763 63.13,45.63C63.297,45.542 63.458,45.442 63.61,45.33C63.712,45.261 63.806,45.18 63.89,45.09C63.928,45.058 63.962,45.021 63.99,44.98C64.2,44.71 64.37,44.49 64.52,44.26C64.688,43.995 64.828,43.713 64.94,43.42C64.999,43.237 65.043,43.05 65.07,42.86C65.085,42.667 65.085,42.473 65.07,42.28C65.07,42.08 65.05,41.88 65.01,41.68C64.98,41.48 64.933,41.282 64.87,41.09C64.814,40.94 64.744,40.796 64.66,40.66C64.599,40.54 64.533,40.423 64.46,40.31C64.321,40.098 64.2,39.873 64.1,39.64C64.026,39.446 63.972,39.245 63.94,39.04C63.895,38.56 63.915,38.075 64,37.6C64,37.41 64.06,37.15 64.08,36.88C64.104,36.614 64.104,36.346 64.08,36.08C64.011,35.588 63.859,35.111 63.63,34.67C63.539,34.494 63.432,34.327 63.31,34.17C63.2,34.03 63.07,33.9 62.94,33.76C62.779,33.6 62.609,33.45 62.43,33.31C62.209,33.151 62.008,32.966 61.83,32.76C61.699,32.576 61.589,32.378 61.5,32.17L61.41,32C61.345,31.84 61.302,31.672 61.28,31.5L61.28,30.21C61.28,30 61.37,29.65 61.41,29.37L61.41,29.13L61.5,28.61C61.511,28.504 61.511,28.396 61.5,28.29C61.499,28.208 61.467,28.129 61.41,28.07C61.358,28.024 61.29,27.999 61.22,28L61.09,28C61.028,28.04 60.976,28.095 60.94,28.16C60.897,28.227 60.861,28.297 60.83,28.37L60.83,28.47L60.68,28.78C60.52,29.15 60.35,29.53 60.17,29.9C59.99,30.27 59.86,30.54 59.72,30.9C59.596,31.261 59.493,31.628 59.41,32C59.363,32.198 59.326,32.398 59.3,32.6L59.3,33.81C59.3,34.03 59.39,34.24 59.45,34.45C59.51,34.66 59.58,34.97 59.65,35.23L59.76,35.61L59.85,35.95L59.92,36.22C59.979,36.41 60.022,36.604 60.05,36.8C60.074,37.029 60.074,37.261 60.05,37.49C60.032,37.628 60.005,37.765 59.97,37.9C59.938,38.041 59.891,38.179 59.83,38.31C59.758,38.48 59.668,38.641 59.56,38.79C59.41,38.978 59.25,39.159 59.08,39.33L58.65,39.7C58.4,39.89 58.19,40.03 57.98,40.16L57.7,40.35C57.4,40.563 57.113,40.793 56.84,41.04L56.74,41.12L56.62,41.22L56.37,41.45L56.01,41.81C55.778,42.039 55.561,42.283 55.36,42.54C55.234,42.7 55.118,42.867 55.01,43.04L54.66,43.61C54.542,43.813 54.439,44.023 54.35,44.24C54.257,44.473 54.177,44.703 54.11,44.93C53.996,45.374 53.962,45.834 54.01,46.29C54.01,46.52 54.01,46.76 54.08,46.99C54.101,47.226 54.138,47.459 54.19,47.69L54.02,47.64L53.67,47.64L53.31,47.57L53.01,47.57L52.75,47.48L51.74,47L51.36,46.82L51.05,46.63C50.869,46.473 50.708,46.295 50.57,46.1C50.44,45.89 50.3,45.69 50.17,45.49L49.98,45.18L49.75,44.81L49.22,44L49,43.57C48.907,43.412 48.823,43.248 48.75,43.08C48.68,42.9 48.62,42.73 48.56,42.55C48.501,42.367 48.458,42.18 48.43,41.99C48.41,41.76 48.41,41.53 48.43,41.3C48.43,41.06 48.45,40.82 48.49,40.58C48.534,40.326 48.594,40.076 48.67,39.83C48.67,39.68 48.75,39.57 48.78,39.47L48.83,39.34C48.83,39.2 48.92,39.07 48.97,38.94C49.128,38.574 49.311,38.22 49.52,37.88C49.62,37.71 49.73,37.54 49.84,37.37L49.93,37.24C50.03,37.09 50.13,36.94 50.22,36.79C50.407,36.498 50.568,36.19 50.7,35.87L50.76,35.75C50.89,35.47 51.02,35.19 51.14,34.91L51.3,34.56L51.7,33.69L51.8,33.48C51.99,33.068 52.15,32.644 52.28,32.21C52.42,31.764 52.517,31.305 52.57,30.84C52.57,30.61 52.57,30.39 52.63,30.16C52.69,29.93 52.63,29.67 52.63,29.43L52.63,28.71C52.63,28.44 52.57,28.17 52.53,27.91C52.49,27.65 52.47,27.57 52.44,27.4L52.44,27.2C52.39,26.97 52.34,26.74 52.28,26.51C52.22,26.28 52.15,26.05 52.08,25.82L51.98,25.45L51.9,25.22L51.68,25C51.54,24.58 51.39,24.16 51.23,23.75L51.16,23.56C51.1,23.39 51.03,23.22 50.96,23.05L50.81,22.69C50.76,22.56 50.7,22.44 50.64,22.32L50.34,21.66L50.23,21.42C50.17,21.28 50.1,21.15 50.04,21.01L49.68,20.33C49.589,20.177 49.489,20.03 49.38,19.89L49.28,19.74C49.15,19.55 49,19.36 48.85,19.17L48.4,18.63L47.79,17.89C47.719,17.792 47.642,17.699 47.56,17.61L47.35,17.38L47.24,17.27C47.18,17.21 47.13,17.14 47.07,17.07L46.7,16.64C46.504,16.444 46.294,16.263 46.07,16.1C45.828,15.911 45.574,15.737 45.31,15.58L45.17,15.51L45,15.48L44.7,15.33C44.621,15.295 44.536,15.278 44.45,15.28L44.48,15.28Z" style="fill:rgb(153,48,48);fill-rule:nonzero;"/>
                </g>
                <g transform="matrix(0.218579,0,0,0.330973,-556.712,-159.376)">
                    <path d="M59.86,7.32L59.79,7.32C59.674,7.344 59.593,7.452 59.6,7.57C59.586,7.626 59.586,7.684 59.6,7.74L59.71,7.94L59.84,8.17C59.962,8.469 60.049,8.781 60.1,9.1C60.11,9.277 60.11,9.453 60.1,9.63L60.1,10.53C60.1,10.89 60.04,11.25 60,11.61L59.93,12.06L59.84,12.48C59.78,12.74 59.74,12.91 59.69,13.07C59.64,13.23 59.59,13.32 59.54,13.45C59.49,13.58 59.37,13.87 59.27,14.06C59.17,14.25 59.04,14.53 58.91,14.77C58.78,15.01 58.73,15.08 58.64,15.23L58.56,15.36C58.45,15.53 58.32,15.7 58.2,15.87C58.08,16.04 57.93,16.2 57.82,16.36L57.52,16.83L57.45,16.94L57.12,17.52L56.91,17.9L56.78,18.12L56.62,18.4L56.48,18.67L56.29,19.02L56.09,19.36L56,19.51C55.88,19.72 55.77,19.94 55.66,20.15C55.448,20.594 55.278,21.055 55.15,21.53C55.008,22.013 54.895,22.504 54.81,23C54.763,23.204 54.729,23.411 54.71,23.62L54.71,25.81C54.71,26.02 54.71,26.28 54.79,26.52C54.87,26.76 54.86,27.01 54.91,27.26C54.905,27.33 54.905,27.4 54.91,27.47L54.91,27.91C54.91,28.14 55.02,28.37 55.09,28.59C55.16,28.81 55.24,29.14 55.32,29.38C55.402,29.622 55.499,29.86 55.61,30.09C55.61,30.16 55.68,30.23 55.71,30.31L55.89,30.62L55.97,30.76L56.19,31.1L56.3,31.26L56.49,31.52C56.563,31.61 56.643,31.694 56.73,31.77L56.86,31.86C56.904,31.953 56.997,32.015 57.1,32.02C57.193,32.007 57.276,31.956 57.33,31.88C57.355,31.819 57.355,31.751 57.33,31.69C57.293,31.545 57.266,31.398 57.25,31.25L57.25,31.15C57.25,30.83 57.18,30.54 57.17,30.24L57.17,28.31C57.17,27.96 57.22,27.61 57.26,27.26L57.26,26.92C57.287,26.735 57.324,26.551 57.37,26.37C57.37,26.18 57.47,26 57.53,25.81C57.636,25.429 57.766,25.055 57.92,24.69C58.019,24.457 58.133,24.229 58.26,24.01C58.408,23.754 58.572,23.506 58.75,23.27C58.88,23.11 59.02,22.96 59.15,22.81L59.56,22.32L59.96,21.79L60.05,21.67C60.18,21.5 60.31,21.33 60.43,21.15C60.55,20.97 60.72,20.74 60.86,20.53C61,20.32 61.11,20.13 61.25,19.94C61.492,19.595 61.716,19.238 61.92,18.87C62.1,18.55 62.25,18.21 62.4,17.87L62.4,17.78C62.49,17.59 62.56,17.4 62.63,17.21L62.9,16.42L62.99,16.1C63.015,16.008 63.032,15.915 63.04,15.82C63.071,15.581 63.071,15.339 63.04,15.1L63.04,14.36C63.04,14.12 62.98,13.83 62.94,13.57C62.946,13.513 62.946,13.457 62.94,13.4L62.94,13.28C62.944,13.237 62.944,13.193 62.94,13.15L63,13C62.914,12.745 62.807,12.497 62.68,12.26L62.52,11.96L62.39,11.74C62.28,11.54 62.19,11.33 62.1,11.13L61.83,10.52L61.56,9.92C61.447,9.687 61.327,9.457 61.2,9.23C61.097,9.035 60.98,8.848 60.85,8.67L60.67,8.45C60.56,8.31 60.46,8.16 60.36,8.01C60.313,7.87 60.249,7.735 60.17,7.61C60.129,7.539 60.082,7.473 60.03,7.41C59.981,7.351 59.907,7.318 59.83,7.32L59.86,7.32Z" style="fill:rgb(153,48,48);fill-rule:nonzero;"/>
                </g>
            </g>
        </g>
    </g>
</svg>
