<?xml version="1.0" encoding="UTF-8" standalone="no"?>
<!DOCTYPE svg PUBLIC "-//W3C//DTD SVG 1.1//EN" "http://www.w3.org/Graphics/SVG/1.1/DTD/svg11.dtd">
<svg width="100%" height="100%" viewBox="0 0 71 76" version="1.1" xmlns="http://www.w3.org/2000/svg" xmlns:xlink="http://www.w3.org/1999/xlink" xml:space="preserve" xmlns:serif="http://www.serif.com/" style="fill-rule:evenodd;clip-rule:evenodd;stroke-linejoin:round;stroke-miterlimit:2;">
    <g transform="matrix(1,0,0,1,-3116,-1474)">
        <g transform="matrix(2.69775,0,0,1.44916,4378.24,1772.66)">
            <g id="icon_sail" transform="matrix(2.65297,0,0,2.98264,881.883,228.126)">
                <g transform="matrix(0.049419,0,0,0.102477,-691.001,-345.437)">
                    <rect x="3774.34" y="2068.67" width="26.388" height="51.31" style="fill:rgb(51,42,39);"/>
                </g>
                <g transform="matrix(0.109757,0,0,0.178588,-509.313,-147.185)">
                    <path d="M88.07,91.66L5.44,91.66L7.54,81.44C11.458,62.323 11.642,42.627 8.08,23.44L5.44,9.22L88.07,9.22C96.625,35.723 96.712,64.245 88.32,90.8L88.07,91.66Z" style="fill:rgb(213,213,213);fill-rule:nonzero;"/>
                </g>
                <g transform="matrix(0.109757,0,0,0.178588,-509.313,-147.185)">
                    <g opacity="0.33">
                        <path d="M74.05,18.17C77.627,19.832 80.634,22.515 82.69,25.88C86.873,32.531 87.968,40.681 85.69,48.2C84.604,51.982 82.434,55.365 79.45,57.93L78.88,57.73C79.403,56.09 79.827,54.421 80.15,52.73C80.526,51.074 80.81,49.398 81,47.71C81.314,44.315 81.226,40.895 80.74,37.52C80.301,34.138 79.469,30.819 78.26,27.63C77.63,26.049 76.916,24.504 76.12,23C75.357,21.47 74.502,19.987 73.56,18.56L74.05,18.17Z" style="fill:white;fill-rule:nonzero;"/>
                    </g>
                </g>
            </g>
        </g>
    </g>
</svg>
