<?xml version="1.0" encoding="UTF-8" standalone="no"?>
<!DOCTYPE svg PUBLIC "-//W3C//DTD SVG 1.1//EN" "http://www.w3.org/Graphics/SVG/1.1/DTD/svg11.dtd">
<svg width="100%" height="100%" viewBox="0 0 51 76" version="1.1" xmlns="http://www.w3.org/2000/svg" xmlns:xlink="http://www.w3.org/1999/xlink" xml:space="preserve" xmlns:serif="http://www.serif.com/" style="fill-rule:evenodd;clip-rule:evenodd;stroke-linejoin:round;stroke-miterlimit:2;">
    <g transform="matrix(1,0,0,1,-2861,-1651)">
        <g transform="matrix(2.69775,0,0,1.44916,4378.24,1772.66)">
            <g id="icon_daggerhand" transform="matrix(3.76016,0,0,3.83111,1445.9,502.072)">
                <g transform="matrix(0.109757,0,0,0.178588,-537.381,-155.115)">
                    <path d="M38.54,12.74C38.4,12.74 38.34,12.81 38.31,12.88L38.25,12.88C38.197,12.868 38.143,12.868 38.09,12.88C38.022,12.913 37.974,12.976 37.96,13.05C37.93,13.117 37.93,13.193 37.96,13.26C38.03,13.44 38.11,13.62 38.19,13.8C38.256,14.077 38.353,14.345 38.48,14.6L38.57,14.77L38.68,14.95C38.723,15.044 38.773,15.134 38.83,15.22L38.89,15.3C38.931,15.38 38.964,15.464 38.99,15.55L39.13,15.93L39.25,16.26L39.57,17.03L39.93,17.84C40.05,18.16 40.13,18.34 40.21,18.51C40.29,18.68 40.37,18.84 40.45,19L40.52,19.13L40.6,19.28C40.735,19.545 40.886,19.802 41.05,20.05C41.13,20.18 41.22,20.31 41.31,20.44L41.55,20.74C41.78,21.03 42,21.33 42.21,21.63L42.47,22.03L42.54,22.14C42.62,22.27 42.7,22.4 42.79,22.53L42.87,22.64C43.04,22.88 43.21,23.12 43.4,23.35C43.59,23.58 43.61,23.58 43.71,23.68L43.92,23.87L44.12,24.05C44.72,24.62 45.2,25.11 45.63,25.6L46.32,26.37C46.446,26.511 46.579,26.644 46.72,26.77C46.71,26.835 46.737,26.9 46.79,26.94C46.99,27.15 47.19,27.37 47.41,27.58C47.445,27.622 47.486,27.659 47.53,27.69L47.77,27.9L47.94,28.06L48.12,28.24L48.19,28.33C48.282,28.418 48.369,28.512 48.45,28.61L48.52,28.7C48.66,28.88 48.75,29 48.9,29L49.09,29.11L49.41,29.47L49.73,29.73L50.15,30.03C50.47,30.23 50.77,30.45 51.07,30.68C51.37,30.91 51.61,31.13 51.85,31.35L52.3,31.77C52.368,31.842 52.442,31.909 52.52,31.97L52.64,32.08L52.84,32.25L53.67,32.96L53.93,33.16L54.03,33.16L54.18,33.27C54.401,33.451 54.611,33.645 54.81,33.85L55,34L55.27,34.27L55.39,34.4C55.452,34.459 55.519,34.512 55.59,34.56C55.63,34.591 55.679,34.609 55.73,34.61C55.664,34.655 55.627,34.731 55.63,34.81C55.502,35.057 55.337,35.283 55.14,35.48L54.74,35.92C54.58,36.09 54.41,36.26 54.26,36.44C54.113,36.601 53.976,36.771 53.85,36.95L53.79,37.02L53.52,37.41L53.37,37.62C53.244,37.788 53.13,37.965 53.03,38.15C52.913,38.367 52.809,38.59 52.72,38.82L52.61,39.08C52.571,39.211 52.54,39.345 52.52,39.48C52.5,39.633 52.5,39.787 52.52,39.94C52.534,40.025 52.564,40.107 52.61,40.18L52.68,40.29C52.736,40.336 52.796,40.376 52.86,40.41L53.06,40.41C53.131,40.439 53.204,40.459 53.28,40.47C53.396,40.486 53.514,40.486 53.63,40.47C53.785,40.47 53.94,40.45 54.09,40.41C54.203,40.374 54.313,40.331 54.42,40.28C54.597,40.202 54.764,40.105 54.92,39.99L55.38,39.61C55.468,39.607 55.552,39.576 55.62,39.52C56.04,39.14 56.46,38.76 56.9,38.39L57,38.4L57.15,38.27L57.15,38.44L57.32,39.07L57.4,39.39C57.405,39.467 57.405,39.543 57.4,39.62L57.4,40.74C57.409,41.145 57.48,41.546 57.61,41.93C57.675,42.086 57.751,42.236 57.84,42.38L58,42.67L58.13,42.9C58.23,43.07 58.34,43.23 58.46,43.4C58.58,43.57 58.61,43.59 58.69,43.69L58.76,43.79C58.89,43.96 59.02,44.13 59.16,44.29C59.33,44.477 59.51,44.654 59.7,44.82L60.01,45.11C60.266,45.326 60.504,45.564 60.72,45.82L60.95,46.15L61.11,46.38L61.39,46.78L61.48,46.91C61.489,46.97 61.489,47.03 61.48,47.09C61.49,47.26 61.49,47.43 61.48,47.6L61.48,49.02C61.48,49.23 61.48,49.52 61.42,49.77C61.42,50.237 61.38,50.707 61.3,51.18C61.24,51.68 61.18,52.18 61.15,52.67L61.15,53.25C61.15,53.57 61.15,53.9 61.09,54.25L61.09,55.8C61.09,56.73 61.09,57.71 61.22,58.7L61.22,59.62C61.22,59.94 61.27,60.26 61.32,60.57C61.37,60.88 61.39,61 61.43,61.21L61.43,61.47C61.48,61.78 61.54,62.1 61.62,62.4C61.7,62.7 61.78,62.97 61.87,63.25C61.964,63.554 62.078,63.851 62.21,64.14C62.3,64.39 62.4,64.63 62.5,64.88L62.81,65.58L62.87,65.71C62.87,65.85 62.96,65.95 62.99,66.05C63.02,66.15 62.99,66.17 62.99,66.23L62.99,66.38C62.89,66.54 62.85,66.55 62.8,66.57L62.6,66.57L61.94,66.46L61.82,66.46L61.4,66.38L60.83,66.28L60.26,66.17C59.956,66.118 59.648,66.088 59.34,66.08C59.217,66.07 59.093,66.07 58.97,66.08C58.586,66.122 58.205,66.189 57.83,66.28C57.42,66.37 57.02,66.47 56.62,66.58L56.12,66.72L55.64,66.72L55.25,66.83C55.092,66.893 54.938,66.967 54.79,67.05C54.42,67.28 54.05,67.49 53.67,67.7L53.47,67.81L52.81,68.18C52.63,68.28 52.47,68.38 52.31,68.49L51.92,68.78L51.81,68.85C51.643,68.987 51.466,69.111 51.28,69.22C51.096,69.332 50.906,69.432 50.71,69.52L50.34,69.7L49.96,69.87C49.758,69.952 49.561,70.046 49.37,70.15L49.2,70.25L49.08,70.32L48.9,70.42C48.713,70.529 48.519,70.625 48.32,70.71L48.22,70.71L48.08,70.77L48,71C47.77,71.07 47.53,71.14 47.29,71.19L47.01,71.27L46.64,71.36L46.35,71.36L45.97,71.43C45.37,71.49 44.76,71.5 44.16,71.5L38.35,71.5C38.111,71.51 37.874,71.54 37.64,71.59L37.01,71.59L36.46,71.65L34.65,71.65C34.33,71.65 34.01,71.6 33.7,71.6C33.592,71.607 33.487,71.645 33.4,71.71C33.316,71.761 33.247,71.834 33.2,71.92C33.189,71.969 33.189,72.021 33.2,72.07C33.19,72.123 33.19,72.177 33.2,72.23C33.215,72.376 33.271,72.514 33.36,72.63C33.512,72.835 33.686,73.023 33.88,73.19C34.101,73.408 34.338,73.608 34.59,73.79L35.38,74.38L35.57,74.52L36.03,74.9C36.185,75.033 36.322,75.184 36.44,75.35L36.89,75.9L36.96,75.98C37.068,76.097 37.168,76.22 37.26,76.35C37.35,76.46 37.44,76.59 37.52,76.7C37.633,76.876 37.727,77.064 37.8,77.26C37.94,77.63 38.08,78.01 38.21,78.38C38.263,78.561 38.33,78.739 38.41,78.91L38.47,79.09L38.59,79.41C38.68,79.69 38.77,79.98 38.85,80.27L38.95,80.58C39.01,80.76 39.07,80.94 39.14,81.13C39.21,81.32 39.21,81.3 39.25,81.39C39.29,81.48 39.25,81.48 39.32,81.53C39.381,81.666 39.458,81.793 39.55,81.91L39.73,82.16L39.92,82.41L40.08,82.63L40.17,82.76C40.23,82.84 40.28,82.92 40.35,83C40.42,83.08 40.62,83.35 40.76,83.51C40.9,83.67 41.07,83.85 41.23,84.01C41.39,84.17 41.59,84.36 41.74,84.49C41.89,84.62 42.12,84.79 42.32,84.93C42.593,85.128 42.884,85.299 43.19,85.44C43.628,85.636 44.075,85.809 44.53,85.96L45,86.12L45.16,86.12C45.43,86.21 45.7,86.29 45.96,86.39L46.15,86.48L46.62,86.69C46.84,86.8 47.06,86.89 47.28,86.98C47.383,87.026 47.49,87.062 47.6,87.09L47.89,87.18C48.06,87.229 48.227,87.29 48.39,87.36L48.55,87.43L48.88,87.57C49.047,87.655 49.207,87.752 49.36,87.86L49.5,87.93L49.8,88.12C49.935,88.239 50.102,88.315 50.28,88.34L50.46,88.27C50.46,88.27 50.46,88.36 50.59,88.38C50.72,88.4 50.9,88.32 50.93,88.19L50.93,87.96C50.954,87.973 50.977,87.986 51,88C51.127,87.704 51.274,87.416 51.44,87.14C51.552,86.959 51.675,86.785 51.81,86.62C51.952,86.428 52.109,86.247 52.28,86.08C52.416,85.942 52.56,85.812 52.71,85.69C52.832,85.595 52.963,85.512 53.1,85.44C53.28,85.34 53.46,85.26 53.64,85.18C53.852,85.1 54.069,85.033 54.29,84.98L54.64,84.98L54.82,84.92L55,84.92C55.308,84.872 55.619,84.848 55.93,84.85L56.68,84.85C56.93,84.85 57.18,84.85 57.44,84.9L58.99,84.9C59.169,84.873 59.345,84.836 59.52,84.79L59.66,84.79L59.98,84.71C60.133,84.667 60.28,84.606 60.42,84.53C60.779,84.369 61.116,84.16 61.42,83.91C61.55,83.8 61.67,83.68 61.79,83.56L62.21,83.21C62.463,83.015 62.727,82.835 63,82.67C63.18,82.55 63.32,82.46 63.46,82.35C63.681,82.18 63.892,81.996 64.09,81.8C64.38,81.53 64.66,81.24 64.93,80.96L65.42,80.45C65.59,80.28 65.77,80.13 65.95,79.97L66.55,79.55C66.78,79.38 67.01,79.2 67.23,79.01L67.77,78.55L67.97,78.37L68.31,78.08L68.47,77.96C68.593,77.861 68.727,77.777 68.87,77.71L68.99,77.65C69.2,77.53 69.41,77.42 69.63,77.32L69.88,77.23L70.7,77.23L71,77L71.22,77C71.62,77 72.04,76.9 72.47,76.87L73.16,76.87C73.402,76.855 73.639,76.798 73.86,76.7C73.99,76.633 74.105,76.541 74.2,76.43C74.262,76.368 74.31,76.293 74.34,76.21C74.367,76.159 74.391,76.105 74.41,76.05C74.51,75.774 74.584,75.49 74.63,75.2C74.63,74.99 74.69,74.78 74.71,74.56L74.77,74.02L74.77,73.82L74.84,73.23C74.84,72.88 74.9,72.63 74.91,72.38C74.92,72.13 74.91,71.74 74.91,71.38L74.91,67.08C74.91,66.81 74.91,66.61 74.98,66.38L75.07,65.67C75.136,65.28 75.173,64.886 75.18,64.49L75.18,64C75.18,63.83 75,63.66 75,63.5C75,63.34 74.89,63.08 74.84,62.88L74.74,62.56L74.55,62L74.46,61.62C74.407,61.407 74.347,61.197 74.28,60.99L74.19,60.71L74.19,60.6C74.19,60.5 74.13,60.39 74.09,60.28C74.05,60.17 73.98,59.98 73.93,59.82C73.88,59.66 73.78,59.41 73.72,59.21L73.6,58.86L73.46,58.47L73.46,58.34C73.4,58.2 73.35,58.05 73.3,57.9C73.183,57.606 73.083,57.305 73,57C73,56.85 72.94,56.71 72.9,56.57L72.76,56.13L72.64,55.69L72.64,55.49C72.623,55.385 72.599,55.282 72.57,55.18C72.514,54.973 72.447,54.77 72.37,54.57L72.29,54.37C72.19,54.09 72.09,53.81 72.01,53.53C71.93,53.25 71.82,52.85 71.74,52.53L71.64,52.1L71.53,51.66C71.43,51.25 71.37,50.97 71.32,50.66L71.32,49.09L71.26,48.63L71.26,48L71,47.6L71,46.69C71,46.47 71.09,46.31 71.13,46.16L71.13,45.98C71.173,45.806 71.23,45.635 71.3,45.47L71.3,45.33L71.37,45.11C71.405,45.029 71.431,44.946 71.45,44.86C71.51,44.64 71.59,44.42 71.67,44.21C71.75,44 71.77,43.99 71.82,43.89L72,43.6C72.092,43.415 72.199,43.238 72.32,43.07L72.39,42.97L72.56,42.77C72.622,42.705 72.679,42.634 72.73,42.56L72.88,42.38L73.11,42.06C73.28,41.84 73.41,41.65 73.55,41.46L73.84,41.06C74.03,40.82 74.18,40.61 74.33,40.38L74.54,40.05C74.629,39.926 74.709,39.796 74.78,39.66C74.863,39.5 74.93,39.333 74.98,39.16C75.046,38.976 75.086,38.785 75.1,38.59C75.122,38.427 75.122,38.263 75.1,38.1C75.076,37.988 75.028,37.882 74.96,37.79C74.912,37.714 74.851,37.646 74.78,37.59L74.49,37.36C74.351,37.264 74.195,37.196 74.03,37.16L73.51,37.16L73.51,37.06C73.525,36.9 73.525,36.74 73.51,36.58C73.501,36.419 73.467,36.261 73.41,36.11C73.311,35.896 73.172,35.702 73,35.54C72.874,35.399 72.733,35.272 72.58,35.16C72.439,35.045 72.293,34.938 72.14,34.84L72.03,34.84C71.936,34.795 71.834,34.771 71.73,34.77L71.52,34.77C71.422,34.785 71.328,34.815 71.24,34.86C71.133,34.911 71.03,34.967 70.93,35.03C70.983,34.807 71.009,34.579 71.01,34.35C71.029,34.085 71.005,33.818 70.94,33.56C70.853,33.315 70.696,33.099 70.49,32.94C70.375,32.838 70.243,32.757 70.1,32.7C69.884,32.594 69.655,32.513 69.42,32.46C69.232,32.404 69.036,32.377 68.84,32.38C68.647,32.378 68.455,32.405 68.27,32.46C68.329,32.403 68.371,32.33 68.39,32.25C68.482,31.966 68.509,31.666 68.47,31.37C68.437,31.125 68.37,30.886 68.27,30.66C68.227,30.559 68.17,30.465 68.1,30.38C68.035,30.284 67.961,30.193 67.88,30.11C67.709,29.958 67.513,29.836 67.3,29.75C66.98,29.628 66.642,29.56 66.3,29.55L66,29.55C65.877,29.536 65.753,29.536 65.63,29.55L65.9,29.29C66.03,29.14 66.15,28.98 66.27,28.83C66.35,28.72 66.42,28.603 66.48,28.48C66.551,28.33 66.605,28.172 66.64,28.01C66.674,27.845 66.697,27.678 66.71,27.51C66.725,27.344 66.725,27.176 66.71,27.01C66.682,26.874 66.635,26.743 66.57,26.62C66.532,26.536 66.481,26.459 66.42,26.39L66.31,26.3C66.233,26.245 66.149,26.201 66.06,26.17L65.76,26.12L65.61,26.12C65.554,26.11 65.496,26.11 65.44,26.12C65.276,26.128 65.115,26.173 64.97,26.25C64.856,26.299 64.746,26.356 64.64,26.42C64.292,26.606 63.958,26.817 63.64,27.05L63.54,27.13L63.26,27.34C63.08,27.49 62.91,27.65 62.74,27.81L62.32,28.19L61.9,28.58L61.55,28.91C61.29,29.15 61.04,29.39 60.77,29.61C60.747,29.562 60.717,29.518 60.68,29.48L60.55,29.35L60.45,29.27L60.19,29L60,28.83L59.83,28.66L59.72,28.54L59.47,28.28C59.24,28.06 59.02,27.82 58.8,27.59C58.58,27.36 58.45,27.22 58.27,27.05C58.109,26.903 57.939,26.766 57.76,26.64L57.37,26.38L57.23,26.29L57.1,26.2L56.62,25.85C56.38,25.66 56.15,25.43 55.92,25.21L55.76,25L55.23,24.46C54.98,24.22 54.72,23.99 54.45,23.76L54.3,23.64L54,23.39C53.85,23.28 53.72,23.17 53.58,23.05C53.44,22.93 53.27,22.79 53.19,22.7L52.85,22.34L52.63,22.09L52.16,21.56L51.89,21.29L51.79,21.2L51.61,21.04L51.51,20.95L51.42,20.86C51.127,20.6 50.837,20.36 50.55,20.14L50.39,20C50.336,19.962 50.285,19.919 50.24,19.87C50.06,19.7 49.94,19.57 49.82,19.44L49.42,18.97L49.1,18.62C48.9,18.4 48.69,18.19 48.47,17.99C48.308,17.833 48.134,17.689 47.95,17.56L47.47,17.21L47.35,17.12C47.233,17.046 47.119,16.966 47.01,16.88L46.91,16.8L46.81,16.73L46.71,16.65L46.47,16.45L46.2,16.19C45.945,15.945 45.671,15.721 45.38,15.52C45.13,15.342 44.869,15.178 44.6,15.03C44.352,14.881 44.095,14.747 43.83,14.63L43.68,14.56L43.21,14.34C42.941,14.224 42.664,14.131 42.38,14.06L41.7,14L41.41,13.94L41.04,13.84L40.85,13.84C40.67,13.787 40.493,13.724 40.32,13.65L39.65,13.34L38.65,12.89C38.604,12.88 38.556,12.88 38.51,12.89L38.54,12.74ZM41.54,16.04C41.512,16.018 41.488,15.991 41.47,15.96C41.451,15.898 41.451,15.832 41.47,15.77C41.486,15.705 41.53,15.65 41.59,15.62L41.78,15.62C42.151,15.668 42.516,15.751 42.87,15.87C43.06,15.95 43.25,16.05 43.44,16.14L43.79,16.27C43.962,16.326 44.127,16.403 44.28,16.5L45.14,17.09L45.59,17.38C45.748,17.482 45.899,17.596 46.04,17.72L46.33,17.96L46.54,18.14L46.75,18.33L47.06,18.61L47.29,18.8L47.68,19.13C47.83,19.252 47.974,19.382 48.11,19.52C48.18,19.6 48.24,19.68 48.31,19.75L48.41,19.86L48.47,19.93C48.479,19.973 48.479,20.017 48.47,20.06C48.47,20.197 48.357,20.31 48.22,20.31C48.098,20.303 47.984,20.249 47.9,20.16L47.7,20C47.562,19.911 47.431,19.811 47.31,19.7L46.69,19.18C46.56,19.08 46.42,19 46.29,18.91L46.13,18.79L45.86,18.59L45.46,18.22C45.351,18.109 45.234,18.005 45.11,17.91C44.986,17.815 45.11,17.91 45.11,17.91L44.85,17.73L44.58,17.59C44.432,17.505 44.292,17.408 44.16,17.3L43.88,17.08C43.71,16.96 43.53,16.86 43.35,16.75C43.17,16.64 42.91,16.51 42.69,16.41C42.645,16.388 42.607,16.353 42.58,16.31L41.83,16.31C41.791,16.35 41.736,16.372 41.68,16.37C41.558,16.351 41.468,16.246 41.468,16.123C41.468,16.08 41.479,16.037 41.5,16L41.54,16.04ZM53,28.06C52.772,27.88 52.555,27.686 52.35,27.48L51.96,27.08C51.661,26.781 51.347,26.497 51.02,26.23C50.7,25.97 50.37,25.72 50.02,25.43C49.67,25.14 49.45,24.86 49.14,24.59L48.53,24.07C48.34,23.91 48.15,23.75 47.97,23.58C47.79,23.41 47.36,22.93 47.04,22.58L46.5,22.04C46.35,21.89 46.19,21.75 46.03,21.61L45.77,21.37L45.59,21.19L45.18,20.76L44.75,20.34L44.33,19.94L43.65,19.32L43.22,18.91C43.11,18.8 43,18.69 42.9,18.57C42.8,18.45 42.56,18.16 42.4,17.96C42.358,17.909 42.334,17.846 42.33,17.78C42.33,17.716 42.355,17.655 42.4,17.61C42.447,17.56 42.512,17.531 42.58,17.53C42.646,17.527 42.71,17.557 42.75,17.61C42.99,17.91 43.23,18.21 43.5,18.49L43.84,18.81C43.98,18.95 44.13,19.07 44.27,19.2L45.01,19.9C45.14,20.03 45.28,20.15 45.41,20.29C45.54,20.43 45.72,20.59 45.86,20.75C46,20.91 46.12,21.01 46.25,21.13C46.38,21.25 46.57,21.41 46.72,21.55L47.26,22.09L47.73,22.58C47.89,22.76 48.05,22.93 48.22,23.1C48.374,23.26 48.537,23.411 48.71,23.55C49.09,23.88 49.48,24.2 49.85,24.55L50.43,25.12L50.93,25.56L51.57,26.08L52.1,26.55L52.61,27.07L52.86,27.32L53.3,27.7C53.348,27.745 53.376,27.809 53.376,27.875C53.376,27.941 53.348,28.005 53.3,28.05C53.253,28.1 53.188,28.129 53.12,28.13C53.055,28.129 52.993,28.1 52.95,28.05L53,28.06ZM58.33,37.66C58.282,37.615 58.254,37.551 58.254,37.485C58.254,37.419 58.282,37.355 58.33,37.31L59.17,36.61L59.5,36.29C59.64,36.13 59.77,35.96 59.91,35.79L60.44,35.16L61.04,34.5L61.65,33.88C61.85,33.68 62.03,33.46 62.21,33.25C62.39,33.04 62.56,32.84 62.72,32.62L62.8,32.52L63.35,31.81C63.45,31.68 63.54,31.55 63.65,31.43C63.724,31.307 63.849,31.223 63.99,31.2L64,31.2C64.111,31.228 64.19,31.328 64.19,31.443C64.19,31.476 64.183,31.509 64.17,31.54C64.158,31.584 64.138,31.624 64.11,31.66C64.086,31.713 64.056,31.764 64.02,31.81C63.94,31.93 63.87,32.05 63.8,32.18L63.64,32.42C63.46,32.71 63.28,33 63.09,33.28C63.003,33.389 62.923,33.502 62.85,33.62C62.77,33.75 62.68,33.88 62.59,34C62.5,34.12 62.39,34.27 62.28,34.4C62.209,34.498 62.132,34.591 62.05,34.68L61.6,35.24L61.49,35.38L61.27,35.67C61.2,35.76 61.12,35.84 61.04,35.93L60.73,36.25C60.65,36.33 60.57,36.42 60.48,36.5C60.33,36.654 60.169,36.797 60,36.93C59.85,37.05 59.71,37.18 59.56,37.29C59.407,37.412 59.246,37.526 59.08,37.63L58.89,37.74C58.797,37.788 58.7,37.829 58.6,37.86L58.53,37.86C58.418,37.855 58.32,37.778 58.29,37.67L58.33,37.66ZM59.13,69.08C59.067,69.017 59.044,68.925 59.07,68.84C59.022,68.818 58.98,68.784 58.95,68.74C58.881,68.619 58.921,68.463 59.04,68.39C59.171,68.311 59.308,68.245 59.45,68.19C59.596,68.139 59.747,68.102 59.9,68.08C60.078,68.04 60.259,68.01 60.44,67.99C60.75,67.99 61.06,67.93 61.37,67.92L62.96,67.92C63.036,67.91 63.114,67.91 63.19,67.92C63.273,67.946 63.34,68.009 63.37,68.09C63.395,68.151 63.395,68.219 63.37,68.28C63.37,68.36 63.27,68.39 63.19,68.42L63,68.42C62.95,68.464 62.887,68.492 62.82,68.5C62.54,68.5 62.25,68.5 61.97,68.56L61.38,68.62L60.96,68.62C60.69,68.62 60.41,68.72 60.14,68.79L59.65,68.92L59.4,69L59.34,69C59.269,68.998 59.201,68.97 59.15,68.92L59.13,69.08Z" style="fill:rgb(213,213,213);fill-rule:nonzero;"/>
                </g>
                <g transform="matrix(0.109757,0,0,0.178588,-537.381,-155.115)">
                    <path d="M62.09,34.63L62.09,34.62L62.09,34.63Z" style="fill:rgb(213,213,213);fill-rule:nonzero;"/>
                </g>
                <g transform="matrix(0.109757,0,0,0.178588,-537.381,-155.115)">
                    <path d="M61.63,34.4L61.63,34.4Z" style="fill:rgb(213,213,213);fill-rule:nonzero;"/>
                </g>
                <g transform="matrix(0.109757,0,0,0.178588,-537.381,-155.115)">
                    <path d="M61.12,35.06L61.12,35.12L61.12,35.06Z" style="fill:rgb(213,213,213);fill-rule:nonzero;"/>
                </g>
                <g transform="matrix(0.109757,0,0,0.178588,-537.381,-155.115)">
                    <path d="M60.8,35.43C60.721,35.512 60.648,35.599 60.58,35.69C60.69,35.57 60.81,35.45 60.92,35.31L61.02,35.17L60.78,35.45L60.8,35.43Z" style="fill:rgb(213,213,213);fill-rule:nonzero;"/>
                </g>
                <g transform="matrix(0.109757,0,0,0.178588,-537.381,-155.115)">
                    <path d="M60.94,35.29L60.93,35.3L60.94,35.29Z" style="fill:rgb(213,213,213);fill-rule:nonzero;"/>
                </g>
                <g transform="matrix(0.109757,0,0,0.178588,-537.381,-155.115)">
                    <path d="M43.91,17.07L43.9,17.07L43.91,17.07Z" style="fill:rgb(213,213,213);fill-rule:nonzero;"/>
                </g>
                <g transform="matrix(0.109757,0,0,0.178588,-537.381,-155.115)">
                    <path d="M43.37,16.07L43.35,16.06L43.37,16.07Z" style="fill:rgb(213,213,213);fill-rule:nonzero;"/>
                </g>
                <g transform="matrix(0.109757,0,0,0.178588,-537.381,-155.115)">
                    <path d="M43.92,17.08L43.91,17.08L43.92,17.08Z" style="fill:rgb(213,213,213);fill-rule:nonzero;"/>
                </g>
                <g transform="matrix(0.109757,0,0,0.178588,-537.381,-155.115)">
                    <path d="M41.65,15.36C41.568,15.376 41.501,15.439 41.48,15.52C41.436,15.53 41.397,15.554 41.37,15.59L41.37,15.64L41,15.51C40.94,15.48 40.87,15.48 40.81,15.51C40.755,15.543 40.715,15.597 40.7,15.66C40.675,15.721 40.675,15.789 40.7,15.85C40.738,15.903 40.79,15.945 40.85,15.97L41.85,16.36L42.27,16.53C42.393,16.589 42.525,16.63 42.66,16.65C42.703,16.659 42.747,16.659 42.79,16.65L42.89,16.65C42.952,16.671 43.018,16.671 43.08,16.65L43.48,16.78L43.66,16.91C43.655,16.957 43.655,17.003 43.66,17.05C43.698,17.128 43.749,17.199 43.81,17.26L43.99,17.41L44.18,17.56C44.37,17.73 44.57,17.89 44.77,18.04L45.32,18.44L45.64,18.65L45.79,18.78L46.45,19.39C46.84,19.73 47.22,20.07 47.63,20.39L47.79,20.51C47.839,20.558 47.896,20.595 47.96,20.62C48.016,20.648 48.077,20.665 48.14,20.67L48.26,20.67C48.32,20.645 48.372,20.603 48.41,20.55C48.455,20.473 48.455,20.377 48.41,20.3C48.396,20.244 48.368,20.193 48.33,20.15L48.19,19.98L48,19.73C47.88,19.6 47.77,19.47 47.65,19.35C47.53,19.23 47.26,18.93 47.05,18.73C46.897,18.582 46.737,18.442 46.57,18.31L46.26,18.07L45.46,17.51L44.92,17.13L44.62,16.92C44.537,16.861 44.45,16.807 44.36,16.76L44.23,16.71L44.12,16.62C44.139,16.572 44.139,16.518 44.12,16.47L44.12,16.35C44.076,16.293 44.022,16.246 43.96,16.21L43.79,16.13L43.61,16.05C43.43,15.976 43.247,15.913 43.06,15.86L42.75,15.67C42.647,15.615 42.54,15.568 42.43,15.53L42.24,15.53L42,15.41C41.95,15.381 41.896,15.361 41.84,15.35L41.67,15.35L41.65,15.36Z" style="fill:rgb(213,213,213);fill-rule:nonzero;"/>
                </g>
                <g transform="matrix(0.109757,0,0,0.178588,-537.381,-155.115)">
                    <path d="M43.23,15.41C43.135,15.507 43.135,15.663 43.23,15.76C43.48,16 43.71,16.24 43.94,16.49L43.78,16.41L43.55,16.26C43.46,16.19 43.37,16.14 43.28,16.08L43,15.93C42.927,15.811 42.771,15.771 42.65,15.84C42.537,15.912 42.497,16.061 42.56,16.18C42.599,16.254 42.654,16.319 42.72,16.37C42.757,16.382 42.791,16.403 42.82,16.43C42.89,16.464 42.957,16.504 43.02,16.55L43.4,16.79C43.53,16.88 43.67,16.94 43.81,17.02C44.053,17.158 44.287,17.312 44.51,17.48C44.99,17.86 45.45,18.26 45.95,18.62L46.05,18.68L46.27,18.88L46.78,19.32C46.98,19.49 47.16,19.68 47.34,19.86L47.88,20.41C48.04,20.58 48.2,20.74 48.38,20.9L48.49,20.98C48.538,21.026 48.596,21.061 48.66,21.08C48.724,21.105 48.796,21.105 48.86,21.08C48.948,21.095 49.038,21.065 49.1,21L49.2,21.07C49.237,21.09 49.279,21.1 49.321,21.1C49.456,21.1 49.569,20.995 49.58,20.86C49.579,20.792 49.55,20.727 49.5,20.68L48.57,19.95L48.44,19.81L47.91,19.27C47.653,19.037 47.383,18.82 47.1,18.62L46.86,18.41C46.863,18.34 46.838,18.271 46.79,18.22C46.51,17.95 46.25,17.67 45.99,17.39C45.748,17.125 45.491,16.875 45.22,16.64L44.79,16.28L44.33,15.94C44.071,15.751 43.797,15.584 43.51,15.44C43.467,15.431 43.423,15.431 43.38,15.44C43.314,15.438 43.251,15.468 43.21,15.52L43.23,15.41Z" style="fill:rgb(213,213,213);fill-rule:nonzero;"/>
                </g>
                <g transform="matrix(0.319748,0,0,0.264342,-545.147,-156.513)">
                    <path d="M35.57,21.72C35.535,21.76 35.511,21.808 35.5,21.86L35.01,22.86C34.926,23.01 34.855,23.167 34.8,23.33C34.749,23.497 34.712,23.667 34.69,23.84C34.675,23.996 34.675,24.154 34.69,24.31C34.685,24.38 34.685,24.45 34.69,24.52C34.701,24.607 34.728,24.692 34.77,24.77C34.788,24.804 34.811,24.835 34.84,24.86L34.96,24.97L35.22,24.97C35.389,24.994 35.561,24.943 35.69,24.83C35.798,24.715 35.873,24.573 35.91,24.42C35.943,24.282 35.966,24.141 35.98,24C35.995,23.747 35.995,23.493 35.98,23.24L35.98,22.2C35.975,22.15 35.975,22.1 35.98,22.05L35.98,21.9C36.019,21.79 35.972,21.667 35.87,21.61C35.827,21.6 35.783,21.6 35.74,21.61C35.672,21.613 35.608,21.642 35.56,21.69L35.57,21.72Z" style="fill:rgb(153,48,48);fill-rule:nonzero;"/>
                </g>
                <g transform="matrix(0.319748,0,0,0.264342,-545.147,-156.513)">
                    <path d="M36.92,26.62L36.92,26.71C36.912,26.733 36.912,26.757 36.92,26.78C36.87,26.93 36.82,27.08 36.78,27.22C36.721,27.401 36.671,27.584 36.63,27.77C36.549,28.056 36.522,28.354 36.55,28.65C36.567,28.745 36.591,28.838 36.62,28.93C36.643,29.03 36.684,29.124 36.74,29.21C36.773,29.266 36.817,29.313 36.87,29.35C36.932,29.382 37,29.399 37.07,29.4C37.14,29.404 37.21,29.386 37.27,29.35C37.33,29.307 37.381,29.253 37.42,29.19C37.449,29.15 37.473,29.106 37.49,29.06C37.507,29.014 37.49,28.98 37.49,28.94C37.505,28.807 37.505,28.673 37.49,28.54L37.49,27.83C37.49,27.68 37.49,27.44 37.44,27.24C37.39,27.04 37.44,26.97 37.44,26.84L37.44,26.72C37.446,26.698 37.449,26.675 37.449,26.653C37.449,26.538 37.371,26.438 37.26,26.41L37.2,26.41C37.091,26.416 36.996,26.487 36.96,26.59L36.92,26.62Z" style="fill:rgb(153,48,48);fill-rule:nonzero;"/>
                </g>
                <g transform="matrix(0.319748,0,0,0.264342,-545.147,-156.513)">
                    <path d="M36.9,16.37C36.83,16.37 36.81,16.45 36.78,16.52C36.57,17.03 36.39,17.52 36.18,18.06C36.107,18.237 36.053,18.421 36.02,18.61C35.975,18.814 35.955,19.022 35.96,19.23C35.95,19.33 35.95,19.43 35.96,19.53C36.002,19.668 36.106,19.778 36.24,19.83C36.356,19.864 36.482,19.834 36.57,19.75C36.631,19.685 36.682,19.611 36.72,19.53C36.805,19.363 36.865,19.184 36.9,19C36.942,18.835 36.975,18.668 37,18.5C37,18.34 37,18.17 37.07,18.01L37.07,17.47C37.07,17.31 37.07,17.15 37.14,16.99C37.131,16.954 37.131,16.916 37.14,16.88C37.155,16.831 37.155,16.779 37.14,16.73L37.14,16.62C37.17,16.56 37.17,16.49 37.14,16.43C37.107,16.372 37.053,16.329 36.99,16.31L37,16.31C36.957,16.3 36.913,16.3 36.87,16.31L36.9,16.37Z" style="fill:rgb(153,48,48);fill-rule:nonzero;"/>
                </g>
            </g>
        </g>
    </g>
</svg>
