<?xml version="1.0" encoding="UTF-8" standalone="no"?>
<!DOCTYPE svg PUBLIC "-//W3C//DTD SVG 1.1//EN" "http://www.w3.org/Graphics/SVG/1.1/DTD/svg11.dtd">
<svg width="100%" height="100%" viewBox="0 0 71 76" version="1.1" xmlns="http://www.w3.org/2000/svg" xmlns:xlink="http://www.w3.org/1999/xlink" xml:space="preserve" xmlns:serif="http://www.serif.com/" style="fill-rule:evenodd;clip-rule:evenodd;stroke-linejoin:round;stroke-miterlimit:2;">
    <g transform="matrix(1,0,0,1,-3046,-1474)">
        <g transform="matrix(2.69775,0,0,1.44916,4378.24,1772.66)">
            <g id="icon_heart" transform="matrix(3.10829,0,0,3.47602,1251.44,502.911)">
                <g transform="matrix(0.109757,0,0,0.178588,-562.25,-205.961)">
                    <path d="M75.37,84C75.37,84.27 75.37,84.53 75.3,84.79C75.278,84.925 75.248,85.059 75.21,85.19C75.21,85.29 75.21,85.39 75.13,85.49L75.13,85.71C75.13,85.84 75.05,85.97 75,86.1C74.95,86.23 74.9,86.4 74.86,86.52L74.86,86.61C74.86,86.73 74.77,86.85 74.72,86.97C74.67,87.09 74.58,87.31 74.53,87.45C74.408,87.752 74.311,88.063 74.24,88.38C74.18,88.71 74.13,89.05 74.08,89.38C74.08,89.55 74.08,89.73 74.01,89.9C74,90.087 74,90.273 74.01,90.46L74.01,90.99C74.008,91.175 74.028,91.36 74.07,91.54C74.066,91.6 74.066,91.66 74.07,91.72C74.101,91.806 74.145,91.887 74.2,91.96C74.281,92.086 74.382,92.198 74.5,92.29C74.613,92.375 74.737,92.442 74.87,92.49C75.02,92.559 75.178,92.61 75.34,92.64C75.493,92.655 75.647,92.655 75.8,92.64C75.976,92.633 76.15,92.606 76.32,92.56L76.63,92.41C76.726,92.352 76.811,92.278 76.88,92.19C77.048,91.995 77.174,91.767 77.25,91.52C77.345,91.195 77.393,90.858 77.39,90.52C77.404,90.185 77.378,89.849 77.31,89.52C77.31,89.41 77.31,89.31 77.24,89.2L77.24,89C77.24,88.81 77.15,88.63 77.1,88.44L77.01,88.09C76.95,87.9 76.9,87.71 76.85,87.52C76.8,87.33 76.85,87.32 76.85,87.22C76.72,86.77 76.58,86.32 76.44,85.87C76.3,85.42 76,85 75.84,84.62C75.68,84.24 75.57,83.83 75.44,83.43L75.44,83.31L75.44,84.04L75.37,84Z" style="fill:rgb(153,48,48);fill-rule:nonzero;"/>
                </g>
                <g transform="matrix(0.109757,0,0,0.178588,-562.25,-205.961)">
                    <path d="M70.12,74.91C70.11,74.939 70.11,74.971 70.12,75C70.13,75.126 70.13,75.254 70.12,75.38C70.102,75.586 70.069,75.789 70.02,75.99C69.981,76.16 69.93,76.327 69.87,76.49L69.87,76.61C69.79,76.863 69.7,77.113 69.6,77.36L69.47,77.64C69.47,77.64 69.47,77.75 69.39,77.8C69.323,78 69.266,78.204 69.22,78.41C69.118,78.788 69.042,79.172 68.99,79.56L68.99,80.53C68.99,80.7 68.99,81.09 69.06,81.36C69.147,81.859 69.295,82.346 69.5,82.81L69.5,82.75C69.577,82.931 69.671,83.106 69.78,83.27C69.886,83.323 70.002,83.357 70.12,83.37L70.26,83.37C70.366,83.38 70.474,83.38 70.58,83.37C70.746,83.334 70.91,83.287 71.07,83.23C71.23,83.173 71.385,83.099 71.53,83.01C71.644,82.929 71.754,82.842 71.86,82.75C71.98,82.641 72.082,82.512 72.16,82.37C72.23,82.23 72.29,82.09 72.35,81.94C72.401,81.78 72.438,81.616 72.46,81.45C72.464,81.367 72.464,81.283 72.46,81.2C72.47,81.147 72.47,81.093 72.46,81.04L72.46,80.48L72.46,80.54C72.39,80.09 72.33,79.65 72.23,79.22C72.17,78.99 72.11,78.75 72.05,78.53C71.99,78.31 71.93,78.1 71.85,77.89C71.71,77.47 71.53,77.08 71.42,76.66C71.374,76.474 71.317,76.29 71.25,76.11L71.09,75.66L70.97,75.38L70.97,75.44C70.91,75.279 70.84,75.122 70.76,74.97L70.53,74.81L70.43,74.81C70.361,74.805 70.294,74.84 70.26,74.9L70.12,74.91Z" style="fill:rgb(153,48,48);fill-rule:nonzero;"/>
                </g>
                <g transform="matrix(0.109757,0,0,0.178588,-562.25,-205.961)">
                    <path d="M67.57,85.11L67.39,85.11C67.3,85.116 67.221,85.175 67.19,85.26C67.11,85.58 67.04,85.9 66.96,86.26L66.96,86.48C66.96,86.67 66.87,86.86 66.82,87.05C66.784,87.197 66.737,87.34 66.68,87.48C66.61,87.69 66.55,87.84 66.49,87.99L66.49,88.1L66.34,88.47C66.27,88.64 66.21,88.81 66.13,88.98L66.08,89.12C66.08,89.23 65.99,89.34 65.95,89.45C65.888,89.597 65.834,89.747 65.79,89.9C65.741,90.061 65.701,90.224 65.67,90.39C65.632,90.581 65.609,90.775 65.6,90.97C65.59,91.143 65.59,91.317 65.6,91.49L65.6,92.1C65.595,92.187 65.595,92.273 65.6,92.36C65.595,92.453 65.595,92.547 65.6,92.64C65.619,92.828 65.649,93.015 65.69,93.2C65.752,93.467 65.861,93.72 66.01,93.95C66.071,94.041 66.138,94.128 66.21,94.21L66.44,94.43L66.58,94.53L66.69,94.58L66.98,94.67C67.162,94.697 67.346,94.713 67.53,94.72C67.683,94.738 67.837,94.738 67.99,94.72C68.172,94.67 68.34,94.577 68.48,94.45C68.561,94.381 68.634,94.304 68.7,94.22C68.7,94.15 68.81,94.08 68.86,94C68.91,93.92 69.01,93.74 69.08,93.6C69.219,93.299 69.327,92.984 69.4,92.66C69.406,92.583 69.406,92.507 69.4,92.43L69.4,92.18C69.414,92.02 69.414,91.86 69.4,91.7C69.4,91.56 69.35,91.42 69.32,91.28C69.29,91.14 69.25,90.92 69.21,90.74L69.14,90.47C69.08,90.23 69.03,89.99 68.98,89.74C68.935,89.445 68.865,89.153 68.77,88.87L68.66,88.54L68.59,88.35L68.53,88.15L68.53,88.04L68.41,87.7L68.33,87.45L68.24,87.16C68.09,86.783 67.97,86.395 67.88,86C67.869,85.862 67.849,85.725 67.82,85.59C67.805,85.502 67.785,85.416 67.76,85.33L67.76,85.26C67.741,85.171 67.661,85.108 67.57,85.11Z" style="fill:rgb(153,48,48);fill-rule:nonzero;"/>
                </g>
                <g transform="matrix(0.109757,0,0,0.178588,-562.25,-205.961)">
                    <path d="M74.15,34.83L73.81,34.83L73.46,34.9L73.13,34.97L72.95,34.97L72.51,35.08L72.35,35.08L71.73,35.24C71.385,35.334 71.05,35.461 70.73,35.62L70.03,35.97C69.677,36.163 69.343,36.387 69.03,36.64C68.87,36.76 68.72,36.9 68.56,37.03L68.26,37.29L67.76,37.74L67.61,37.88L67.23,38.25L67.07,38.44L67.02,38.51L67.02,38.58L66.96,38.65L66.59,39.13L66.53,39.21L66.44,39.32L66.2,39.68L65.94,40.09L65.88,40.19C65.784,40.341 65.697,40.498 65.62,40.66L65.62,40.52L65.5,40.39L65.34,40.18C65.25,40.06 65.17,39.95 65.1,39.84L64.85,39.46L64.72,39.24L64.34,39L63.94,38.55C63.82,38.43 63.7,38.3 63.57,38.19L63.35,38L63.23,37.9L63.1,37.79C62.79,37.54 62.48,37.29 62.1,37.05L62,36.94L61.88,36.86C61.827,36.821 61.77,36.788 61.71,36.76L61.63,36.7L61.45,36.61L61.37,36.61L61.15,36.51L61,36.39L60.1,36C59.946,35.93 59.785,35.877 59.62,35.84C59.43,35.779 59.236,35.729 59.04,35.69L58.46,35.59L57.9,35.51L56.28,35.51L55.94,35.56L54.55,35.56C54.364,35.601 54.181,35.651 54,35.71L53.41,35.88L52.84,36.08L52.64,36.16L52.54,36.16L52.39,36.22L52.31,36.22L52.06,36.34L51.75,36.51C51.39,36.71 51.04,36.94 50.75,37.17L50.49,37.35L50.24,37.51C50.125,37.594 50.004,37.671 49.88,37.74L49.71,37.84L49.38,38.03L49.25,38.09L48.92,38.28L48.64,38.47C48.415,38.624 48.204,38.798 48.01,38.99L47.6,39.42L47.53,39.5L47.99,39.87L48.48,40.28L49.4,41.06L49.88,41.47L52.23,43.22L54.69,45.03L56.01,46.03L57.09,46.82C57.09,46.63 57.02,46.43 56.99,46.24C56.96,46.05 56.99,45.78 56.92,45.55C56.85,45.32 56.92,45.04 56.86,44.78C56.8,44.52 56.86,44.45 56.81,44.29C56.76,44.13 56.81,43.85 56.81,43.63C56.785,43.437 56.785,43.243 56.81,43.05L56.81,42.9L56.86,42.79L56.86,42.53C56.86,42.44 56.92,42.34 56.95,42.24C56.946,42.2 56.946,42.16 56.95,42.12L56.95,42.01C56.95,42.01 56.95,41.92 57.02,41.87C57.012,41.847 57.012,41.823 57.02,41.8C57.032,41.763 57.053,41.729 57.08,41.7C57.143,41.621 57.239,41.577 57.34,41.58C57.389,41.566 57.441,41.566 57.49,41.58C57.522,41.604 57.552,41.631 57.58,41.66C57.608,41.682 57.632,41.709 57.65,41.74C57.685,41.768 57.716,41.802 57.74,41.84C57.839,41.957 57.929,42.08 58.01,42.21C58.067,42.245 58.117,42.289 58.16,42.34L58.38,42.63L58.49,42.78L59.29,43.9C59.409,44.057 59.519,44.221 59.62,44.39L59.83,44.61C59.94,44.73 60.04,44.86 60.15,44.99C60.26,45.12 60.31,45.22 60.4,45.33L60.64,45.67C60.76,45.854 60.87,46.045 60.97,46.24L61.47,46.9L62.29,48.07C62.93,48.98 63.59,49.89 64.19,50.83C64.26,50.94 64.34,51.05 64.4,51.16L64.61,51.54C64.74,51.76 64.86,51.99 64.98,52.22L65.24,52.73L65.3,52.83C65.38,52.94 65.45,53.05 65.54,53.16C65.8,53.54 66.07,53.91 66.34,54.29C66.61,54.67 66.84,54.98 67.08,55.34C67.32,55.7 67.49,56 67.7,56.34L68.05,56.92C68.045,56.946 68.045,56.974 68.05,57C68.096,57.051 68.14,57.104 68.18,57.16C68.269,57.263 68.349,57.374 68.42,57.49C68.496,57.6 68.566,57.713 68.63,57.83L68.78,58.13C68.879,58.339 68.959,58.557 69.02,58.78C69.039,58.876 69.039,58.974 69.02,59.07C69.025,59.14 69.025,59.21 69.02,59.28C69.005,59.335 68.985,59.388 68.96,59.44C68.937,59.488 68.907,59.532 68.87,59.57C68.798,59.647 68.709,59.705 68.61,59.74C68.448,59.77 68.282,59.77 68.12,59.74C67.975,59.73 67.832,59.71 67.69,59.68L67.19,59.55L67,59.76L65.86,59.35C65.466,59.215 65.061,59.114 64.65,59.05C64.459,59.033 64.268,59.006 64.08,58.97C63.904,58.927 63.73,58.874 63.56,58.81C63.21,58.69 62.86,58.56 62.56,58.41L62.62,58.41L62.12,58.19L61.54,58C61.35,57.91 61.16,57.82 60.98,57.72L60.57,57.51C60.2,57.32 59.82,57.16 59.45,56.98L58.8,56.69L58.3,56.47L57.81,56.24L57.44,56L57,55.77L56.46,55.52C56.11,55.36 55.78,55.18 55.46,55.01L55.3,54.93L55.22,54.93L54.85,54.8L54.26,54.58L54,54.47L53.08,54.08C52.91,54 52.73,53.93 52.56,53.84L51,53.07L50.26,52.7L49.95,52.54C49.883,52.509 49.82,52.472 49.76,52.43C49.696,52.376 49.642,52.312 49.6,52.24C49.595,52.224 49.595,52.206 49.6,52.19C49.54,52.162 49.483,52.129 49.43,52.09C49.318,52.021 49.214,51.941 49.12,51.85C49.046,51.786 49,51.697 48.99,51.6C48.975,51.551 48.975,51.499 48.99,51.45C49.012,51.405 49.047,51.367 49.09,51.34L49.17,51.34C49.208,51.247 49.3,51.187 49.4,51.19L50.69,51.19C50.737,51.157 50.793,51.14 50.85,51.14L51.54,51.14L52.27,51.08L55.11,51.08L55.04,51.08L55.77,50.98L56,50.98L55.85,50.89L55.69,50.78L55.52,50.66L54.85,50.21C54.4,49.89 53.93,49.59 53.46,49.28L52.23,48.47L51.61,48.06L50.88,47.61L49.21,46.55C48.88,46.34 48.56,46.11 48.21,45.89L46.79,44.89C46.28,44.53 45.79,44.17 45.29,43.78L45.12,43.64L45.03,43.87L45.03,43.97C44.96,44.14 44.9,44.31 44.84,44.48C44.71,44.87 44.58,45.25 44.48,45.65L44.48,45.74C44.431,45.901 44.391,46.064 44.36,46.23C44.36,46.35 44.3,46.48 44.27,46.61L44.27,46.97C44.27,47.11 44.27,47.25 44.2,47.4L44.2,47.55C44.2,47.72 44.2,47.89 44.15,48.05L44.09,48.67L44.09,51.09C44.086,51.143 44.086,51.197 44.09,51.25L44.09,51L44.09,51.33L44.16,51.67C44.16,51.74 44.16,51.82 44.21,51.89L44.27,52.13C44.27,52.29 44.36,52.46 44.4,52.63C44.519,52.97 44.656,53.304 44.81,53.63L45.11,54.23L45.68,55.34C45.88,55.72 46.09,56.09 46.3,56.46C46.36,56.57 46.43,56.68 46.5,56.79L46.61,56.97L46.83,57.32L46.95,57.49L47.2,57.85L47.29,57.98L47.45,58.2L47.66,58.49C47.89,58.82 48.12,59.14 48.36,59.49C48.6,59.84 48.85,60.1 49.11,60.41L49.5,60.83L49.74,61.07L49.92,61.26L50.75,62.09L50.89,62.21L50.97,62.28L51.15,62.44L51.46,62.69L51.61,62.81L52.61,63.63C52.75,63.76 52.91,63.88 53.06,64.01L53.17,64.1L53.29,64.19C53.346,64.239 53.406,64.282 53.47,64.32L53.97,64.65L54.05,64.71C54.17,64.78 54.28,64.87 54.4,64.95L54.54,65.05L54.63,65.12C54.75,65.22 54.88,65.32 54.99,65.43L55.13,65.55L55.5,65.9L55.77,66.14L55.93,66.28L56.06,66.38C56.22,66.52 56.4,66.66 56.57,66.79L56.76,66.93L56.94,67.07L57.21,67.3L57.32,67.39L57.53,67.57L57.65,67.68L58,68C58.42,68.38 58.88,68.71 59.38,69.08L59.68,69.31L59.94,69.54C60.14,69.7 60.32,69.87 60.51,70.04L60.71,70.21L60.83,70.31C60.899,70.372 60.972,70.429 61.05,70.48L61.72,70.97C61.92,71.13 62.09,71.27 62.26,71.43C62.421,71.594 62.571,71.768 62.71,71.95L62.71,72.02L62.96,72.35L63.06,72.51C63.14,72.62 63.21,72.74 63.28,72.85L63.44,73.11C63.44,73.17 63.5,73.22 63.53,73.27L63.59,73.37L63.69,73.56C63.69,73.68 63.8,73.8 63.85,73.91L63.93,74.1L64,74.29L64,74.43L64.05,74.58L64.05,74.72L64.17,75.15L64.26,75.42L64.32,75.61C64.41,75.89 64.5,76.17 64.6,76.44L64.6,76.54C64.622,76.621 64.649,76.702 64.68,76.78C64.777,76.866 64.885,76.94 65,77C65.021,77.066 65.068,77.12 65.13,77.15C65.159,77.159 65.191,77.159 65.22,77.15C65.275,77.148 65.328,77.127 65.37,77.09C65.417,77.04 65.449,76.978 65.46,76.91C65.471,76.842 65.46,76.82 65.46,76.78C65.46,76.56 65.53,76.41 65.57,76.26L65.81,75.4L65.81,75.29C65.91,74.91 66,74.59 66.1,74.29C66.15,74.13 66.21,73.97 66.27,73.81L66.27,73.74C66.32,73.61 66.37,73.48 66.43,73.35L66.43,73.26C66.53,73.03 66.66,72.76 66.78,72.49C66.9,72.22 67.05,71.93 67.18,71.65L67.6,71L67.69,70.82C67.78,70.62 67.88,70.42 67.98,70.22L68.1,70L68.23,69.77L68.23,69.67L68.41,69.37C68.47,69.27 68.53,69.17 68.6,69.07L68.75,68.85L68.89,68.62L68.97,68.52L69.09,68.36L69.19,68.22L69.31,68.06L69.43,67.89L69.5,67.79L70.1,67C70.263,66.788 70.443,66.591 70.64,66.41L70.78,66.27L70.93,66.13L71.09,65.99L71.22,65.88L71.41,65.72L72.05,65.2L72.48,64.85L72.62,64.74L72.91,64.52L73.5,64.12L74,63.77L74.07,63.77L74.23,63.66L74.52,63.43L74.59,63.43L74.71,63.33L74.84,63.21L75,63L75.31,62.72L75.48,62.58C75.78,62.3 76.1,62.05 76.42,61.8L76.79,61.49L76.88,61.42L77.04,61.27L77.3,61.04C77.59,60.74 77.89,60.45 78.19,60.17L78.67,59.74L79.14,59.31C79.232,59.228 79.318,59.142 79.4,59.05L79.51,58.94C79.538,58.918 79.562,58.891 79.58,58.86L79.65,58.77L79.72,58.69C79.788,58.631 79.848,58.564 79.9,58.49L80,58.36L80.25,58.03L80.37,57.87L80.63,57.51L80.69,57.43C80.9,57.11 81.13,56.8 81.33,56.43C81.53,56.06 81.55,56.05 81.65,55.86C81.677,55.819 81.701,55.775 81.72,55.73L81.72,55.66L81.79,55.53L81.87,55.37L81.95,55.18C82.003,55.076 82.049,54.969 82.09,54.86C82.18,54.66 82.26,54.45 82.34,54.25L82.4,54.05L82.4,53.95C82.428,53.885 82.451,53.818 82.47,53.75L82.65,53.11C82.689,52.931 82.739,52.754 82.8,52.58L82.8,52.39C82.8,52.27 82.87,52.16 82.9,52.05C82.99,51.69 83.06,51.33 83.13,50.97C83.2,50.61 83.2,50.55 83.24,50.34L83.24,50.19C83.24,50.04 83.29,49.89 83.31,49.74C83.37,49.33 83.41,48.91 83.46,48.5L83.46,44.63C83.466,44.573 83.466,44.517 83.46,44.46L83.46,44.38C83.46,44.19 83.36,44 83.31,43.8C83.2,43.43 83.09,43.05 82.96,42.67L82.96,42.54L82.91,42.4L82.79,42.09C82.71,41.9 82.63,41.71 82.54,41.53C82.45,41.35 82.41,41.26 82.34,41.13L82.28,41.02C82.2,40.838 82.11,40.661 82.01,40.49C81.83,40.15 81.65,39.82 81.44,39.49L81.12,39C81.08,38.956 81.044,38.909 81.01,38.86L80.93,38.77L80.74,38.53C80.5,38.26 80.25,37.99 80,37.73L79.81,37.54C79.603,37.301 79.382,37.074 79.15,36.86L78.71,36.48L78.23,36.14L78.03,36.01C77.937,35.951 77.84,35.897 77.74,35.85L77.56,35.74L77.47,35.74C77.37,35.68 77.27,35.64 77.17,35.59C77.014,35.515 76.853,35.448 76.69,35.39L76.42,35.29L76.08,35.19L75.18,35L74.88,34.94C74.66,34.89 74.44,34.85 74.21,34.82L74.15,34.83Z" style="fill:rgb(153,48,48);fill-rule:nonzero;"/>
                </g>
                <g transform="matrix(0.109757,0,0,0.178588,-562.25,-205.961)">
                    <path d="M68.44,59.62L68.55,59.62C68.529,59.594 68.506,59.571 68.48,59.55L68.48,59.61L68.44,59.62Z" style="fill:rgb(153,48,48);fill-rule:nonzero;"/>
                </g>
                <g transform="matrix(0.109757,0,0,0.178588,-562.25,-205.961)">
                    <path d="M46.43,41L46.32,41.14C46.167,41.337 46.026,41.544 45.9,41.76L45.79,41.96L45.86,41.96L46.41,42.36C46.68,42.51 46.94,42.67 47.21,42.84L48.01,43.34L48.4,43.59L49.3,44.21L49.61,44.41L51.08,45.41L51.96,46.05L53,47L53.5,47.32L53.82,47.52L55.5,48.63C55.94,48.92 56.37,49.23 56.81,49.53L58.06,50.4L58.68,50.85L58.94,51.03C59.044,51.108 59.145,51.191 59.24,51.28C59.314,51.366 59.314,51.494 59.24,51.58C59.199,51.659 59.119,51.709 59.03,51.71L58.88,51.71L58.69,51.64L58.34,51.45C58.371,51.56 58.326,51.678 58.23,51.74C58.174,51.755 58.116,51.755 58.06,51.74L58.65,52.33C58.746,52.43 58.746,52.59 58.65,52.69C58.56,52.753 58.44,52.753 58.35,52.69C58.226,52.603 58.115,52.498 58.02,52.38L57.84,52.19L57.35,51.73L57.06,51.47L56.22,51.65L55.73,51.76L55,51.85L54.75,51.85C54.715,51.891 54.671,51.922 54.62,51.94L54.31,52L52.39,52C52.304,52.01 52.216,52.01 52.13,52L51.53,52C51.453,52.006 51.377,52.006 51.3,52C51.08,52 50.87,51.94 50.65,51.91L50.24,51.91L50.4,51.91C50.682,51.987 50.959,52.08 51.23,52.19L52.06,52.54L53.48,53.16C53.59,53.197 53.692,53.255 53.78,53.33C53.825,53.377 53.856,53.436 53.87,53.5L53.87,53.57L54.28,53.77L55.28,54.25C55.32,54.244 55.36,54.244 55.4,54.25L55.77,54.25L56.12,54.37L56.75,54.6L57.44,54.87L58.19,55.17L60.78,56.27C60.41,56.03 60.05,55.77 59.7,55.5C59.651,55.453 59.626,55.387 59.63,55.32C59.621,55.281 59.621,55.239 59.63,55.2C59.679,55.125 59.761,55.077 59.85,55.07C59.899,55.056 59.951,55.056 60,55.07C60.085,55.103 60.166,55.147 60.24,55.2L60.35,55.28L60.67,55.49L61.23,55.87L61.65,56.16C61.796,56.213 61.931,56.291 62.05,56.39L62.51,56.7L62.58,56.7C62.75,56.77 62.91,56.85 63.06,56.93C63.091,56.948 63.118,56.972 63.14,57L63.48,57.15L64.15,57.42C64.392,57.518 64.629,57.628 64.86,57.75C65.08,57.87 65.3,58 65.53,58.11L65.86,58.27L66,58.27L66.61,58.48L66.69,58.48C66.8,58.49 66.91,58.49 67.02,58.48L67.13,58.48C67.161,58.449 67.199,58.425 67.24,58.41C67.325,58.385 67.415,58.385 67.5,58.41L67.59,58.41L67.53,58.26L67.45,58.1C67.418,58.068 67.391,58.031 67.37,57.99C67.351,57.935 67.351,57.875 67.37,57.82L66.71,56.93L66.32,56.38L66.05,55.95C65.81,55.57 65.57,55.19 65.34,54.8C65.23,54.62 65.13,54.44 65.03,54.26C64.967,54.167 64.911,54.07 64.86,53.97C64.81,53.892 64.77,53.808 64.74,53.72L64.74,53.64C64.653,53.71 64.527,53.71 64.44,53.64C64.362,53.557 64.298,53.463 64.25,53.36C64.01,52.93 63.79,52.49 63.54,52.06C63.41,51.81 63.27,51.56 63.12,51.32L62.74,50.7C62.63,50.51 62.5,50.32 62.4,50.12C62.36,50.066 62.323,50.009 62.29,49.95L61.96,49.45L61.56,48.89C61.34,48.58 61.11,48.29 60.89,47.99C60.48,47.47 60.07,46.99 59.68,46.41C59.5,46.16 59.31,45.92 59.15,45.66C58.99,45.4 59.01,45.42 58.95,45.29C58.919,45.232 58.892,45.172 58.87,45.11L58.82,44.97L58.82,44.85C58.816,44.76 58.862,44.675 58.94,44.63L59.17,44.63C59.05,44.5 58.94,44.38 58.83,44.24C58.772,44.259 58.708,44.259 58.65,44.24C58.55,44.163 58.465,44.068 58.4,43.96L58.22,43.69L58.02,43.35L57.95,43.35L57.95,44.63C57.95,44.85 57.95,45.05 58.01,45.26L58.01,45.48C58.08,45.93 58.16,46.38 58.24,46.83C58.24,46.97 58.29,47.12 58.31,47.26C58.33,47.4 58.38,47.53 58.42,47.66C58.46,47.79 58.49,47.88 58.53,47.98C58.557,48.062 58.533,48.152 58.47,48.21L58.57,48.3L59.13,48.78L59.37,49.01C59.466,49.085 59.547,49.176 59.61,49.28C59.63,49.317 59.641,49.358 59.641,49.4C59.641,49.534 59.534,49.645 59.4,49.65L59.28,49.65L59.13,49.58C59.043,49.529 58.959,49.472 58.88,49.41C58.93,49.453 58.959,49.515 58.96,49.58C58.962,49.649 58.932,49.715 58.88,49.76C58.835,49.808 58.771,49.836 58.705,49.836C58.639,49.836 58.575,49.808 58.53,49.76L58.31,49.57C58.264,49.584 58.216,49.584 58.17,49.57C58.089,49.504 58.016,49.431 57.95,49.35L57.74,49.12L57.54,48.95L57.37,48.79L57.27,48.72C57.179,48.781 57.061,48.781 56.97,48.72C56.52,48.47 56.09,48.17 55.66,47.88L54.8,47.28C54.79,47.321 54.769,47.359 54.74,47.39C54.692,47.437 54.627,47.463 54.56,47.46C54.497,47.458 54.436,47.433 54.39,47.39C54.23,47.27 54.08,47.14 53.93,47.01L53.74,46.85L53.23,46.42L52.15,45.56L51.29,44.86L50.91,44.56C50.863,44.623 50.789,44.66 50.71,44.66C50.615,44.649 50.524,44.611 50.45,44.55L50.2,44.36L49.62,43.87C49.37,43.62 49.13,43.35 48.9,43.07L47.9,42.07L47.69,41.87C47.51,41.73 47.32,41.58 47.15,41.43C47.112,41.4 47.087,41.357 47.08,41.31L46.77,41.02L46.51,40.87L46.41,40.99L46.43,41Z" style="fill:rgb(213,213,213);fill-rule:nonzero;"/>
                </g>
                <g transform="matrix(0.109757,0,0,0.178588,-562.25,-205.961)">
                    <path d="M60,46.21L60.69,47.13L60.69,47.08L60.59,47L60.16,46.43L60,46.23L60,46.21Z" style="fill:rgb(213,213,213);fill-rule:nonzero;"/>
                </g>
                <g transform="matrix(0.109757,0,0,0.178588,-562.25,-205.961)">
                    <path d="M60.11,46.29L60.11,46.29Z" style="fill:rgb(213,213,213);fill-rule:nonzero;"/>
                </g>
                <g transform="matrix(0.109757,0,0,0.178588,-562.25,-205.961)">
                    <path d="M57.7,51.35L57.82,51.45C57.789,51.414 57.756,51.381 57.72,51.35L57.7,51.35Z" style="fill:rgb(213,213,213);fill-rule:nonzero;"/>
                </g>
                <g transform="matrix(0.109757,0,0,0.178588,-562.25,-205.961)">
                    <path d="M8.32,11.52L8.15,11.6L8,11.7C7.881,11.759 7.773,11.836 7.68,11.93L7.56,12L7.49,12.1C7.458,12.161 7.432,12.225 7.41,12.29C7.406,12.347 7.406,12.403 7.41,12.46C7.423,12.565 7.446,12.669 7.48,12.77C7.509,12.845 7.543,12.919 7.58,12.99L7.58,13.07L7.71,13.32L7.78,13.46L7.89,13.67L8.11,14.05C8.143,14.118 8.183,14.181 8.23,14.24C8.34,14.43 8.42,14.55 8.5,14.67L8.65,14.88L8.97,15.31L9.3,15.72C9.36,15.8 9.465,15.833 9.56,15.8L10,16.15L10.14,16.26L10.52,16.55L10.76,16.74L10.99,16.93L11.39,17.27L11.46,17.33L11.85,17.68L12.3,18.08C12.597,18.327 12.908,18.557 13.23,18.77L13.33,18.84L13.67,19.08C13.82,19.17 13.96,19.28 14.1,19.38C14.44,19.63 14.78,19.88 15.1,20.12L15.87,20.7L16.1,20.88L16.37,21.1L16.65,21.31C16.84,21.47 17.04,21.62 17.25,21.78C17.46,21.94 17.63,22.06 17.83,22.19L18.25,22.44L18.37,22.52C18.58,22.65 18.8,22.79 19.01,22.94C19.22,23.09 19.24,23.11 19.35,23.2L19.58,23.39L19.68,23.48L19.96,23.73L20.35,24.08L20.64,24.31L20.83,24.44L20.93,24.5L21.11,24.61C21.48,24.83 21.77,25.04 22.06,25.24L22.2,25.34L22.43,25.51L22.66,25.67L22.92,25.85L23.17,26.03L23.7,26.42C23.84,26.525 23.974,26.638 24.1,26.76L24.19,26.84L24.59,27.2L24.8,27.39L25.07,27.64L25.52,28L25.84,28.22L25.93,28.28L26.1,28.4L26.38,28.6L26.87,29L27.19,29.27L27.31,29.37L27.51,29.55L27.79,29.77L28.24,30.11L28.6,30.38L28.73,30.48C29.08,30.75 29.44,31.01 29.8,31.26C30.16,31.51 30.53,31.74 30.9,31.96C31.285,32.199 31.655,32.459 32.01,32.74L32.44,33.08C32.62,33.23 32.8,33.38 32.98,33.51L33.26,33.7L33.42,33.8L34.01,34.21C34.17,34.32 34.34,34.44 34.49,34.56L35.06,35.02C35.4,35.3 35.74,35.57 36.06,35.83L36.23,35.96L37.1,36.63L37.25,36.75L37.4,36.88L37.51,36.97L37.73,37.14L38.22,37.5L38.52,37.71L38.65,37.8L39.3,38.3L39.99,38.9C40.186,39.078 40.396,39.239 40.62,39.38L40.95,39.58L41.35,39.78L41.93,40.1L42.12,40.19L42.5,40.4L42.72,40.53L42.84,40.6L43.44,40.96L43.66,41.07L44.01,41.26L44.3,41.44L44.66,41.69L45.31,42.12L45.74,42.4L45.96,42.54C46.12,42.65 46.29,42.75 46.46,42.85L46.7,43L46.81,43.08C46.95,43.17 47.09,43.28 47.22,43.38C47.35,43.48 47.6,43.71 47.76,43.85L48,44L48.24,44.21L48.35,44.31L48.7,44.6C48.85,44.72 48.99,44.82 49.14,44.92C49.52,45.19 49.86,45.44 50.19,45.7L51.12,46.45L51.4,46.66L51.6,46.82C51.76,46.93 51.91,47.05 52.07,47.18L52.14,47.18L52.67,47.61L53.15,48L53.64,48.37C53.781,48.469 53.928,48.56 54.08,48.64L54.72,49.06C54.94,49.2 55.15,49.36 55.36,49.51C55.57,49.66 55.73,49.82 55.91,49.98L56.01,50.07C56.126,50.178 56.25,50.279 56.38,50.37L56.73,50.63L57.39,51.1L57.47,51.16L57.66,51.29C57.567,51.28 57.473,51.28 57.38,51.29L57,51.29C56.797,51.275 56.593,51.275 56.39,51.29L55.79,51.36L55.03,51.45L54.17,51.45C53.929,51.451 53.689,51.468 53.45,51.5L53.09,51.56L52.66,51.62C52.202,51.68 51.741,51.706 51.28,51.7L50.55,51.7C50.511,51.689 50.469,51.689 50.43,51.7L50.31,51.7L50.21,51.77C50.19,51.825 50.19,51.885 50.21,51.94C50.215,51.999 50.244,52.053 50.29,52.09C50.349,52.145 50.416,52.189 50.49,52.22L50.74,52.34L50.84,52.4L50.94,52.4L51.11,52.48C51.315,52.56 51.526,52.627 51.74,52.68L51.95,52.74C52.142,52.806 52.33,52.886 52.51,52.98L52.84,53.12L53.32,53.34L53.95,53.66L54.61,54.04C54.749,54.121 54.893,54.195 55.04,54.26L55.14,54.26C55.35,54.35 55.56,54.44 55.78,54.51L56.4,54.69L56.64,54.75C56.912,54.845 57.18,54.956 57.44,55.08L57.8,55.24L58.15,55.39L58.36,55.49L58.8,55.69C59.1,55.82 59.41,55.93 59.72,56.03L60.64,56.33L61.06,56.48L61.58,56.67C61.85,56.76 62.14,56.84 62.43,56.92L62.84,57.02L63.18,57.11L63.39,57.11L63.71,57.21L64.12,57.38L64.55,57.58L65,58L65.88,58.35L66.2,58.46L66.83,58.46L67.37,58.64C67.538,58.71 67.702,58.79 67.86,58.88L68.22,59.06L68.31,59.11C68.389,59.154 68.473,59.187 68.56,59.21C68.616,59.225 68.674,59.225 68.73,59.21L68.85,59.12C68.882,59.083 68.903,59.038 68.91,58.99C68.919,58.947 68.919,58.903 68.91,58.86C68.884,58.767 68.844,58.68 68.79,58.6C68.719,58.483 68.642,58.369 68.56,58.26L68.47,58.12L67.77,57.08L67,56.13C66.75,55.79 66.49,55.44 66.25,55.13L66.11,54.93L65.52,54.09C65.23,53.69 64.93,53.3 64.62,52.9L64.52,52.77C64.431,52.668 64.348,52.561 64.27,52.45L64.14,52.28L64,52.1C63.996,52.067 63.996,52.033 64,52L63.91,51.86L63.83,51.73L63.53,51.23C63.41,51.02 63.28,50.81 63.15,50.61L62.74,50C62.64,49.84 62.56,49.68 62.47,49.52L62.41,49.4C62.19,49.01 61.97,48.63 61.73,48.25L61.45,47.79L61,47.09L60.28,45.91L60,45.4L59.6,44.75C59.49,44.57 59.38,44.39 59.26,44.22C59.14,44.05 59.14,44.02 59.08,43.94L58.9,43.67L58.72,43.42C58.65,43.32 58.57,43.22 58.5,43.11C58.433,43.015 58.36,42.925 58.28,42.84L58.21,42.76L58.1,42.7C58.061,42.689 58.019,42.689 57.98,42.7L57.9,42.7C57.844,42.724 57.798,42.766 57.77,42.82C57.739,42.931 57.739,43.049 57.77,43.16L57.77,44.13C57.82,44.52 57.87,44.92 57.91,45.31L57.91,46C57.91,46.12 57.91,46.25 57.97,46.37C57.97,46.64 58.08,46.92 58.13,47.2C58.23,47.68 58.34,48.2 58.45,48.63C58.45,48.75 58.51,48.87 58.53,49L58.37,48.85L58.19,48.7L58.02,48.55L57.8,48.36L57.71,48.28L57.47,48.09L57.21,47.9L57.13,47.9L56.65,47.56C56.33,47.35 56.01,47.13 55.65,46.89L55.18,46.51C55.024,46.368 54.86,46.235 54.69,46.11L54.26,45.78L53.91,45.55L54,45.41L53.63,45.17L53,44.76L52.59,44.49L51.82,44L51.24,43.59C51.06,43.46 50.89,43.32 50.72,43.17L50.62,43.09L50.24,42.78C50.05,42.64 49.86,42.5 49.67,42.38C49.31,42.14 48.93,41.91 48.55,41.69L48.45,41.63C48.302,41.545 48.162,41.448 48.03,41.34C47.86,41.22 47.7,41.09 47.54,40.96L46.93,40.47L46.63,40.22L45.72,39.51C45.38,39.263 45.047,39.023 44.72,38.79L44.24,38.46L43.77,38.13L43.28,37.79L43,37.53L42.81,37.39C42.51,37.15 42.2,36.92 41.89,36.71C41.58,36.5 41.32,36.34 41.03,36.17L40.84,36.06C40.72,35.98 40.55,35.88 40.4,35.77L39.84,35.35L38.84,34.56C38.48,34.28 38.13,33.99 37.79,33.7L37.29,33.3L36.79,32.92C36.42,32.66 36.05,32.38 35.7,32.09C35.35,31.8 35.09,31.55 34.8,31.28L34.32,30.8L34,30.56L33.74,30.32L33.26,29.9L32.78,29.47C32.44,29.17 32.1,28.87 31.78,28.58L31.52,28.37L31.27,28.15C31.097,28.014 30.933,27.867 30.78,27.71C30.64,27.56 30.49,27.42 30.34,27.27C30.19,27.12 29.98,26.93 29.79,26.77C29.6,26.61 29.12,26.26 28.79,26.01L28.16,25.53L27.77,25.23L27.54,25.06C27.29,24.87 27.04,24.68 26.78,24.5L26.69,24.44L26.28,24.14L25.83,23.79L25.7,23.69C25.35,23.43 24.98,23.17 24.62,22.92L24.43,22.79C24.209,22.645 23.995,22.488 23.79,22.32L23,21.71C22.753,21.484 22.493,21.273 22.22,21.08L21.37,20.47L21.18,20.33L21,20.2L20.71,20L20.6,19.92L19.78,19.32L19.31,19L19.05,18.79C18.825,18.617 18.611,18.43 18.41,18.23L18.15,17.95L17.6,17.36L17.1,16.87L16.65,16.47L16.17,16L15.72,15.59C15.39,15.29 15.06,15.01 14.72,14.74L14.19,14.33L13.65,13.88C13.581,13.818 13.508,13.761 13.43,13.71L13.19,13.51L12.88,13.29L12.55,13.07C12.35,12.93 12.14,12.8 11.93,12.67L11.49,12.4L11.31,12.28C11.036,12.084 10.745,11.913 10.44,11.77C10.162,11.649 9.879,11.542 9.59,11.45C9.476,11.414 9.359,11.387 9.24,11.37L9.06,11.37C8.994,11.361 8.926,11.361 8.86,11.37L8.63,11.37L8.37,11.44L8.32,11.52Z" style="fill:rgb(213,213,213);fill-rule:nonzero;"/>
                </g>
                <g transform="matrix(0.109757,0,0,0.178588,-562.25,-205.961)">
                    <path d="M56.84,40.69C56.805,40.818 56.805,40.952 56.84,41.08C56.852,41.148 56.869,41.215 56.89,41.28L56.89,41.87L56.81,41.87C56.698,41.872 56.597,41.944 56.56,42.05C56.55,42.116 56.55,42.184 56.56,42.25C56.555,42.33 56.555,42.41 56.56,42.49L56.56,43.01C56.541,43.343 56.541,43.677 56.56,44.01L56.56,45.54C56.56,45.72 56.56,45.66 56.56,45.71L56.56,45.65C56.56,45.47 56.48,45.3 56.45,45.12C56.39,44.77 56.33,44.42 56.28,44.06C56.284,43.993 56.284,43.927 56.28,43.86C56.29,43.764 56.29,43.666 56.28,43.57C56.284,43.54 56.284,43.51 56.28,43.48L56.28,43.32C56.28,43.2 56.28,43.08 56.2,42.96C56.12,42.84 56.14,42.7 56.1,42.58C56.07,42.473 56.03,42.369 55.98,42.27C55.98,42.2 55.88,42.17 55.82,42.15C55.757,42.121 55.683,42.121 55.62,42.15C55.546,42.199 55.501,42.281 55.5,42.37L55.5,43.2C55.5,43.55 55.58,43.9 55.63,44.25C55.648,44.311 55.687,44.364 55.74,44.4C55.791,44.42 55.849,44.42 55.9,44.4C55.95,44.73 56,45.05 56.06,45.4L56.15,45.79C56.18,45.907 56.22,46.021 56.27,46.13C56.301,46.187 56.338,46.241 56.38,46.29C56.438,46.386 56.516,46.468 56.61,46.53C56.689,46.581 56.791,46.581 56.87,46.53C56.889,46.621 56.912,46.711 56.94,46.8C56.965,46.908 57.063,46.986 57.174,46.986C57.266,46.986 57.35,46.933 57.39,46.85C57.4,46.807 57.4,46.763 57.39,46.72L57.39,42.08C57.4,41.937 57.4,41.793 57.39,41.65C57.4,41.483 57.4,41.317 57.39,41.15C57.39,41.04 57.34,40.93 57.32,40.82L57.32,40.75C57.327,40.727 57.33,40.704 57.33,40.68C57.33,40.569 57.256,40.471 57.15,40.44L57.08,40.44C56.971,40.446 56.876,40.517 56.84,40.62L56.84,40.69ZM56.49,46L56.49,46.07L56.49,46Z" style="fill:rgb(153,48,48);fill-rule:nonzero;"/>
                </g>
                <g transform="matrix(0.109757,0,0,0.178588,-562.25,-205.961)">
                    <path d="M51.5,54.24C51.395,54.276 51.323,54.375 51.323,54.486C51.323,54.55 51.347,54.612 51.39,54.66C51.479,54.744 51.585,54.809 51.7,54.85L52,55C52.28,55.13 52.57,55.24 52.86,55.36C53.308,55.55 53.765,55.717 54.23,55.86L55.75,56.31L56.47,56.53L57.18,56.76L57.71,56.94C57.692,57.043 57.74,57.147 57.83,57.2C57.962,57.271 58.103,57.321 58.25,57.35L58.35,57.35L58.55,57.42L59.33,57.73L60.77,58.27L61.56,58.55C61.59,58.618 61.649,58.669 61.72,58.69L62.8,59L63.73,59.32C64.04,59.42 64.35,59.53 64.66,59.61L65.27,59.74L65.7,59.86C65.844,59.901 65.991,59.931 66.14,59.95L66.28,59.95L67,60.18L67.56,60.34C67.757,60.403 67.951,60.476 68.14,60.56L68.9,60.85L69.18,60.94C69.202,60.946 69.225,60.95 69.248,60.95C69.357,60.95 69.453,60.875 69.48,60.77C69.511,60.703 69.511,60.627 69.48,60.56C69.616,60.575 69.754,60.575 69.89,60.56C69.976,60.552 70.054,60.503 70.1,60.43C70.168,60.338 70.168,60.212 70.1,60.12C69.981,60.042 69.842,60.001 69.7,60C69.5,60 69.3,59.9 69.11,59.85L68.76,59.79L68.39,59.73L67.99,59.66L67.38,59.46L66.75,59.24C66.27,59.07 65.75,58.93 65.31,58.77L64.71,58.56L64,58.29C63.59,58.14 63.18,58.02 62.77,57.88L61.42,57.43C61,57.3 60.59,57.13 60.18,56.98C59.77,56.83 59.41,56.68 59.01,56.55L58.31,56.3C58.02,56.2 57.73,56.13 57.44,56.04C57.15,55.95 56.78,55.86 56.44,55.75C56.115,55.616 55.781,55.506 55.44,55.42L55.16,55.42L54.66,55.27L53.66,54.91L52.49,54.51L52,54.29C51.89,54.255 51.776,54.235 51.66,54.23L51.5,54.24Z" style="fill:rgb(153,48,48);fill-rule:nonzero;"/>
                </g>
                <g transform="matrix(0.109757,0,0,0.178588,-562.25,-205.961)">
                    <path d="M51.94,50.37L51.49,50.43C50.95,50.52 50.42,50.69 49.88,50.78L49.12,50.85C48.967,50.84 48.813,50.84 48.66,50.85C48.53,50.85 48.41,50.91 48.28,50.94C48.149,50.974 48.022,51.021 47.9,51.08C47.799,51.114 47.695,51.137 47.59,51.15C47.527,51.165 47.473,51.205 47.44,51.26C47.42,51.325 47.42,51.395 47.44,51.46C47.462,51.522 47.504,51.575 47.56,51.61C47.606,51.619 47.654,51.619 47.7,51.61C47.762,51.629 47.828,51.629 47.89,51.61L48.59,51.5L49.08,51.43C49.601,51.38 50.118,51.3 50.63,51.19C50.89,51.14 51.14,51.07 51.39,51L52.12,50.86L53.25,50.86C53.37,50.84 53.459,50.735 53.459,50.613C53.459,50.566 53.445,50.52 53.42,50.48C53.377,50.4 53.29,50.353 53.2,50.36L52.33,50.36C52.197,50.35 52.063,50.35 51.93,50.36L51.94,50.37Z" style="fill:rgb(153,48,48);fill-rule:nonzero;"/>
                </g>
                <g transform="matrix(0.109757,0,0,0.178588,-562.25,-205.961)">
                    <path d="M47.32,51.09C47.257,51.18 47.257,51.3 47.32,51.39C47.408,51.466 47.502,51.536 47.6,51.6L47.98,51.88C48.206,52.058 48.443,52.222 48.69,52.37C48.97,52.55 49.25,52.73 49.55,52.9L51.33,53.9L52.44,54.54L52.59,54.65C52.708,54.73 52.831,54.8 52.96,54.86L53.21,54.98L54.89,55.98C54.975,56.045 55.095,56.045 55.18,55.98L55.36,56.05C55.421,56.075 55.489,56.075 55.55,56.05C55.606,56.01 55.648,55.954 55.67,55.89C55.689,55.828 55.689,55.762 55.67,55.7C55.637,55.645 55.583,55.605 55.52,55.59L55.26,55.48C54.82,55.3 54.4,55.09 53.98,54.88L53.42,54.59L52.6,54.12L52.45,54.02L51.81,53.61C51.58,53.45 51.37,53.29 51.14,53.14C50.91,52.99 50.65,52.82 50.41,52.66L49.76,52.25L49.05,51.82L48.34,51.41L47.94,51.18L47.77,51.09C47.711,51.052 47.647,51.022 47.58,51L47.48,51C47.396,51.007 47.32,51.056 47.28,51.13L47.32,51.09Z" style="fill:rgb(153,48,48);fill-rule:nonzero;"/>
                </g>
            </g>
        </g>
    </g>
</svg>
