<?xml version="1.0" encoding="UTF-8" standalone="no"?>
<!DOCTYPE svg PUBLIC "-//W3C//DTD SVG 1.1//EN" "http://www.w3.org/Graphics/SVG/1.1/DTD/svg11.dtd">
<svg width="100%" height="100%" viewBox="0 0 56 76" version="1.1" xmlns="http://www.w3.org/2000/svg" xmlns:xlink="http://www.w3.org/1999/xlink" xml:space="preserve" xmlns:serif="http://www.serif.com/" style="fill-rule:evenodd;clip-rule:evenodd;stroke-linejoin:round;stroke-miterlimit:2;">
    <g transform="matrix(1,0,0,1,-2971,-1651)">
        <g transform="matrix(2.69775,0,0,1.44916,4378.24,1772.66)">
            <g id="icon_demon" transform="matrix(0.355086,0,0,0.642118,-530.463,-88.8127)">
                <path d="M47.67,8.36C47.56,8.391 47.457,8.446 47.37,8.52L47.16,8.65L46.96,8.78C46.807,8.88 46.657,8.99 46.51,9.11C46.214,9.379 45.968,9.697 45.78,10.05C45.662,10.256 45.565,10.474 45.49,10.7C45.427,10.881 45.374,11.064 45.33,11.25C45.207,11.754 45.147,12.271 45.15,12.79C45.153,13.019 45.183,13.248 45.24,13.47C45.3,13.721 45.383,13.965 45.49,14.2C45.609,14.47 45.778,14.715 45.99,14.92L46.19,15.06L46.44,15.25C46.478,15.271 46.511,15.298 46.54,15.33L46.54,18.76C46.54,18.99 46.54,19.22 46.48,19.44L46.48,20.15C46.48,20.36 46.41,20.58 46.38,20.8C46.37,20.903 46.37,21.007 46.38,21.11C46.391,21.224 46.421,21.336 46.47,21.44C46.507,21.519 46.554,21.593 46.61,21.66L46.75,21.77L46.88,21.85L47,21.93L47.11,22C47.248,22.083 47.381,22.173 47.51,22.27L47.7,22.4L47.99,22.6L48.27,22.78L48.47,22.9C48.758,23.085 49.067,23.236 49.39,23.35L49.39,24C49.283,24.407 49.153,24.808 49,25.2L49,25.36L46.79,25.36C46.704,25.309 46.629,25.241 46.57,25.16C46.477,25.046 46.396,24.922 46.33,24.79C46.257,24.632 46.17,24.482 46.07,24.34C45.984,24.208 45.867,24.098 45.73,24.02C45.591,23.939 45.431,23.897 45.27,23.9C44.994,23.91 44.726,24 44.5,24.16C44.336,24.272 44.2,24.419 44.1,24.59L43.83,25C43.73,25.15 43.65,25.3 43.56,25.46L43.47,25.62C43.41,25.746 43.34,25.866 43.26,25.98L43.17,26.06C43.034,26.168 42.882,26.256 42.72,26.32L41.96,26.66C41.799,26.742 41.642,26.832 41.49,26.93C41.22,27.11 41.05,27.2 40.89,27.29L40.77,27.36L40.42,27.56L40.11,27.74L39.72,27.93C39.616,27.967 39.515,28.014 39.42,28.07C39.288,28.124 39.164,28.195 39.05,28.28L38.8,28.43C38.671,28.517 38.534,28.591 38.39,28.65L38.24,28.72C38.183,28.742 38.129,28.773 38.08,28.81L37.9,29L37.7,29.1L37.5,29.1C37.416,29.054 37.335,29 37.26,28.94C37.11,28.81 37.01,28.73 36.92,28.64L36.59,28.35L36.28,28.08L36.18,28C35.999,27.852 35.832,27.688 35.68,27.51L35.57,27.35L35.25,26.9C35.14,26.75 35,26.59 34.86,26.43L34.75,26.29L34.64,26.16C34.572,26.072 34.499,25.989 34.42,25.91L34.16,25.64L33.64,25.18C33.44,25 33.23,24.84 33.03,24.67C32.611,24.339 32.223,23.971 31.87,23.57C31.683,23.361 31.482,23.164 31.27,22.98C31.13,22.87 30.98,22.77 30.83,22.67L30.58,22.5C30.591,22.365 30.615,22.231 30.65,22.1C30.65,21.96 30.72,21.83 30.75,21.68C30.785,21.455 30.802,21.228 30.8,21C30.804,20.92 30.804,20.84 30.8,20.76C30.78,20.585 30.75,20.411 30.71,20.24C30.657,20.057 30.586,19.88 30.5,19.71C30.469,19.634 30.433,19.56 30.39,19.49C30.309,19.37 30.207,19.265 30.09,19.18C29.917,19.061 29.729,18.967 29.53,18.9L29.39,18.85L29.28,18.85C29.166,18.807 29.049,18.774 28.93,18.75L28.71,18.75L28.08,18.86C27.874,18.911 27.676,18.989 27.49,19.09L27.31,19.21L27.17,19.3L26.8,19.56C26.671,19.649 26.551,19.749 26.44,19.86C26.323,19.978 26.219,20.109 26.13,20.25C25.92,20.56 25.752,20.896 25.63,21.25C25.527,21.532 25.453,21.823 25.41,22.12C25.361,22.405 25.328,22.692 25.31,22.98L25.31,23.76C25.314,24.152 25.382,24.54 25.51,24.91C25.62,25.21 25.91,25.39 26.39,25.45L28.52,25.45C28.462,25.511 28.462,25.609 28.52,25.67C28.549,25.741 28.614,25.791 28.69,25.8C28.733,25.829 28.781,25.853 28.83,25.87C28.976,25.931 29.117,26.005 29.25,26.09C29.629,26.454 29.944,26.88 30.18,27.35L30.36,27.72L30.43,27.89C30.55,28.13 30.67,28.37 30.8,28.61C30.93,28.85 31.21,29.36 31.43,29.73C31.58,29.985 31.744,30.232 31.92,30.47L32.15,30.79C32.405,31.17 32.62,31.575 32.79,32L32.87,32.18C32.93,32.29 32.98,32.41 33.05,32.53C33.088,32.61 33.131,32.687 33.18,32.76L33.28,32.92L33.37,33.07L33.59,33.41C33.75,33.65 33.9,33.89 34.04,34.14L34.17,34.37L34.17,34.46L34.31,34.7C34.39,34.84 34.5,34.98 34.6,35.12L34.75,35.33L34.87,35.47C34.966,35.617 35.077,35.755 35.2,35.88C35.31,35.97 35.45,36.06 35.57,36.14C35.69,36.215 35.818,36.279 35.95,36.33C36.01,36.34 36.07,36.34 36.13,36.33L36.25,36.33C36.453,36.311 36.652,36.261 36.84,36.18L37.7,35.85L38.06,35.72L38.64,35.5L39,35.36L39.15,35.29L40.29,34.87L40.68,34.73L40.9,34.64L41.51,34.41L42.05,34.21L42.22,34.14L42.56,34.02C42.687,33.971 42.817,33.931 42.95,33.9L43.25,33.9L43.69,33.77L43.92,33.69L44.03,33.69L44.25,33.62L44.59,33.52L44.59,37.53C44.59,37.98 44.68,38.44 44.73,38.88C44.797,39.258 44.887,39.632 45,40C45.07,40.32 45.15,40.62 45.23,40.93C45.305,41.269 45.401,41.603 45.52,41.93C45.64,42.23 45.77,42.53 45.91,42.82C46.05,43.11 46.14,43.26 46.26,43.47C46.379,43.683 46.509,43.89 46.65,44.09C46.78,44.25 46.91,44.41 47.05,44.56L47.37,44.93C47.46,45.055 47.538,45.189 47.6,45.33C47.662,45.498 47.706,45.672 47.73,45.85C47.735,45.94 47.735,46.03 47.73,46.12L47.52,46.19C47.377,46.17 47.237,46.136 47.1,46.09C46.959,46.028 46.825,45.95 46.7,45.86L46.22,45.41C46.091,45.295 45.974,45.168 45.87,45.03L45.73,44.85C45.596,44.642 45.442,44.448 45.27,44.27C45.051,44.029 44.81,43.808 44.55,43.61C44.333,43.458 44.098,43.333 43.85,43.24L43.44,43C43.121,42.844 42.785,42.724 42.44,42.64C42.216,42.586 41.989,42.546 41.76,42.52C41.551,42.488 41.341,42.472 41.13,42.47L41,42.47C40.527,42.505 40.064,42.62 39.63,42.81C39.449,42.89 39.278,42.991 39.12,43.11C38.98,43.212 38.858,43.337 38.76,43.48C38.637,43.695 38.549,43.928 38.5,44.17C38.5,44.43 38.44,44.51 38.43,44.6C38.414,44.746 38.414,44.894 38.43,45.04C38.43,45.16 38.43,45.27 38.5,45.39C38.58,45.7 38.64,45.92 38.72,46.14C38.751,46.242 38.787,46.342 38.83,46.44C38.864,46.529 38.904,46.616 38.95,46.7C39.023,46.864 39.12,47.016 39.24,47.15C39.343,47.276 39.457,47.393 39.58,47.5C39.718,47.63 39.873,47.741 40.04,47.83C40.283,47.958 40.542,48.052 40.81,48.11L40.98,48.16C41.106,48.186 41.23,48.223 41.35,48.27C41.515,48.36 41.672,48.464 41.82,48.58C41.944,48.671 42.055,48.779 42.15,48.9L42.43,49.24C42.495,49.321 42.552,49.408 42.6,49.5C42.642,49.627 42.672,49.758 42.69,49.89C42.7,50.053 42.7,50.217 42.69,50.38L42.69,50.87C42.68,51.143 42.725,51.414 42.82,51.67C42.916,51.943 43.047,52.202 43.21,52.44C43.299,52.566 43.4,52.683 43.51,52.79L43.62,52.87L43.53,53.17L43.53,53.37C43.46,53.7 43.39,54.03 43.33,54.37L43.33,55.85C43.28,56.31 43.27,56.77 43.25,57.22L43.25,58.71C43.25,59.18 43.18,59.66 43.16,60.14C43.14,60.62 43.16,61.01 43.16,61.45L43.16,63.61C43.098,63.736 43.044,63.867 43,64C42.995,64.057 42.995,64.113 43,64.17C42.947,64.179 42.899,64.203 42.86,64.24C42.794,64.313 42.736,64.393 42.69,64.48C42.582,64.691 42.52,64.923 42.51,65.16C42.48,65.352 42.463,65.546 42.46,65.74C42.467,66.108 42.493,66.475 42.54,66.84C42.573,67.211 42.672,67.573 42.83,67.91C42.9,68.05 42.98,68.18 43.06,68.31L43.14,68.45L43.3,68.68L43.37,68.78L43.44,68.87C43.488,68.928 43.542,68.982 43.6,69.03L43.6,69.15C43.53,69.58 43.46,70 43.4,70.42L43.31,71.22L43.31,72.24C43.31,72.65 43.26,73.05 43.24,73.46C43.225,73.69 43.225,73.92 43.24,74.15L43.24,79.1C43.24,79.33 43.24,79.56 43.31,79.79L43.31,80.46C43.31,80.76 43.38,81.06 43.43,81.36C43.473,81.742 43.473,82.128 43.43,82.51C43.42,82.606 43.397,82.701 43.36,82.79C43.345,82.84 43.321,82.888 43.29,82.93C43.17,83.047 43.043,83.158 42.91,83.26C42.819,83.332 42.722,83.395 42.62,83.45L42.43,83.54L42.33,83.54L42.14,83.63L41.75,83.83L41.56,83.93L41.06,84.18C40.66,84.34 40.25,84.48 39.84,84.61L39.33,84.75L39.2,84.75L38.66,84.9C38.25,85.03 37.86,85.17 37.46,85.31L37.15,85.43L36.84,85.54L36.14,85.8C35.67,85.971 35.212,86.175 34.77,86.41L34.43,86.61L34.31,86.7L34.08,86.82L33.86,86.94C33.735,87.007 33.629,87.103 33.55,87.22L33.49,87.32C33.443,87.428 33.443,87.552 33.49,87.66C33.522,87.759 33.573,87.85 33.64,87.93L33.83,88.13C34.046,88.287 34.29,88.399 34.55,88.46C34.76,88.515 34.974,88.552 35.19,88.57L36.37,88.57C36.69,88.57 37,88.57 37.32,88.63C37.579,88.626 37.836,88.6 38.09,88.55C38.63,88.49 39.09,88.47 39.49,88.45L40.16,88.45C40.5,88.45 40.84,88.4 41.16,88.35C41.418,88.294 41.672,88.221 41.92,88.13C42.062,88.065 42.214,88.025 42.37,88.01L42.66,87.93L42.92,87.93C43.215,87.85 43.502,87.747 43.78,87.62C43.995,87.509 44.188,87.36 44.35,87.18C44.41,87.12 44.46,87.05 44.51,86.99L44.74,86.73L44.83,86.73C44.892,86.705 44.955,86.685 45.02,86.67L45.32,86.67C45.373,86.706 45.42,86.75 45.46,86.8C45.515,86.864 45.562,86.934 45.6,87.01L45.6,87.17L45.68,87.39C45.699,87.448 45.722,87.505 45.75,87.56C45.771,87.615 45.801,87.666 45.84,87.71C45.953,87.841 46.103,87.935 46.27,87.98C46.363,88.014 46.461,88.035 46.56,88.04L47.32,88.04C47.419,88.032 47.516,88.012 47.61,87.98C47.702,87.953 47.792,87.919 47.88,87.88C48.388,87.625 48.696,87.088 48.66,86.52C48.649,86.386 48.619,86.255 48.57,86.13C48.522,86.007 48.462,85.89 48.39,85.78C48.3,85.65 48.2,85.52 48.1,85.4L48,85.38L47.9,85.24C47.845,85.165 47.798,85.085 47.76,85C47.577,84.524 47.453,84.027 47.39,83.52L47.39,82.97C47.385,82.812 47.365,82.654 47.33,82.5L47.28,82.27L47.08,82C47.01,81.68 46.95,81.35 46.9,81C46.8,79.829 46.76,78.655 46.78,77.48L46.78,74.4C46.78,74.07 46.85,73.73 46.9,73.4L46.9,72.27C46.9,72.03 46.97,71.81 47.01,71.58L47.01,71.26C47.039,71.108 47.059,70.954 47.07,70.8L47.07,70.59C47.129,70.142 47.129,69.688 47.07,69.24C47.051,69.139 46.983,69.053 46.89,69.01L46.89,68.89C46.98,68.871 47.067,68.84 47.15,68.8C47.236,68.756 47.317,68.703 47.39,68.64C47.529,68.526 47.656,68.399 47.77,68.26C47.877,68.132 47.961,67.986 48.02,67.83C48.077,67.687 48.124,67.54 48.16,67.39C48.177,67.23 48.177,67.07 48.16,66.91L48.16,66.66C48.16,66.39 48.16,66.21 48.08,66.02C48.046,65.814 47.989,65.613 47.91,65.42C47.892,65.34 47.85,65.266 47.79,65.21C47.738,65.134 47.665,65.075 47.58,65.04L46.97,65.04C47.018,64.925 47.048,64.804 47.06,64.68L47.12,64.16L47.18,63.7C47.18,63.43 47.18,63.15 47.24,62.88C47.3,62.61 47.24,62.32 47.24,62.04C47.24,61.76 47.3,61.4 47.33,61.04C47.36,60.68 47.33,60.48 47.33,60.2C47.33,59.61 47.4,59.03 47.5,58.3L47.58,57.74L47.67,57.15L47.67,56.93C47.699,56.697 47.742,56.467 47.8,56.24C47.87,55.961 47.96,55.686 48.07,55.42C48.104,55.331 48.144,55.244 48.19,55.16L48.34,54.94C48.45,54.81 48.56,54.68 48.67,54.57L48.74,54.48L48.94,54.27C49.063,54.287 49.184,54.317 49.3,54.36L49.65,54.36L50.06,54.49L50.53,54.73C50.745,54.879 50.999,54.962 51.26,54.97C51.45,54.956 51.636,54.908 51.81,54.83L51.92,54.83L52.19,54.72L52.29,54.72L52.29,55.06C52.27,55.125 52.27,55.195 52.29,55.26L52.29,55.57L52.43,56.57L52.5,57.13C52.5,57.42 52.57,57.73 52.59,58.05C52.61,58.37 52.59,58.39 52.59,58.57L52.59,60.13C52.59,60.39 52.65,60.65 52.69,60.91L52.77,61.34L52.85,61.78C52.9,62.08 52.95,62.37 53.01,62.67L53.01,62.77C53.06,63.01 53.1,63.24 53.17,63.47L53.17,63.6C53.198,63.678 53.218,63.758 53.23,63.84L54,64C53.833,64.101 53.689,64.238 53.58,64.4C53.449,64.576 53.348,64.772 53.28,64.98C53.164,65.249 53.1,65.537 53.09,65.83C53.095,66.047 53.129,66.262 53.19,66.47C53.211,66.572 53.248,66.67 53.3,66.76C53.344,66.897 53.412,67.026 53.5,67.14C53.569,67.24 53.646,67.333 53.73,67.42C53.821,67.504 53.922,67.578 54.03,67.64C54.086,67.682 54.147,67.719 54.21,67.75L54.47,67.9L54.54,67.99L54.54,68.08C54.535,68.163 54.535,68.247 54.54,68.33L54.54,69.23C54.54,69.697 54.5,70.167 54.42,70.64C54.42,70.93 54.36,71.23 54.33,71.52C54.3,71.81 54.33,71.9 54.33,72.09C54.33,72.57 54.26,73.09 54.25,73.55L54.25,83.41C54.206,83.69 54.132,83.965 54.03,84.23C53.997,84.302 53.961,84.372 53.92,84.44L53.82,84.54L53.61,84.77C53.5,84.91 53.38,85.04 53.26,85.17C53.133,85.312 53.016,85.462 52.91,85.62C52.747,85.856 52.641,86.126 52.6,86.41C52.59,86.506 52.59,86.604 52.6,86.7C52.6,86.84 52.6,86.87 52.66,86.87C52.644,86.922 52.644,86.978 52.66,87.03C52.721,87.141 52.795,87.245 52.88,87.34L53.06,87.47C53.126,87.508 53.197,87.538 53.27,87.56C53.428,87.627 53.598,87.661 53.77,87.66C53.93,87.672 54.09,87.672 54.25,87.66C54.446,87.604 54.634,87.523 54.81,87.42L55.04,87.28L55.28,87.14L55.46,87.08L55.86,87.08C56.072,87.195 56.273,87.328 56.46,87.48L56.71,87.64C56.847,87.731 56.995,87.805 57.15,87.86L57.79,88.1C58.024,88.174 58.255,88.261 58.48,88.36C58.666,88.447 58.856,88.524 59.05,88.59C59.275,88.67 59.506,88.733 59.74,88.78C60.227,88.85 60.718,88.893 61.21,88.91L63.08,88.91C63.351,88.908 63.622,88.888 63.89,88.85L65.19,88.59L65.64,88.48L65.98,88.48L66.42,88.4C66.596,88.371 66.767,88.321 66.93,88.25C67.07,88.19 67.179,88.074 67.23,87.93C67.284,87.744 67.23,87.544 67.09,87.41C66.934,87.294 66.752,87.219 66.56,87.19L66.27,87.13L65.86,87.04C65.555,86.966 65.258,86.865 64.97,86.74L64.82,86.68L64.35,86.5C64.07,86.4 63.79,86.29 63.51,86.17L62.91,86L62.74,85.93C62.174,85.689 61.626,85.409 61.1,85.09C60.95,84.99 60.8,84.89 60.66,84.78L60.57,84.72L60.31,84.52L60.1,84.38C60.005,84.295 59.915,84.205 59.83,84.11L59.69,84L59.61,83.91L59.52,83.82C59.439,83.737 59.362,83.651 59.29,83.56C59.249,83.512 59.215,83.458 59.19,83.4C59,82.91 58.83,82.47 58.69,82.02C58.543,81.488 58.432,80.947 58.36,80.4C58.3,79.91 58.25,79.51 58.21,79.1L58.21,78.72C58.21,78.46 58.16,78.21 58.15,77.95C58.14,77.69 58.15,77.13 58.15,76.72L58.15,75.58C58.15,75.16 58.15,74.73 58.22,74.31L58.22,73.14C58.22,72.54 58.29,71.73 58.41,70.84L58.47,70.42L58.47,69.8L58.53,69.3L58.59,68.82C58.58,68.757 58.58,68.693 58.59,68.63C58.619,68.572 58.656,68.518 58.7,68.47L58.89,68.23L59,68.11C59.151,67.92 59.279,67.711 59.38,67.49C59.429,67.396 59.473,67.299 59.51,67.2L59.51,67.1C59.51,66.98 59.6,66.85 59.64,66.72C59.788,66.36 59.909,65.989 60,65.61C60.022,65.273 59.988,64.936 59.9,64.61C59.856,64.491 59.806,64.374 59.75,64.26C59.68,64.12 59.63,64.01 59.57,63.91C59.514,63.809 59.45,63.712 59.38,63.62L59.19,63.34C59.058,63.132 58.941,62.915 58.84,62.69L58.75,62.29L58.75,62.15L58.7,61.88L58.7,61.66C58.64,61.32 58.58,61.03 58.55,60.73L58.55,60.36C58.55,60.21 58.55,60.01 58.49,59.81C58.43,59.61 58.49,59.34 58.42,59.11C58.35,58.88 58.37,58.85 58.34,58.72L58.34,58.36C58.34,58.19 58.27,58.02 58.24,57.85L58.24,55.11C58.23,54.95 58.23,54.79 58.24,54.63C58.316,54.593 58.384,54.542 58.44,54.48C58.552,54.362 58.649,54.231 58.73,54.09C58.869,53.874 58.983,53.642 59.07,53.4L59.12,53.28C59.23,53.01 59.37,52.67 59.48,52.33C59.626,51.958 59.668,51.554 59.6,51.16C59.679,51.144 59.752,51.106 59.81,51.05C59.968,50.915 60.112,50.764 60.24,50.6L60.38,50.44L60.46,50.35L60.62,50.16C60.731,50.025 60.832,49.881 60.92,49.73C61.01,49.6 61.09,49.48 61.17,49.34C61.269,49.173 61.355,48.999 61.43,48.82C61.514,48.621 61.574,48.413 61.61,48.2L61.61,47.27C61.59,46.932 61.537,46.597 61.45,46.27C61.347,45.922 61.206,45.587 61.03,45.27C60.899,45.035 60.745,44.814 60.57,44.61C60.5,44.538 60.419,44.477 60.33,44.43C60.22,44.352 60.098,44.292 59.97,44.25C59.765,44.17 59.549,44.119 59.33,44.1C58.891,44.025 58.445,43.991 58,44C57.634,43.989 57.269,44.04 56.92,44.15C56.435,44.311 55.987,44.566 55.6,44.9C55.499,44.982 55.406,45.072 55.32,45.17L55.19,45.32C55.08,45.42 54.96,45.53 54.83,45.63C54.699,45.746 54.554,45.847 54.4,45.93L54.01,46.07L53.72,46.15L53.88,45.95L53.96,45.76L53.96,45.66L54.13,45.29C54.261,45.06 54.408,44.84 54.57,44.63L54.7,44.47L54.81,44.34L54.88,44.24L55.28,43.76L55.48,43.44L55.54,43.33L55.66,43.14L55.82,42.89L56.16,42.3L56.23,42.17L56.43,41.8L56.68,41.39L56.76,41.23C56.873,41.04 56.996,40.856 57.13,40.68L57.51,40.13L57.88,39.61C58.11,39.27 58.34,38.94 58.55,38.61C58.68,38.42 58.78,38.22 58.89,38.02L59.09,37.64C59.2,37.44 59.29,37.28 59.37,37.12L59.55,36.72L59.64,36.5C59.76,36.19 59.87,35.89 59.96,35.58L59.96,35.44C60.03,35.2 60.09,34.95 60.18,34.71L65.45,34.71C65.69,34.71 65.95,34.71 66.2,34.76L66.74,34.86L66.84,34.86L67.43,34.99L67.85,35.05L69.83,35.05C70.034,35.05 70.233,34.987 70.4,34.87C70.468,34.793 70.531,34.713 70.59,34.63L70.71,34.48L70.86,34.29C71.032,34.179 71.212,34.082 71.4,34L71.68,33.76L71.92,33.55C72.08,33.388 72.225,33.21 72.35,33.02L72.47,32.85L72.71,32.52L73.18,31.86C73.39,31.56 73.58,31.25 73.77,30.93C73.96,30.61 74.16,30.32 74.37,30.02L74.5,29.85L74.66,29.64L74.91,29.27L75,29.13C75.16,28.88 75.33,28.65 75.5,28.42C75.67,28.19 75.87,27.97 76.05,27.75L76.14,27.64L76.35,27.39L76.47,27.24L76.8,26.82C76.953,26.647 77.103,26.467 77.25,26.28C77.495,25.942 77.706,25.58 77.88,25.2C77.98,25 78.08,24.8 78.16,24.6C78.244,24.407 78.341,24.22 78.45,24.04L78.87,24.12C79.017,24.166 79.168,24.203 79.32,24.23L79.91,24.23C80.18,24.23 80.44,24.18 80.7,24.14L80.94,24.07C81.125,24.019 81.303,23.945 81.47,23.85C81.688,23.714 81.89,23.553 82.07,23.37C82.208,23.226 82.332,23.068 82.44,22.9C82.533,22.76 82.601,22.604 82.64,22.44C82.711,22.241 82.738,22.03 82.72,21.82C82.691,21.559 82.627,21.304 82.53,21.06C82.43,20.82 82.32,20.59 82.21,20.36C82.017,19.959 81.772,19.586 81.48,19.25C81.336,19.084 81.175,18.933 81,18.8C80.799,18.651 80.585,18.52 80.36,18.41C80.17,18.312 79.973,18.229 79.77,18.16C79.703,18.131 79.632,18.111 79.56,18.1L79.13,18L78.85,18C78.628,18.011 78.408,18.038 78.19,18.08C77.907,18.122 77.635,18.221 77.39,18.37C77.141,18.527 76.933,18.739 76.78,18.99C76.589,19.264 76.478,19.586 76.46,19.92C76.465,20.116 76.492,20.31 76.54,20.5L76.54,20.88C76.559,21.08 76.559,21.28 76.54,21.48L76.54,21.57C76.349,21.799 76.13,22.004 75.89,22.18L75.71,22.32L75.34,22.59C75.02,22.83 74.76,23.04 74.51,23.26C74.374,23.376 74.246,23.504 74.13,23.64C74.03,23.76 73.93,23.88 73.84,24.01L73.75,24.12L73.42,24.51L73.33,24.6L73.03,24.95L72.74,25.31L72.3,25.83C72.11,26.052 71.906,26.263 71.69,26.46C71.484,26.648 71.297,26.856 71.13,27.08C71.001,27.251 70.884,27.432 70.78,27.62L70.68,27.79C70.5,28.09 70.36,28.31 70.22,28.52L70.13,28.62L70,28.49C69.772,28.373 69.53,28.286 69.28,28.23C69.02,28.18 68.76,28.15 68.49,28.12L67.83,28.12C67.567,28.085 67.307,28.034 67.05,27.97L66.86,27.91L66.67,27.91C66.504,27.858 66.333,27.821 66.16,27.8C65.97,27.785 65.78,27.785 65.59,27.8L64.29,27.8C63.642,27.797 62.994,27.76 62.35,27.69C62.065,27.655 61.778,27.635 61.49,27.63L60.47,27.63L60.53,27.55L60.53,27.42C60.559,27.271 60.579,27.121 60.59,26.97C60.604,26.695 60.584,26.42 60.53,26.15C60.506,26.048 60.476,25.948 60.44,25.85C60.36,25.63 60.32,25.54 60.28,25.45C60.214,25.298 60.126,25.157 60.02,25.03L59.86,24.87C59.746,24.757 59.614,24.662 59.47,24.59C59.323,24.51 59.158,24.469 58.99,24.47L58.8,24.47C58.39,24.516 57.997,24.656 57.65,24.88C57.549,24.943 57.452,25.014 57.36,25.09C57.255,25.19 57.161,25.3 57.08,25.42C57.014,25.52 56.954,25.623 56.9,25.73L56.83,25.88C56.759,25.835 56.681,25.801 56.6,25.78C56.418,25.74 56.235,25.71 56.05,25.69L55.47,25.69C55.31,25.7 55.15,25.7 54.99,25.69C54.83,25.68 54.99,25.63 54.99,25.61L54.99,23.98C55.063,23.931 55.14,23.887 55.22,23.85L55.69,23.6L55.92,23.45L56.06,23.36L56.19,23.28L56.41,23.16L56.51,23.1C57.08,22.77 57.65,22.44 58.2,22.1C58.411,21.995 58.588,21.832 58.71,21.63C58.807,21.438 58.855,21.225 58.85,21.01L58.85,20.37C58.84,20.18 58.84,19.99 58.85,19.8L58.85,15.92L59.11,15.69C59.248,15.554 59.378,15.41 59.5,15.26C59.64,15.08 59.78,14.89 59.9,14.7C60.055,14.469 60.177,14.216 60.26,13.95C60.462,13.265 60.462,12.535 60.26,11.85C60.19,11.52 60.11,11.19 60.01,10.85C60.01,10.71 59.92,10.58 59.87,10.45C59.812,10.29 59.727,10.142 59.62,10.01C59.552,9.903 59.479,9.799 59.4,9.7L59.3,9.57C59.214,9.373 59.114,9.182 59,9C58.845,8.854 58.643,8.769 58.43,8.76C58.341,8.763 58.255,8.791 58.18,8.84C58.079,8.905 58.004,9.004 57.97,9.12C57.952,9.202 57.952,9.288 57.97,9.37C57.973,9.433 57.973,9.497 57.97,9.56L57.97,10.03L58.09,10.87C58.1,11.037 58.1,11.203 58.09,11.37L58.09,11.78C58.067,11.995 58.02,12.206 57.95,12.41C57.912,12.482 57.865,12.549 57.81,12.61C57.664,12.802 57.496,12.976 57.31,13.13C57.216,13.197 57.116,13.254 57.01,13.3L56.7,13.3C56.532,13.293 56.366,13.277 56.2,13.25C55.842,13.205 55.481,13.182 55.12,13.18L50.91,13.18C50.607,13.163 50.303,13.163 50,13.18L49.43,13.27L49.31,13.32C49.23,13.24 49.18,13.2 49.14,13.15L48.85,12.84L48.7,12.67L48.55,12.51L48.44,12.38C48.358,12.309 48.284,12.228 48.22,12.14L48,12C47.913,11.864 47.839,11.72 47.78,11.57C47.716,11.418 47.666,11.261 47.63,11.1C47.594,10.768 47.594,10.432 47.63,10.1L47.63,9.94C47.625,9.88 47.625,9.82 47.63,9.76C47.645,9.671 47.669,9.584 47.7,9.5C47.756,9.387 47.823,9.28 47.9,9.18C47.981,9.083 48.048,8.975 48.1,8.86C48.184,8.697 48.142,8.496 48,8.38C47.938,8.348 47.87,8.327 47.8,8.32C47.754,8.308 47.706,8.308 47.66,8.32L47.67,8.36ZM55,17.79C55.2,17.67 55.41,17.56 55.62,17.45L55.87,17.32L56.05,17.23L56.22,17.14L56.38,17.05L56.47,17L56.6,17L56.6,17.2C56.611,17.4 56.611,17.6 56.6,17.8L56.48,17.8L56.31,17.86L56.1,17.86C55.68,17.91 55.42,17.93 55.1,17.95L54.74,17.95L55.03,17.76L55,17.79ZM48.84,17.32C48.882,17.196 48.999,17.111 49.13,17.11C49.196,17.101 49.264,17.101 49.33,17.11C49.541,17.162 49.748,17.228 49.95,17.31L49.89,17.31L50.05,17.38L50.33,17.5L50.5,17.58C50.62,17.63 50.75,17.65 50.88,17.69C50.936,17.714 50.99,17.744 51.04,17.78C51.094,17.829 51.126,17.897 51.13,17.97C51.128,18.061 51.079,18.145 51,18.19C50.941,18.204 50.879,18.204 50.82,18.19L49.31,18.19C49.233,18.235 49.137,18.235 49.06,18.19C48.94,18.19 48.92,17.98 48.9,17.86L48.9,17.53C48.894,17.553 48.894,17.577 48.9,17.6C48.87,17.468 48.87,17.332 48.9,17.2L48.84,17.32ZM52.56,20.32C52.466,20.329 52.372,20.301 52.3,20.24C52.243,20.181 52.211,20.102 52.21,20.02C52.201,19.981 52.201,19.939 52.21,19.9L52.21,19.72L52.32,19.45C52.32,19.33 52.39,19.22 52.42,19.1C52.441,19.029 52.492,18.97 52.56,18.94C52.603,18.89 52.665,18.861 52.73,18.86C52.799,18.858 52.865,18.888 52.91,18.94C53,19.03 53,19.18 53.03,19.3C53.06,19.42 53.12,19.59 53.17,19.72C53.189,19.769 53.213,19.815 53.24,19.86C53.249,19.92 53.249,19.98 53.24,20.04C53.237,20.122 53.205,20.2 53.15,20.26C53.089,20.314 53.011,20.346 52.93,20.35L52.6,20.35L52.56,20.32ZM51.71,22.01C51.55,21.971 51.393,21.92 51.24,21.86L51.14,21.86C51.08,21.83 51.036,21.775 51.02,21.71C51.001,21.648 51.001,21.582 51.02,21.52C51.053,21.465 51.107,21.425 51.17,21.41L51.23,21.41C51.273,21.403 51.317,21.403 51.36,21.41L52.07,21.41L52.56,21.46L53.94,21.46C53.956,21.457 53.973,21.455 53.99,21.455C54.127,21.455 54.24,21.568 54.24,21.705C54.24,21.842 54.127,21.955 53.99,21.955C53.973,21.955 53.956,21.953 53.94,21.95L52.18,21.95C52.022,21.954 51.864,21.937 51.71,21.9L51.71,22.01ZM46.79,37.01C46.775,36.965 46.775,36.915 46.79,36.87C46.781,36.824 46.781,36.776 46.79,36.73L46.86,36.65C46.885,36.569 46.949,36.505 47.03,36.48L47.09,36.41L47.19,36.32L47.39,36.15L47.6,35.95C47.682,35.869 47.777,35.802 47.88,35.75C48.1,35.63 48.33,35.53 48.55,35.43C48.662,35.383 48.769,35.326 48.87,35.26L49.11,35.13C49.174,35.09 49.246,35.063 49.32,35.05L49.45,35.05C49.493,35.041 49.537,35.041 49.58,35.05C49.76,35.13 49.78,35.36 49.75,35.53C49.72,35.7 49.69,35.78 49.65,35.91C49.61,36.04 49.65,36 49.65,36.04L49.58,36.14C49.52,36.188 49.447,36.216 49.37,36.22C49.13,36.34 48.92,36.54 48.67,36.66C48.535,36.73 48.394,36.79 48.25,36.84L48.12,36.84L48,37C47.858,37.074 47.707,37.128 47.55,37.16C47.43,37.17 47.31,37.17 47.19,37.16C47.073,37.167 46.962,37.109 46.9,37.01L46.79,37.01ZM53.28,36.21L53.79,36.33L54.29,36.33L54.57,36.39L54.87,36.48L55.5,36.65L55.64,36.65L56.39,36.88L55,36.88C54.719,36.88 54.439,36.897 54.16,36.93L53.93,36.93C53.711,36.961 53.491,36.978 53.27,36.98L53.14,36.98L53.02,36.89C53.011,36.743 53.011,36.597 53.02,36.45L53.02,36.25L53.08,36.15L53.33,36.1L53.28,36.21ZM48.46,38.21L48.87,38.02C48.99,37.975 49.107,37.922 49.22,37.86C49.292,37.804 49.379,37.769 49.47,37.76C49.583,37.756 49.689,37.819 49.74,37.92C49.774,37.985 49.794,38.057 49.8,38.13L49.8,38.34C49.8,38.49 49.8,38.64 49.88,38.79C49.905,38.851 49.905,38.919 49.88,38.98C49.866,39.008 49.845,39.032 49.82,39.05C49.83,39.1 49.83,39.15 49.82,39.2C49.794,39.29 49.732,39.366 49.65,39.41C49.564,39.454 49.467,39.475 49.37,39.47C49.074,39.475 48.779,39.445 48.49,39.38L47.31,39.38C47.187,39.395 47.063,39.395 46.94,39.38C46.802,39.337 46.721,39.19 46.76,39.05C46.779,38.981 46.826,38.923 46.89,38.89L47.03,38.83L47.22,38.75L47.42,38.66L47.71,38.52C47.89,38.46 48.06,38.42 48.23,38.35L48.46,38.26L48.46,38.21ZM53.77,39.31C53.554,39.288 53.34,39.248 53.13,39.19L53.06,39.04L53.3,39.04C53.493,39.027 53.687,39.027 53.88,39.04L54.75,39.17L55.12,39.23L53.77,39.23L53.77,39.31ZM49.24,41.55L49.02,41.55C48.83,41.525 48.642,41.481 48.46,41.42C48.374,41.38 48.294,41.329 48.22,41.27C48.147,41.184 48.083,41.09 48.03,40.99L48.38,40.99C48.562,40.957 48.743,40.914 48.92,40.86L49.2,40.78L49.31,40.78L49.31,41.62L49.24,41.55ZM52.42,41.7C52.46,41.5 52.51,41.28 52.57,41.04L52.75,41.04L52.92,41.09L53.38,41.25C53.517,41.314 53.657,41.371 53.8,41.42L53.89,41.42L53.75,41.42L53.43,41.49L53.1,41.56L52.87,41.62L52.63,41.69L52.5,41.69L52.42,41.7Z" style="fill:rgb(213,213,213);fill-rule:nonzero;"/>
            </g>
        </g>
    </g>
</svg>
