<?xml version="1.0" encoding="UTF-8" standalone="no"?>
<!DOCTYPE svg PUBLIC "-//W3C//DTD SVG 1.1//EN" "http://www.w3.org/Graphics/SVG/1.1/DTD/svg11.dtd">
<svg width="100%" height="100%" viewBox="0 0 1020 820" version="1.1" xmlns="http://www.w3.org/2000/svg" xmlns:xlink="http://www.w3.org/1999/xlink" xml:space="preserve" xmlns:serif="http://www.serif.com/" style="fill-rule:evenodd;clip-rule:evenodd;stroke-linejoin:round;stroke-miterlimit:2;">
    <g transform="matrix(1,0,0,1,-467,-934)">
        <g transform="matrix(9.11103,0,0,5.59949,5122.68,1153.28)">
            <g id="matching_border" transform="matrix(0.175656,0,0,0.211861,-908.397,-95.1334)">
                <g id="matching_border1" serif:id="matching_border" transform="matrix(1.03066,0,0,1.51518,1487.12,-461.412)">
                    <rect x="758.273" y="484.455" width="606.255" height="445.068" style="fill:rgb(10,79,116);"/>
                </g>
                <g transform="matrix(-1.03066,0,0,0.0958847,3675,857.854)">
                    <g id="water_back">
                        <path id="water_front" d="M1364.53,484.455C1321.67,379.834 1277.47,325.205 1227.47,484.455C1192.59,631.738 1137,600.609 1071.53,484.455C1026.23,380.94 974.033,362.199 910.376,484.455C855.81,599.918 805.701,582.219 758.273,484.455L758.273,929.523L1364.53,929.523L1364.53,484.455Z" style="fill:rgb(150,116,49);"/>
                    </g>
                </g>
                <g id="chest" transform="matrix(0.705431,-0.169702,0.093245,0.705431,737.17,706.718)">
                    <g transform="matrix(0.603021,0,0,0.758579,161.721,-30.0144)">
                        <rect x="4175.5" y="1229.59" width="103.618" height="55.561" style="fill:rgb(51,42,39);"/>
                    </g>
                    <g transform="matrix(0.0301511,0,0,0.758579,2553.74,-30.0144)">
                        <rect x="4175.5" y="1229.59" width="103.618" height="55.561" style="fill:rgb(72,56,49);"/>
                    </g>
                    <g transform="matrix(0.0301511,0,0,0.758579,2613.1,-30.0144)">
                        <rect x="4175.5" y="1229.59" width="103.618" height="55.561" style="fill:rgb(72,56,49);"/>
                    </g>
                    <g transform="matrix(0.603021,0,0,0.379289,161.721,415.284)">
                        <rect x="4175.5" y="1229.59" width="103.618" height="55.561" style="fill:rgb(72,56,49);"/>
                    </g>
                    <g transform="matrix(0.0301511,0,0,0.379289,2553.74,415.284)">
                        <rect x="4175.5" y="1229.59" width="103.618" height="55.561" style="fill:rgb(51,42,39);"/>
                    </g>
                    <g transform="matrix(0.0301511,0,0,0.379289,2613.1,415.284)">
                        <rect x="4175.5" y="1229.59" width="103.618" height="55.561" style="fill:rgb(51,42,39);"/>
                    </g>
                    <g transform="matrix(0.624841,0,0,0.842947,68.663,-137.806)">
                        <path d="M4221.12,1231.9C4221.12,1227.76 4224.48,1224.4 4228.62,1224.4C4232.76,1224.4 4236.12,1227.76 4236.12,1231.9L4236.12,1246.9L4221.12,1246.9L4221.12,1231.9Z" style="fill:rgb(68,69,79);"/>
                    </g>
                    <g transform="matrix(0.272884,2.38195e-17,-1.7759e-17,0.368136,1556.93,450.717)">
                        <path d="M4221.12,1231.9C4221.12,1227.76 4224.48,1224.4 4228.62,1224.4C4232.76,1224.4 4236.12,1227.76 4236.12,1231.9L4236.12,1246.9L4221.12,1246.9L4221.12,1231.9Z" style="fill:rgb(40,41,47);"/>
                    </g>
                    <g id="bubble" transform="matrix(1.37389,0.330509,-0.181602,1.37389,-915.683,-1272.59)">
                        <g transform="matrix(0.624841,0,0,0.842947,70.6127,-133.753)">
                            <circle cx="4333.67" cy="1204.56" r="12.408" style="fill:rgb(35,98,132);"/>
                        </g>
                        <g transform="matrix(0.311579,-0.366537,0.195868,0.303022,1190.72,2102.3)">
                            <circle cx="4333.67" cy="1204.56" r="12.408" style="fill:rgb(38,105,141);"/>
                        </g>
                    </g>
                    <g id="bubble1" serif:id="bubble" transform="matrix(1.01963,0.245288,-0.134777,1.01963,24.4464,-755.473)">
                        <g transform="matrix(0.624841,0,0,0.842947,70.6127,-133.753)">
                            <circle cx="4333.67" cy="1204.56" r="12.408" style="fill:rgb(35,98,132);"/>
                        </g>
                        <g transform="matrix(0.311579,-0.366537,0.195868,0.303022,1190.72,2102.3)">
                            <circle cx="4333.67" cy="1204.56" r="12.408" style="fill:rgb(38,105,141);"/>
                        </g>
                    </g>
                    <g id="bubble2" serif:id="bubble" transform="matrix(0.559744,0.134655,-0.0739879,0.559744,1264.97,-38.7011)">
                        <g transform="matrix(0.624841,0,0,0.842947,70.6127,-133.753)">
                            <circle cx="4333.67" cy="1204.56" r="12.408" style="fill:rgb(35,98,132);"/>
                        </g>
                        <g transform="matrix(0.311579,-0.366537,0.195868,0.303022,1190.72,2102.3)">
                            <circle cx="4333.67" cy="1204.56" r="12.408" style="fill:rgb(38,105,141);"/>
                        </g>
                    </g>
                    <g id="bubble3" serif:id="bubble" transform="matrix(0.385925,0.09284,-0.0510122,0.385925,1724.18,212.628)">
                        <g transform="matrix(0.624841,0,0,0.842947,70.6127,-133.753)">
                            <circle cx="4333.67" cy="1204.56" r="12.408" style="fill:rgb(35,98,132);"/>
                        </g>
                        <g transform="matrix(0.311579,-0.366537,0.195868,0.303022,1190.72,2102.3)">
                            <circle cx="4333.67" cy="1204.56" r="12.408" style="fill:rgb(38,105,141);"/>
                        </g>
                    </g>
                </g>
                <g transform="matrix(1.03066,0,0,0.0958847,1487.12,857.854)">
                    <g id="water_front1" serif:id="water_front">
                        <path id="water_front2" serif:id="water_front" d="M1364.53,484.455C1321.67,379.834 1277.47,325.205 1227.47,484.455C1192.59,631.738 1137,600.609 1071.53,484.455C1026.23,380.94 974.033,362.199 910.376,484.455C855.81,599.918 805.701,582.219 758.273,484.455L758.273,929.523L1364.53,929.523L1364.53,484.455Z" style="fill:rgb(244,182,62);"/>
                    </g>
                </g>
                <g transform="matrix(1.03066,0,0,1.51518,1487.12,-461.412)">
                    <path d="M1370.59,484.455C1370.59,481.382 1367.88,478.891 1364.53,478.891L758.273,478.891C754.924,478.891 752.21,481.382 752.21,484.455L752.21,929.523C752.21,932.595 754.924,935.086 758.273,935.086L1364.53,935.086C1367.88,935.086 1370.59,932.595 1370.59,929.523L1370.59,484.455ZM1364.53,484.455L758.273,484.455L758.273,929.523L1364.53,929.523L1364.53,484.455Z" style="fill:rgb(244,182,62);"/>
                </g>
            </g>
        </g>
    </g>
</svg>
