<?xml version="1.0" encoding="UTF-8" standalone="no"?>
<!DOCTYPE svg PUBLIC "-//W3C//DTD SVG 1.1//EN" "http://www.w3.org/Graphics/SVG/1.1/DTD/svg11.dtd">
<svg width="100%" height="100%" viewBox="0 0 200 192" version="1.1" xmlns="http://www.w3.org/2000/svg" xmlns:xlink="http://www.w3.org/1999/xlink" xml:space="preserve" xmlns:serif="http://www.serif.com/" style="fill-rule:evenodd;clip-rule:evenodd;stroke-linejoin:round;stroke-miterlimit:2;">
    <g transform="matrix(1,0,0,1,-2094,-368)">
        <g transform="matrix(9.11103,0,0,5.59949,5122.68,1153.28)">
            <g id="sailor" transform="matrix(1.47461,0,0,0.661435,-1713.59,-606.453)">
                <g transform="matrix(0.606255,0,0,2.14393,465.218,385.281)">
                    <path d="M785.946,171.147C785.946,170.955 785.795,170.799 785.608,170.799L784.93,170.799C784.744,170.799 784.592,170.955 784.592,171.147L784.592,172.89C784.592,173.082 784.744,173.237 784.93,173.237L785.608,173.237C785.795,173.237 785.946,173.082 785.946,172.89L785.946,171.147Z" style="fill:rgb(35,55,93);"/>
                </g>
                <g transform="matrix(0.606255,0,0,2.14393,467.492,384.386)">
                    <path d="M785.946,171.147C785.946,170.955 785.795,170.799 785.608,170.799L784.93,170.799C784.744,170.799 784.592,170.955 784.592,171.147L784.592,172.89C784.592,173.082 784.744,173.237 784.93,173.237L785.608,173.237C785.795,173.237 785.946,173.082 785.946,172.89L785.946,171.147Z" style="fill:rgb(35,55,93);"/>
                </g>
                <g transform="matrix(0.919295,1.39179,-0.111292,0.919295,157.28,-1258.55)">
                    <g transform="matrix(-0.394482,-1.62798,0.759185,-2.30056,1124.27,2404.78)">
                        <path d="M785.946,171C785.946,170.89 785.795,170.799 785.608,170.799L784.93,170.799C784.744,170.799 784.592,170.89 784.592,171L784.592,173.036C784.592,173.147 784.744,173.237 784.93,173.237L785.608,173.237C785.795,173.237 785.946,173.147 785.946,173.036L785.946,171Z" style="fill:rgb(35,55,93);"/>
                    </g>
                    <g transform="matrix(-0.606174,-0.0350231,0.0163325,-3.53512,1419.03,1360.82)">
                        <path d="M785.946,171.008C785.946,170.893 785.795,170.799 785.608,170.799L784.93,170.799C784.744,170.799 784.592,170.893 784.592,171.008L784.592,173.028C784.592,173.144 784.744,173.237 784.93,173.237L785.608,173.237C785.795,173.237 785.946,173.144 785.946,173.028L785.946,171.008Z" style="fill:rgb(35,55,93);"/>
                    </g>
                </g>
                <g transform="matrix(0.49687,0,0,1.74577,545.285,444.759)">
                    <path d="M801.897,165.049C801.897,164.298 801.292,163.689 800.546,163.689L797.844,163.689C797.098,163.689 796.493,164.298 796.493,165.049L795.273,174.933C795.273,175.684 795.878,176.293 796.624,176.293L801.766,176.293C802.512,176.293 803.117,175.684 803.117,174.933L801.897,165.049Z" style="fill:rgb(47,79,140);"/>
                    <clipPath id="_clip1">
                        <path d="M801.897,165.049C801.897,164.298 801.292,163.689 800.546,163.689L797.844,163.689C797.098,163.689 796.493,164.298 796.493,165.049L795.273,174.933C795.273,175.684 795.878,176.293 796.624,176.293L801.766,176.293C802.512,176.293 803.117,175.684 803.117,174.933L801.897,165.049Z"/>
                    </clipPath>
                    <g clip-path="url(#_clip1)">
                        <g transform="matrix(1.22015,0,0,1.22807,-175.506,-38.0083)">
                            <rect x="796.364" y="164.459" width="5.105" height="0.347" style="fill:rgb(46,69,111);"/>
                        </g>
                        <g transform="matrix(1.22015,0,0,1.22807,-175.506,-37.2889)">
                            <rect x="796.364" y="164.459" width="5.105" height="0.347" style="fill:rgb(46,69,111);"/>
                        </g>
                        <g transform="matrix(1.22015,0,0,1.22807,-175.506,-36.5695)">
                            <rect x="796.364" y="164.459" width="5.105" height="0.347" style="fill:rgb(46,69,111);"/>
                        </g>
                        <g transform="matrix(1.22015,0,0,1.22807,-175.506,-38.0083)">
                            <rect x="796.364" y="164.459" width="5.105" height="0.347" style="fill:rgb(46,69,111);"/>
                        </g>
                    </g>
                </g>
                <g transform="matrix(1,0,0,1,1.92369,0.400879)">
                    <g transform="matrix(-0.394482,-1.62798,0.759185,-2.30056,1124.27,2404.78)">
                        <path d="M785.946,171.004C785.946,170.891 785.795,170.799 785.608,170.799L784.93,170.799C784.744,170.799 784.592,170.891 784.592,171.004L784.592,173.033C784.592,173.146 784.744,173.237 784.93,173.237L785.608,173.237C785.795,173.237 785.946,173.146 785.946,173.033L785.946,171.004Z" style="fill:rgb(58,97,171);"/>
                    </g>
                    <g transform="matrix(-0.606174,-0.0350231,0.0163325,-3.53512,1419.03,1360.82)">
                        <path d="M785.946,171.01C785.946,170.894 785.795,170.799 785.608,170.799L784.93,170.799C784.744,170.799 784.592,170.894 784.592,171.01L784.592,173.027C784.592,173.143 784.744,173.237 784.93,173.237L785.608,173.237C785.795,173.237 785.946,173.143 785.946,173.027L785.946,171.01Z" style="fill:rgb(58,97,171);"/>
                    </g>
                </g>
                <g transform="matrix(0.606255,0,0,2.22534,457.85,377.607)">
                    <ellipse cx="798.706" cy="153.852" rx="4.497" ry="4.179" style="fill:rgb(255,197,149);"/>
                    <clipPath id="_clip2">
                        <ellipse cx="798.706" cy="153.852" rx="4.497" ry="4.179"/>
                    </clipPath>
                    <g clip-path="url(#_clip2)">
                        <g transform="matrix(1.18586,-6.89729e-17,0,1.2425,-148.18,-43.1255)">
                            <ellipse cx="801.771" cy="158.191" rx="1.049" ry="0.975" style="fill:rgb(238,238,238);"/>
                            <clipPath id="_clip3">
                                <ellipse cx="801.771" cy="158.191" rx="1.049" ry="0.975"/>
                            </clipPath>
                            <g clip-path="url(#_clip3)">
                                <g transform="matrix(0.485218,1.62162e-18,0,0.456006,412.97,85.9516)">
                                    <ellipse cx="801.771" cy="158.191" rx="1.049" ry="0.975" style="fill:rgb(25,36,57);"/>
                                </g>
                            </g>
                        </g>
                        <g transform="matrix(1,0,0,0.963415,0.382168,0.888703)">
                            <ellipse cx="802.09" cy="161.507" rx="1.109" ry="0.563" style="fill:rgb(178,34,0);"/>
                        </g>
                        <g transform="matrix(0.598523,-0.367268,0.315094,0.476612,273.49,365.794)">
                            <rect x="795.565" y="164.107" width="3.274" height="0.823" style="fill:rgb(106,37,5);"/>
                        </g>
                    </g>
                </g>
                <g transform="matrix(0.583635,-0.580169,0.164059,2.06393,453.996,853.729)">
                    <path d="M791.902,150.586L796.041,154.434L787.764,154.434L791.902,150.586Z" style="fill:rgb(46,69,111);"/>
                </g>
                <g transform="matrix(-0.532161,0.504255,-0.106098,-1.40026,1383.62,525.425)">
                    <path d="M808.696,156.696L791.428,156.696L795.745,151.685L804.379,151.685L808.696,156.696Z" style="fill:rgb(47,79,140);"/>
                </g>
                <g transform="matrix(1.0684,0.0599254,-0.012561,2.80065,-1691.05,86.0048)">
                    <g transform="matrix(0.624841,0,0,0.842947,1967.45,39.8942)">
                        <rect x="803.199" y="157.888" width="3.141" height="1.043" style="fill:rgb(249,182,65);"/>
                    </g>
                    <g transform="matrix(-0.0241353,0,0,0.918655,2488.71,27.9041)">
                        <rect x="803.199" y="157.888" width="3.141" height="1.043" style="fill:rgb(151,101,13);"/>
                    </g>
                    <g transform="matrix(0.624841,0,0,1.25545,1969.42,-25.4224)">
                        <rect x="803.199" y="157.888" width="3.141" height="1.043" style="fill:rgb(210,152,50);"/>
                    </g>
                    <g transform="matrix(0.624841,0,0,1.57828,1971.38,-76.5618)">
                        <rect x="803.199" y="157.888" width="3.141" height="1.043" style="fill:rgb(180,132,47);"/>
                    </g>
                    <g transform="matrix(-0.0638686,0,0,1.88318,2526.71,-124.869)">
                        <rect x="803.199" y="157.888" width="3.141" height="1.043" style="fill:rgb(151,101,13);"/>
                    </g>
                </g>
            </g>
        </g>
    </g>
</svg>
