<?xml version="1.0" encoding="UTF-8" standalone="no"?>
<!DOCTYPE svg PUBLIC "-//W3C//DTD SVG 1.1//EN" "http://www.w3.org/Graphics/SVG/1.1/DTD/svg11.dtd">
<svg width="100%" height="100%" viewBox="0 0 301 300" version="1.1" xmlns="http://www.w3.org/2000/svg" xmlns:xlink="http://www.w3.org/1999/xlink" xml:space="preserve" xmlns:serif="http://www.serif.com/" style="fill-rule:evenodd;clip-rule:evenodd;stroke-linejoin:round;stroke-miterlimit:2;">
    <g transform="matrix(1,0,0,1,-2006,-26)">
        <g transform="matrix(9.11103,0,0,5.59949,5122.68,1153.28)">
            <g transform="matrix(0.482633,0,0,0.204163,-782.726,-321.838)">
                <g id="ship_2">
                    <g>
                        <g>
                            <g transform="matrix(0.354505,0,0,2.31519,128.534,-114.654)">
                                <rect x="2308.6" y="311.705" width="8.551" height="72.089" style="fill:rgb(44,44,44);"/>
                            </g>
                            <g transform="matrix(0.746198,0,0,1.99999,-778.607,7.09791)">
                                <path d="M2326.95,335.095L2301.99,335.095L2301.99,346.222L2307.24,342.884L2311.99,346.222L2314.49,343.996L2316.99,346.222L2321.68,342.884L2326.95,346.222L2326.95,335.095Z" style="fill:rgb(8,57,86);"/>
                            </g>
                            <g transform="matrix(0.606255,0,0,2.34643,-454.71,-118.577)">
                                <path d="M2326.95,318.505L2301.99,318.505L2306.99,332.731L2321.95,332.731L2326.95,318.505Z" style="fill:rgb(8,57,86);"/>
                            </g>
                            <g transform="matrix(0.393496,0,0,2.18707,38.2498,-68.1947)">
                                <path d="M2316.99,301.091L2293.88,301.091L2300.5,305.065L2293.88,308.722L2316.99,308.722L2316.99,301.091Z" style="fill:rgb(8,57,86);"/>
                            </g>
                            <g transform="matrix(0.642105,0,0,1.60809,-555.005,80.3387)">
                                <path d="M2356.81,341.047C2356.81,339.137 2355.8,337.587 2354.55,337.587L2328.38,337.587C2327.13,337.587 2326.12,339.137 2326.12,341.047C2326.12,342.956 2327.13,344.506 2328.38,344.506L2354.55,344.506C2355.8,344.506 2356.81,342.956 2356.81,341.047Z" style="fill:rgb(51,42,39);"/>
                            </g>
                            <g transform="matrix(0.790324,0,0,1.60809,-902.054,128.852)">
                                <path d="M2356.81,341.047C2356.81,339.137 2355.99,337.587 2354.98,337.587L2327.95,337.587C2326.94,337.587 2326.12,339.137 2326.12,341.047C2326.12,342.956 2326.94,344.506 2327.95,344.506L2354.98,344.506C2355.99,344.506 2356.81,342.956 2356.81,341.047Z" style="fill:rgb(51,42,39);"/>
                            </g>
                        </g>
                        <g id="cannon" transform="matrix(0.88176,-0.921978,0.137134,1.99715,1374.11,190.293)">
                            <g transform="matrix(0.209545,0,0,0.378215,-550.036,-181.599)">
                                <path d="M423.186,702.186L335.297,696.594L335.297,724.558L423.186,718.965L423.186,702.186Z" style="fill:rgb(90,90,90);"/>
                            </g>
                            <g transform="matrix(0.179277,0,0,0.376933,-538.097,-173.911)">
                                <path d="M433.173,684.461C433.173,682.138 430.872,680.252 428.037,680.252C425.202,680.252 422.9,682.138 422.9,684.461L422.9,700.736C422.9,703.059 425.202,704.945 428.037,704.945C430.872,704.945 433.173,703.059 433.173,700.736L433.173,684.461Z" style="fill:rgb(75,75,75);"/>
                            </g>
                        </g>
                        <g transform="matrix(0.606255,0,0,2.22534,-451.316,-80.8131)">
                            <path d="M2289.61,357.594C2289.6,357.709 2289.6,357.824 2289.6,357.939C2289.6,371.737 2300.8,382.939 2314.6,382.939C2328.4,382.939 2339.6,371.737 2339.6,357.939C2339.6,352.996 2338.16,348.387 2335.69,344.506L2351.91,344.506C2356.17,351.864 2358.6,360.403 2358.6,369.506C2358.6,397.102 2336.2,419.506 2308.6,419.506C2281.01,419.506 2258.6,397.102 2258.6,369.506C2258.6,365.402 2259.1,361.413 2260.03,357.594L2289.61,357.594Z" style="fill:rgb(72,56,49);"/>
                            <clipPath id="_clip1">
                                <path d="M2289.61,357.594C2289.6,357.709 2289.6,357.824 2289.6,357.939C2289.6,371.737 2300.8,382.939 2314.6,382.939C2328.4,382.939 2339.6,371.737 2339.6,357.939C2339.6,352.996 2338.16,348.387 2335.69,344.506L2351.91,344.506C2356.17,351.864 2358.6,360.403 2358.6,369.506C2358.6,397.102 2336.2,419.506 2308.6,419.506C2281.01,419.506 2258.6,397.102 2258.6,369.506C2258.6,365.402 2259.1,361.413 2260.03,357.594L2289.61,357.594Z"/>
                            </clipPath>
                            <g clip-path="url(#_clip1)">
                                <g transform="matrix(1,0,0,1.04252,-3.82154,-11.3546)">
                                    <rect x="2258.8" y="396.301" width="107.248" height="16.989" style="fill:rgb(53,47,45);"/>
                                </g>
                                <g transform="matrix(1,0,0,0.330357,-2.25715,249.277)">
                                    <rect x="2258.8" y="396.301" width="107.248" height="16.989" style="fill:rgb(99,78,69);"/>
                                </g>
                                <g transform="matrix(1,0,0,0.330357,-3.82154,237.901)">
                                    <rect x="2258.8" y="396.301" width="107.248" height="16.989" style="fill:rgb(99,78,69);"/>
                                </g>
                                <g transform="matrix(1,0,0,1,-1.66076,-0.0963691)">
                                    <g transform="matrix(1.01302,0,0,1.01302,-27.4458,18.3377)">
                                        <circle cx="2307.67" cy="378.626" r="7.404" style="fill:rgb(99,78,69);"/>
                                    </g>
                                    <g transform="matrix(0.675344,0,0,0.675344,751.791,146.189)">
                                        <circle cx="2307.67" cy="378.626" r="7.404" style="fill:rgb(53,47,45);"/>
                                    </g>
                                </g>
                                <g transform="matrix(1,0,0,1,20.4051,0)">
                                    <g transform="matrix(1.01302,0,0,1.01302,-27.4458,18.3377)">
                                        <circle cx="2307.67" cy="378.626" r="7.404" style="fill:rgb(99,78,69);"/>
                                    </g>
                                    <g transform="matrix(0.675344,0,0,0.675344,751.791,146.189)">
                                        <circle cx="2307.67" cy="378.626" r="7.404" style="fill:rgb(53,47,45);"/>
                                    </g>
                                </g>
                                <g transform="matrix(1,0,0,1,-22.572,-0.0963691)">
                                    <g transform="matrix(1.01302,0,0,1.01302,-27.4458,18.3377)">
                                        <circle cx="2307.67" cy="378.626" r="7.404" style="fill:rgb(99,78,69);"/>
                                    </g>
                                    <g transform="matrix(0.675344,0,0,0.675344,751.791,146.189)">
                                        <circle cx="2307.67" cy="378.626" r="7.404" style="fill:rgb(53,47,45);"/>
                                    </g>
                                </g>
                            </g>
                        </g>
                        <g transform="matrix(0.642105,0,0,1.60809,-532.067,135.652)">
                            <path d="M2356.81,341.047C2356.81,339.137 2355.8,337.587 2354.55,337.587L2328.38,337.587C2327.13,337.587 2326.12,339.137 2326.12,341.047C2326.12,342.956 2327.13,344.506 2328.38,344.506L2354.55,344.506C2355.8,344.506 2356.81,342.956 2356.81,341.047Z" style="fill:rgb(51,42,39);"/>
                        </g>
                        <g transform="matrix(0.354505,0,0,0.231519,107.725,620.746)">
                            <rect x="2308.6" y="311.705" width="8.551" height="72.089" style="fill:rgb(44,44,44);"/>
                        </g>
                        <g transform="matrix(0.700218,0,0,1.60809,-711.885,166.732)">
                            <path d="M2356.81,341.047C2356.81,339.137 2355.88,337.587 2354.74,337.587L2328.19,337.587C2327.05,337.587 2326.12,339.137 2326.12,341.047C2326.12,342.956 2327.05,344.506 2328.19,344.506L2354.74,344.506C2355.88,344.506 2356.81,342.956 2356.81,341.047Z" style="fill:rgb(51,42,39);"/>
                        </g>
                        <g transform="matrix(0.730444,0,0,2.68119,-732.933,-227.101)">
                            <path d="M2286.55,311.917L2253.37,311.917C2263.33,323.246 2263.12,334.299 2253.37,345.095L2286.55,345.095C2291.95,334.807 2292.33,323.803 2286.55,311.917Z" style="fill:rgb(8,57,86);"/>
                        </g>
                    </g>
                </g>
            </g>
        </g>
    </g>
</svg>
