<svg xmlns="http://www.w3.org/2000/svg" viewBox="0 0 100 100"><defs><style>.cls-1{fill:#fbb730;}.cls-2{fill:none;}.cls-3{opacity:0.33;}.cls-4{fill:#fff;}</style></defs><g id="Layer_2" data-name="Layer 2"><g id="tile_color_token_yellow"><g id="tile_color_token_yellow-2" data-name="tile_color_token_yellow"><path class="cls-1" d="M88.07,91.66H5.44l2.1-10.22a151.32,151.32,0,0,0,.54-58L5.44,9.22H88.07v0a134.06,134.06,0,0,1,.25,81.58Z"/><rect class="cls-2" width="100" height="100"/><g class="cls-3"><path class="cls-4" d="M74.05,18.17a20,20,0,0,1,8.64,7.71,27.14,27.14,0,0,1,3,22.32,20.17,20.17,0,0,1-6.24,9.73l-.57-.2a42.94,42.94,0,0,0,1.27-5A45.79,45.79,0,0,0,81,47.71a43.42,43.42,0,0,0-.26-10.19,43.84,43.84,0,0,0-2.48-9.89A47.52,47.52,0,0,0,76.12,23a42.57,42.57,0,0,0-2.56-4.44Z"/></g></g></g></g></svg>