<?xml version="1.0" encoding="UTF-8" standalone="no"?>
<!DOCTYPE svg PUBLIC "-//W3C//DTD SVG 1.1//EN" "http://www.w3.org/Graphics/SVG/1.1/DTD/svg11.dtd">
<svg width="100%" height="100%" viewBox="0 0 101 101" version="1.1" xmlns="http://www.w3.org/2000/svg" xmlns:xlink="http://www.w3.org/1999/xlink" xml:space="preserve" xmlns:serif="http://www.serif.com/" style="fill-rule:evenodd;clip-rule:evenodd;stroke-linejoin:round;stroke-miterlimit:2;">
    <g transform="matrix(1,0,0,1,-2861,-1474)">
        <g transform="matrix(2.69775,0,0,1.44916,4378.24,1772.66)">
            <g id="tile_bg" transform="matrix(0.184443,0,0,0.338383,-1333.19,-880.818)">
                <path d="M4380.78,2045.34C4380.78,2017.2 4358.27,1994.36 4330.54,1994.36L4230.05,1994.36C4202.32,1994.36 4179.81,2017.2 4179.81,2045.34L4179.81,2147.3C4179.81,2175.44 4202.32,2198.28 4230.05,2198.28L4330.54,2198.28C4358.27,2198.28 4380.78,2175.44 4380.78,2147.3L4380.78,2045.34Z" style="fill:rgb(72,56,49);"/>
                <clipPath id="_clip1">
                    <path d="M4380.78,2045.34C4380.78,2017.2 4358.27,1994.36 4330.54,1994.36L4230.05,1994.36C4202.32,1994.36 4179.81,2017.2 4179.81,2045.34L4179.81,2147.3C4179.81,2175.44 4202.32,2198.28 4230.05,2198.28L4330.54,2198.28C4358.27,2198.28 4380.78,2175.44 4380.78,2147.3L4380.78,2045.34Z"/>
                </clipPath>
                <g clip-path="url(#_clip1)">
                    <g transform="matrix(0.466532,0.174895,-0.39504,1.05377,3195.25,-849.942)">
                        <rect x="4168.97" y="1950.52" width="310.817" height="310.817" style="fill:rgb(51,42,39);"/>
                    </g>
                </g>
            </g>
        </g>
    </g>
</svg>
