<svg xmlns="http://www.w3.org/2000/svg" viewBox="0 0 100 100"><defs><style>.cls-1{fill:#2c2c2c;}.cls-2{fill:none;}</style></defs><g id="Layer_2" data-name="Layer 2"><g id="tile_icon_token_skull"><g id="tile_icon_token_skull-2" data-name="tile_icon_token_skull"><path class="cls-1" d="M50.46,12.69h0l-.67.05c-.27,0-.54,0-.81.08-.43.06-.9.15-1.44.28l-.69.14-.39.07-.26,0a4.92,4.92,0,0,0-.88.22,4.56,4.56,0,0,0-.85.38l-.43.27-.35.22-.4.23-.46.27a9.69,9.69,0,0,0-.85.57l-.47.38-.29.24-.41.35-.24.2c-.27.23-.55.44-.82.66l-.31.24-.38.34-.69.66c-.2.18-.39.38-.58.58l-.64.63c-.19.18-.38.38-.57.58l-.12.13c-.13.14-.26.27-.37.41a3.92,3.92,0,0,0-.25.32l-.05.08a4.29,4.29,0,0,0-.31.55l-.21.48-.14.36-.18.47-.17.36c-.07.14-.13.27-.19.41a7.77,7.77,0,0,0-.31.8l-.15.52a13.35,13.35,0,0,1-.45,1.35l-.16.36c-.07.19-.14.38-.2.57s-.13.42-.18.6-.09.39-.13.59l-.06.43c0,.21-.07.43-.11.64l-.15.9,0,.23c0,.12,0,.24-.07.36l0,.21c0,.12,0,.25,0,.37l0,.18c0,.21-.06.42-.07.62s0,.33,0,.5v.24c0,.38,0,.75,0,1.13v.12a4.15,4.15,0,0,0,0,.49c0,.19,0,.38.07.57s0,.25,0,.38v.15l0,.29c0,.28.05.57.06.85a.14.14,0,0,0,0,.12c0,.13,0,.24,0,.35a1.93,1.93,0,0,0,0,.24,1.73,1.73,0,0,0,0,.32,1.1,1.1,0,0,0,0,.18.36.36,0,0,0,0,.11l.09.33,0,.28c.06.27.11.55.17.83a6.34,6.34,0,0,0,.26.81,5.16,5.16,0,0,0,.52,1,2.17,2.17,0,0,0,.23.3,2.1,2.1,0,0,0,.27.24l.46.35,0,0h0l.09.07a3.87,3.87,0,0,0,.53.37,5.83,5.83,0,0,0,.6.32c.2.09.41.16.62.24s.51.18.71.27l.11.05.16.07.3.17a2.41,2.41,0,0,0,.42.16l.29.1.22.13c0,.06,0,.12,0,.18,0,.35,0,.71.05,1.06v.45c0,.19,0,.37,0,.56s.08.5.13.75.12.58.19.86l.11.48c.07.29.12.59.17.88l.08.43c.05.23.09.46.13.69s.09.42.15.63.08.23.13.35l0,.13.06.14c.07.16.13.32.2.47a6.45,6.45,0,0,0,.5.92l.28.35a3.83,3.83,0,0,0,.29.28,2.82,2.82,0,0,0,.62.37,2.91,2.91,0,0,0,.5.16,4.22,4.22,0,0,0,.62.1c.23,0,.46,0,.69,0l.46,0,1.16.12.56.05.64,0,.36,0h.18l.67,0,.28,0,.27,0c.22,0,.43,0,.65,0l.29,0c.33,0,.65,0,1,.06l.27,0,.6.09.49.06.51.06q.42.06.87.09l1,0h.18c.24,0,.48,0,.72,0l.4-.07.32-.06.14,0h0c.32,0,.7,0,1.09-.06h.37c.25,0,.5,0,.75,0a6.22,6.22,0,0,0,1-.17l.51-.12.12,0,.33-.07.46-.06.74-.08.21,0a4.91,4.91,0,0,0,.84-.14,3.25,3.25,0,0,0,.4-.15l.2-.14.18-.14a1.56,1.56,0,0,0,.41-.76c0-.15.06-.21.07-.27l.06-.31c0-.19.06-.37.08-.56.06-.41.11-.77.16-1.14l0-.27,0-.33c0-.27.06-.55.08-.83v-.16c0-.2,0-.41.06-.61l0-.12,0-.16c0-.08,0-.17,0-.25l0-.14c0-.13,0-.26,0-.4s0-.25,0-.38l0-.14c0-.09,0-.18,0-.28s0-.33,0-.49,0-.57,0-.86v-.52c0-.13,0-.26,0-.39a.23.23,0,0,0,.23.18.26.26,0,0,0,.26-.26.26.26,0,0,0-.11-.21c.26-.08.53-.14.81-.21l.35-.08.38-.09.42-.11.24-.07.14,0,.5-.15c.14,0,.27-.1.4-.15l.24-.09.29-.09.32-.1a1.22,1.22,0,0,0,.38-.21l.16-.16.09-.15.08-.18a2,2,0,0,0,.06-.23,1.49,1.49,0,0,0,0-.21,2.87,2.87,0,0,0,0-.31,6.94,6.94,0,0,0,.08-.77c0-.26,0-.52,0-.78a5.84,5.84,0,0,0,0-.74c0-.23,0-.46-.06-.69s0-.54,0-.81c0-.5,0-1,0-1.5,0-.31,0-.62.07-.93l0-.36c0-.44.05-.89.06-1.34s0-.91,0-1.36c0-.24,0-.48,0-.71s0-.46,0-.7l0-.54c0-.25,0-.49,0-.74v-.38L69.75,29c0-.22,0-.44-.07-.66s-.06-.45-.1-.65l-.06-.27c0-.13,0-.26-.08-.39s0-.29-.07-.44l0-.14,0-.27c0-.12,0-.24,0-.37s0-.54-.06-.81,0-.72,0-1.08v-.46a4.07,4.07,0,0,0-.06-.61,2.54,2.54,0,0,0-.19-.62,6.59,6.59,0,0,0-.58-1l-.06-.1-.22-.35L68,20.56c-.09-.16-.2-.31-.3-.46L67.6,20l-.14-.22-.22-.35a3.9,3.9,0,0,0-.42-.56l-.15-.16-.3-.3-.1-.11c-.11-.11-.21-.22-.32-.31s-.39-.3-.59-.43l-.6-.39-.14-.08a4.94,4.94,0,0,0-.49-.3l-.29-.18-.29-.17-.34-.21-.33-.2-.27-.16-.34-.2L62,15.51l-.2-.13-.09-.06a4.6,4.6,0,0,0-.53-.31,7.44,7.44,0,0,0-.91-.41l-.1,0h0a1,1,0,0,0-.2-.11l-.12-.06-.21-.1a5.68,5.68,0,0,0-.71-.18l-.24-.06-.76-.2a7.24,7.24,0,0,1-.79-.25l-.4-.19-.38-.16a4.3,4.3,0,0,0-.62-.2L55.48,13,55,13l-.69-.08-.75,0h-.26c-.42,0-.84,0-1.27-.05l-.24,0-.12,0-.39,0c-.26,0-.53,0-.79,0ZM38.74,25h0c.19-.24.39-.48.6-.7a3.64,3.64,0,0,1,.34-.34l.18-.16.17-.16a2.47,2.47,0,0,0,.28-.28l.24-.25.17-.18.09-.09a5.67,5.67,0,0,1,.5-.48,3.33,3.33,0,0,1,.54-.35l.12,0a.48.48,0,0,1,.18,0l.09.09h0l0,.16h0v.07s0,0,0,0-.19.3-.3.45l-.3.35-.19.21a4.65,4.65,0,0,1-.67.65c-.17.14-.34.3-.5.45a4.54,4.54,0,0,1-.38.34l-.31.27-.3.31a4.12,4.12,0,0,0-.28.31,4.57,4.57,0,0,0-.51.76,5.89,5.89,0,0,0-.34.66l-.06.12a1.67,1.67,0,0,0-.08.2,1.76,1.76,0,0,0-.09.2.9.9,0,0,1-.1.2s-.07,0-.07,0l0,0h0l-.13-.06h0c.08-.32.17-.64.27-.95s.18-.64.3-1a4.92,4.92,0,0,1,.23-.46c.08-.14.18-.26.27-.39a.33.33,0,0,1,0-.06s0,0,0,0h0ZM56.4,30.21v0c0-.31-.06-.6-.08-.91s0-.64,0-1a2.84,2.84,0,0,1,.17-.67,2.39,2.39,0,0,1,.12-.22,1.37,1.37,0,0,1,.17-.17,1,1,0,0,1,.17-.1l.19-.09.12-.06.28-.16.31-.18.11,0,.12,0h.25l.35,0,.27,0,.22.08a3,3,0,0,1,.31.15l.24.12.7.34c.19.1.38.2.56.31s.3.18.44.28l.16.13a2.52,2.52,0,0,1,.21.25l.1.14c.11.14.22.29.34.42l.1.09.1.1.14.15.07.08h0a2.12,2.12,0,0,0,.2.34,5.74,5.74,0,0,0,.35.47,3.62,3.62,0,0,1,.29.43l.09.17.05.11.14.3c0,.15.1.29.14.45a3,3,0,0,1,.13.64,3.53,3.53,0,0,1,0,.66l-.06.24-.08.13-.08.08a.94.94,0,0,1-.22.12l-.51.15-.24,0-.25,0-.25.06-.25.06-.47.07a11,11,0,0,1-1.28.07h-.6a5.08,5.08,0,0,1-.68,0,2.32,2.32,0,0,1-.45-.13,3,3,0,0,1-.31-.15L58,33.43c-.08,0-.16-.12-.24-.18s-.05-.1,0-.14a.26.26,0,0,0,0-.21.23.23,0,0,0-.16-.11l-.2-.06-.19-.12a1.87,1.87,0,0,1-.22-.31l-.07-.15a3.16,3.16,0,0,1-.16-.46,2.46,2.46,0,0,1-.07-.29l0-.15,0-.18-.07-.3c0-.16-.06-.31-.09-.47v-.08h0v0ZM46.86,26.7h0l.33,0h0c.16,0,.28,0,.4,0l.22,0,.18.07.17.09.11.06h0a3.69,3.69,0,0,1,.28.27,1.88,1.88,0,0,1,.14.24,2.74,2.74,0,0,1,.09.39c0,.33,0,.64.06.95v.35c0,.48,0,1,.08,1.43v.21a.38.38,0,0,0,.1.21l.06.41,0,.14a2.61,2.61,0,0,1,0,.34,1.59,1.59,0,0,1,0,.38,3.62,3.62,0,0,1-.14.57,3.18,3.18,0,0,1-.23.4,5.27,5.27,0,0,1-.45.48A3.3,3.3,0,0,1,48,34l-.45.24a5.09,5.09,0,0,1-1.09.29l-.39,0-.27,0h-.11l-.13,0c-.35,0-.69-.09-1-.12l-.61-.06-.54-.05-.16,0-.13,0a2.88,2.88,0,0,1-.4-.09l-.34-.19a2.28,2.28,0,0,1-.22-.21,3.29,3.29,0,0,1-.29-.49,1.56,1.56,0,0,1-.1-.37c0-.08,0-.16,0-.24s0-.2,0-.3a2,2,0,0,1,.06-.34,2.27,2.27,0,0,1,.06-.25c.1-.34.19-.6.29-.85a4.38,4.38,0,0,1,.4-.7c.13-.19.27-.38.41-.56l.21-.28.15-.19.1-.14.27-.37c.11-.15.2-.24.28-.34s.13-.14.2-.2a6,6,0,0,1,.53-.48c.09-.06.19-.14.3-.2l.16-.08.64-.29.47-.19.36-.11a2.61,2.61,0,0,1,.27-.06h0Zm5.56,5.14h0l.11-.09a1.51,1.51,0,0,1,.19.3,2.18,2.18,0,0,1,.09.23.31.31,0,0,0,.12.15.33.33,0,0,0,.14,0l.12.46a3.83,3.83,0,0,0,.24.59l.11.25c.07.19.14.38.2.58s.13.53.19.8a5.8,5.8,0,0,0,.17.72c.07.22.15.43.24.65l.24.58.07.16.19.46.19.46c.06.15.11.3.16.45a3.9,3.9,0,0,1,.14.59,3.4,3.4,0,0,1,0,.64c0,.13-.05.26-.09.39a3.19,3.19,0,0,1-.11.33.68.68,0,0,1-.09.17l-.09.09h0l-.15,0h-.27l-.32-.08a1,1,0,0,1-.18-.1,2.62,2.62,0,0,1-.22-.25,6.07,6.07,0,0,1-.4-.58l-.1-.17-.15-.21a1.79,1.79,0,0,0-.26-.28,1,1,0,0,0-.59-.31h0a1.11,1.11,0,0,0-.72.27,4,4,0,0,0-.43.39,3.92,3.92,0,0,0-.39.5l-.09.15c-.1.16-.2.31-.31.46a1.65,1.65,0,0,1-.22.24l-.09,0a.49.49,0,0,1-.09-.15,2,2,0,0,1-.07-.26A5.19,5.19,0,0,1,50,39.4c0-.25.11-.54.18-.82s.16-.59.25-.88l.18-.59.09-.27.21-.73c.1-.32.18-.64.26-1s.12-.47.19-.7l.08-.29c.06-.22.12-.45.19-.67s.19-.51.3-.76l.05-.12a3.45,3.45,0,0,1,.36-.65.78.78,0,0,1,.15-.16h0l0,0Zm-15,2.5h0c0-.29.09-.58.14-.87v0c0,.14,0,.29,0,.43s0,.5,0,.74v.19c0,.35,0,.7,0,1.05V36c0,.09,0,.18,0,.27a2.45,2.45,0,0,1,0,.27v.14l0,.92V38c0,.15,0,.31,0,.46l0,.45,0,.46v.26c0,.19,0,.39,0,.58a1.42,1.42,0,0,1,0,.22.71.71,0,0,1-.08.15,1.7,1.7,0,0,1-.19.19l-.11.06h0l-.11,0-.17,0-.42,0h-.17l-.42-.09-.42-.13a2.66,2.66,0,0,1-.45-.25l-.14-.13-.12-.15-.08-.1s0,0,0,0h0l.39,0h.13a2.23,2.23,0,0,0,.41-.06,1.11,1.11,0,0,0,.35-.14.62.62,0,0,0,.16-.1,1.21,1.21,0,0,0,.22-.23l.13-.21a4.77,4.77,0,0,0,.38-.89c.1-.32.2-.64.27-1s.11-.57.16-.85l0-.17c0-.14,0-.28.05-.42l0-.18.07-.54.05-.4,0-.21,0-.39Zm7.39,14.29h.23l.11-.06a.22.22,0,0,0,.1-.09.47.47,0,0,0,.08-.14,1.55,1.55,0,0,0,.08-.23,1.17,1.17,0,0,0,0-.2c0-.13.06-.26.08-.4a7.4,7.4,0,0,1,.38-1.36,2.39,2.39,0,0,1,.13-.21l.06-.08.06-.07a.75.75,0,0,1,.14-.12,2.55,2.55,0,0,1,.39-.24l.13,0,.07.09.07.18a3.4,3.4,0,0,1,.07.34c0,.3.07.66.09,1v.17c0,.11,0,.22,0,.34l0,.26a.77.77,0,0,0,.08.28l.07.11.11.09a2.67,2.67,0,0,0,.36.14,2.64,2.64,0,0,0,.53.11h.2a4.4,4.4,0,0,0,.51-.05l.14,0,.52-.07.43,0h.19l.17,0a.21.21,0,0,0,.11-.07.41.41,0,0,0,.1-.09l0-.09a.74.74,0,0,0,.07-.21,1.09,1.09,0,0,0,0-.26c0-.15,0-.28,0-.42l0-.29,0-.37a2.63,2.63,0,0,1,.09-.44,1,1,0,0,1,.08-.11l.09-.11h0a.31.31,0,0,1,.16-.06.36.36,0,0,1,.14.11c0,.15.07.25.09.34s0,.08,0,.12l0,.13a4.29,4.29,0,0,1,0,.49v.43c0,.13,0,.26,0,.38a1.44,1.44,0,0,0,.07.35.43.43,0,0,0,.35.26h.11l.21,0c.43,0,.78,0,1.13,0H55l.16,0a.38.38,0,0,0,.2-.1.63.63,0,0,0,.15-.33,3.84,3.84,0,0,0,.06-.55c0-.32,0-.63.06-.93a1.89,1.89,0,0,1,.12-.46,1,1,0,0,1,.1-.17l.08-.08.1-.06a.36.36,0,0,1,.17.25l0,.12,0,.12a10.45,10.45,0,0,1,.05,1.25v.38a.65.65,0,0,0,.11.39.7.7,0,0,0,.41.18,4.28,4.28,0,0,0,.49.05H59a1.53,1.53,0,0,0,.3,0,.49.49,0,0,0,.19-.07c.07,0,.11-.1.16-.16a1.32,1.32,0,0,0,.08-.19,1.21,1.21,0,0,0,0-.18,2.38,2.38,0,0,0,0-.26c0-.15,0-.3,0-.44l0-.37a4.42,4.42,0,0,1,.23-.92,1.19,1.19,0,0,1,.12-.22c.1,0,.12.1.14.18s0,.17,0,.25v4.21a12.63,12.63,0,0,1-.06,1.3,2.15,2.15,0,0,1-.12.52c0-.06,0-.13-.08-.2s-.07-.19-.1-.29a2.33,2.33,0,0,1-.08-.38c0-.21-.05-.43-.07-.64s0-.43-.05-.64a2.34,2.34,0,0,0-.07-.45.72.72,0,0,0-.38-.45,1.39,1.39,0,0,0-.35-.09l-.37,0h-.1a4.36,4.36,0,0,0-.51,0l-.17,0-.32,0-.13,0-.22,0a.82.82,0,0,0-.18,0,.47.47,0,0,0-.21.23,2.42,2.42,0,0,0-.13.65c0,.29,0,.53-.05.76s0,.47,0,.7a2.44,2.44,0,0,1-.14.55,1.93,1.93,0,0,1-.19.34,1.73,1.73,0,0,1-.27-.68L56,51.28l-.07-.35,0-.13a4.94,4.94,0,0,1-.1-.53c0-.18,0-.35-.08-.53l0-.1h0a.88.88,0,0,0-.27-.65,1.1,1.1,0,0,0-.54-.13h-.54a8.76,8.76,0,0,0-1,.08l-.13,0-.35.06-.35.06-.54,0-.16,0a.44.44,0,0,0-.2.15,1.28,1.28,0,0,0-.21.5c0,.12-.06.24-.08.36a2,2,0,0,0,0,.24l0,.11,0,.32c0,.14,0,.28,0,.42l-.06.34a1.72,1.72,0,0,1-.07.21A1.19,1.19,0,0,1,51,52a1.06,1.06,0,0,1-.15.15V52c0-.47,0-1,0-1.42v-.7a1.73,1.73,0,0,0,0-.32.33.33,0,0,0,0-.15.47.47,0,0,0-.11-.21,1.17,1.17,0,0,0-.51-.26l-.56-.1h-.18a4,4,0,0,0-.59.07l-.27.05H48.3L48,49l-.18,0h0a.57.57,0,0,0-.24.07.25.25,0,0,0-.12.08.39.39,0,0,0-.1.18,2.41,2.41,0,0,0-.12.65l-.09,1a5.62,5.62,0,0,1-.16.71,4.6,4.6,0,0,1-.19.52c0-.14,0-.28,0-.42s0-.41-.07-.61c0-.36-.06-.72-.07-1.08a3.4,3.4,0,0,0,0-.45.84.84,0,0,0-.08-.29.93.93,0,0,0-.16-.18.68.68,0,0,0-.24-.14l-.18,0a5.16,5.16,0,0,0-.55-.09c-.3,0-.61,0-.91,0a2.23,2.23,0,0,0-.37,0,1.3,1.3,0,0,0-.37.06.67.67,0,0,0-.22.13l-.07.1a1.63,1.63,0,0,0-.09.23,1.75,1.75,0,0,0-.05.33c0,.17,0,.25,0,.33v.12c0,.14,0,.27,0,.41a5.53,5.53,0,0,1,0,.71,2,2,0,0,1-.07.35c0-.11,0-.17,0-.24a.23.23,0,0,0-.07-.17.25.25,0,0,0-.19-.09l0-.09,0-.11c0-.12,0-.24-.06-.37,0-.34-.07-.66-.08-1s0-.7,0-1.05c0-.09,0-.18,0-.26V48.1c0-.18,0-.37,0-.55s0-.6.05-.9A3.14,3.14,0,0,1,43,46a.71.71,0,0,1,.11-.21l.08-.07h0l.07.1a3.32,3.32,0,0,1,.13.61,2,2,0,0,1,0,.35c0,.11,0,.22,0,.34s0,.24,0,.32v.12a2.11,2.11,0,0,0,0,.35.55.55,0,0,0,.15.35,1.13,1.13,0,0,0,.26.2,1.76,1.76,0,0,0,.66.18l.34,0Z"/><path class="cls-1" d="M28.67,52.66h-.05a2.55,2.55,0,0,0-.59.08,1.18,1.18,0,0,0-.43.19l-.21.17a2.9,2.9,0,0,0-.73.9,2.37,2.37,0,0,0-.17.36,3.88,3.88,0,0,0-.14.45l-.07.27c0,.12-.05.23-.09.35s-.09.29-.14.44L26,56l-.27.64a1.94,1.94,0,0,1-.22.36,1.61,1.61,0,0,1-.22.23,3.87,3.87,0,0,1-.58.33l-.44.13-.19.05-.14,0-.37.16-.15.06c-.17.07-.35.12-.53.18l-.11,0a1.92,1.92,0,0,0-.31.11l-.3.16-.25.16-.17.11-.18.13a.57.57,0,0,0-.1.13.89.89,0,0,0-.1.26,1,1,0,0,0,0,.25c0,.11,0,.22,0,.33s0,.23,0,.35,0,.19,0,.26l0,.12a2.73,2.73,0,0,0,.1.41l.06.14a3,3,0,0,0,.28.45,1.12,1.12,0,0,0,.21.22,1.49,1.49,0,0,0,.2.15l.16.09.19.12a2.55,2.55,0,0,0,.57.26,3.84,3.84,0,0,0,.64.1h.72l.32,0,.33,0H26c.44,0,.89,0,1.33.1l.32,0a1.81,1.81,0,0,1,.32.08l.13.06.56.28.13.09.18.11.31.18a3.54,3.54,0,0,0,.45.34l.2.1.22.09a4.64,4.64,0,0,1,.64.33l.37.2.11.06.11,0,.13.07.4.2a3.25,3.25,0,0,0,.43.18l.24.09c.33.14.67.31,1,.48l.42.21.3.14.43.2.25.15.09,0,.23.15.13.09a7.88,7.88,0,0,0,.76.4c.22.11.44.22.65.34l.39.23.24.15.27.16.28.2.2.15.68.56.29.22.19.14.18.12.11.08.19.11.1,0c.18.1.36.21.54.3l.34.19.23.13c.33.19.66.38,1,.54l1,.46.27.13.27.12.47.22.65.37.26.16a6.28,6.28,0,0,0,.57.31l.55.23a5,5,0,0,1,.67.39l-.18,0-.17.1-.65.41-1.07.75-.38.29-.13.1-.5.42a10,10,0,0,1-1.08.66c-.43.25-.87.48-1.32.72s-.64.36-1,.54l-.24.14-.68.38-.19.09-.19.1-.14.07-.18.06-.69.3-.31.14-.35.16-.52.19-.41.15-1,.41-.14.06-.15.07-.23.11-.1.07-.15.06-.2.11-.41.24-.21.12-.35.18-.13.06-.1,0a1.93,1.93,0,0,1-.32.12l-.55.19a4.88,4.88,0,0,1-.93.22l-.72.06h-.22c-.23,0-.45,0-.67,0a.78.78,0,0,1-.21,0l-.25-.05L29,80.7l-.1,0a1.25,1.25,0,0,1-.34-.19l-.39-.23L27.72,80l-.33-.1-.15,0a2.63,2.63,0,0,0-.47-.06h-.14a4.19,4.19,0,0,0-.5,0,3.5,3.5,0,0,0-.82.16l-.21.11a1.33,1.33,0,0,0-.22.15,3.91,3.91,0,0,0-.4.37,5.11,5.11,0,0,0-.59.75,2.35,2.35,0,0,0-.32.7,3.06,3.06,0,0,0-.05.32v.16a.61.61,0,0,0,0,.27,1,1,0,0,0,0,.24,1.87,1.87,0,0,0,.28.7,2.21,2.21,0,0,0,.28.32l.22.21.12.12.25.22a2.78,2.78,0,0,0,.41.29c.14.09.28.18.43.26a1.54,1.54,0,0,0,.55.16.17.17,0,0,0,.14,0,.38.38,0,0,0,.16,0l.25,0-.09.09,0,.14,0,.14-.06.21,0,.18,0,.17a5.16,5.16,0,0,0-.1.67,5.78,5.78,0,0,0-.05.71,5.27,5.27,0,0,0,0,.56l0,.12a3.4,3.4,0,0,0,.17.7,4.51,4.51,0,0,0,.26.64,2.32,2.32,0,0,0,.4.52,1.62,1.62,0,0,0,.44.36,1.72,1.72,0,0,0,.54.18l.31,0h.11l.26,0a2.33,2.33,0,0,0,.89-.29,4.69,4.69,0,0,0,1-.73,2.39,2.39,0,0,0,.23-.22l.13-.14.09-.09.44-.57a4.66,4.66,0,0,0,.3-.47L32,88l.16-.34.12-.33,0-.11.09-.28c.06-.2.13-.4.2-.59s0-.1.08-.16l.13-.1a4.5,4.5,0,0,1,.45-.31,3.29,3.29,0,0,1,.42-.21l.55-.23c.35-.13.62-.24.89-.37a2.88,2.88,0,0,0,.38-.22l.13-.08a3.9,3.9,0,0,1,.35-.19l.46-.23c.29-.14.52-.25.75-.38s.52-.33.76-.5a3.39,3.39,0,0,1,.34-.23,2.28,2.28,0,0,1,.3-.17c.4-.2.69-.33,1-.45s.82-.34,1.24-.54A13.37,13.37,0,0,0,42,81.33l.29-.18.32-.2.43-.24.23-.13a1.19,1.19,0,0,0,.15-.09l.38-.25.09-.07.64-.46.45-.3.15-.09.63-.39c.49-.29,1-.59,1.46-.9l.48-.33.18-.12.24-.16.13-.09.22-.15.12-.07.16-.1.18-.11.16-.1.8-.43.21-.11.21-.12a.6.6,0,0,0,.15-.09l.25-.14.46-.3.13-.1.13-.09a2.74,2.74,0,0,0,.42.21l.25.11.15.06.41.17.53.18.17,0,.55.17.21.09.22.07.89.34a3.26,3.26,0,0,1,.38.18l.17.09.59.35.58.34c.27.15.56.28.84.41l.51.24.51.23c.33.16.67.29,1,.42l.31.11.1,0,.37.13.12,0c.33.11.67.2,1,.3l.5.15.41.15.7.32c.32.15.63.3,1,.43s.48.21.74.36l.43.28.45.27.36.19.57.27c.32.14.63.28.93.44l.44.24.43.23.18.09.11.06.4.23.3.2.11.07.21.14.17.11.31.21.09.06.08.06c.18.12.32.21.46.32s.16.14.23.22l.07.08.14.17.12.14.17.21.25.3a2.32,2.32,0,0,1,.19.31l.17.29.21.39.09.19.07.16.1.22a5.76,5.76,0,0,0,.8,1.24,4.32,4.32,0,0,0,.42.44,8.48,8.48,0,0,0,1.24,1,2.69,2.69,0,0,0,.5.28,1.42,1.42,0,0,0,.29.1,1.51,1.51,0,0,0,.44.06h.24a4,4,0,0,0,.68-.16,1,1,0,0,0,.24-.1.66.66,0,0,0,.17-.1l.3-.19.11-.08.12-.07.28-.21a2.68,2.68,0,0,0,.3-.28.93.93,0,0,0,.19-.22,1.64,1.64,0,0,0,.14-.22l0-.12a1.34,1.34,0,0,0,.06-.12c.09-.22.14-.31.18-.39l.07-.13.07-.13c.06-.12.11-.25.17-.38a1.16,1.16,0,0,0,.09-.38,1.22,1.22,0,0,0,0-.27c0-.13,0-.26,0-.38s0-.46-.05-.69l0-.37,0-.37a6.11,6.11,0,0,1,0-.74,2,2,0,0,1,0-.24,1.07,1.07,0,0,1,.09-.27.82.82,0,0,1,.09-.19.76.76,0,0,1,.11-.16l.09-.12a2.89,2.89,0,0,1,.29-.32l.15-.1.12-.07.54-.22.17-.06.1,0,.19,0,.26-.06c.16,0,.31,0,.46-.09a1.6,1.6,0,0,0,.61-.29,3,3,0,0,0,.35-.3,1.48,1.48,0,0,0,.21-.29,1.19,1.19,0,0,0,.13-.32,2.15,2.15,0,0,0,.07-.62,1.65,1.65,0,0,0,0-.21l0-.15-.05-.1-.12-.21-.14-.17-.12-.1a3.26,3.26,0,0,0-.39-.32,2.67,2.67,0,0,0-.41-.21c-.19-.08-.4-.15-.61-.22a5.47,5.47,0,0,0-.58-.15l-.32,0a3.71,3.71,0,0,0-.47,0,3.33,3.33,0,0,0-.48,0l-.24,0c-.2,0-.4,0-.59.06l-.62.1a5.41,5.41,0,0,1-.55.12l-.37,0-.45.05-.59.08-.16,0-.17,0-.16,0-.51.09-.2,0-.5.09-.4,0a4.71,4.71,0,0,1-.53,0l-.91-.12-.36,0-.69-.08-.65-.13a2.16,2.16,0,0,1-.43-.14l-.1,0c-.38-.13-.76-.27-1.13-.43a5.28,5.28,0,0,1-.5-.27L69.12,78l-.1-.07-.1-.07c-.23-.18-.48-.34-.73-.5l-.39-.25L67.64,77l-.21-.14-.12-.09-.16-.1c-.29-.19-.58-.38-.88-.56l-.34-.21c-.42-.26-.85-.5-1.28-.74l-.17-.09c-.38-.21-.77-.42-1.13-.66s-.59-.4-.88-.61l-.26-.2c-.25-.18-.52-.35-.79-.51l-.5-.31c-.38-.24-.72-.45-1.05-.69l-.54-.36-.49-.32-.09,0a6.11,6.11,0,0,0-1-.57h0a.68.68,0,0,0,.3-.12l.26-.14.23-.12.09-.06c.35-.19.69-.37,1-.59l.58-.4.35-.24L60.8,69l.38-.26.24-.14.13-.07.35-.21.24-.15.24-.15.29-.18.29-.18.46-.25.5-.25.22-.1.29-.13.44-.21.34-.2.09-.06.19-.11.09,0,.18-.11.1-.07.35-.22c.39-.23.8-.45,1.2-.67s.56-.33.84-.51l.29-.18c.41-.23.57-.31.74-.39a3.7,3.7,0,0,1,.68-.21,9.29,9.29,0,0,1,1.06,0h.29c.48,0,1,0,1.45,0l.58-.05h.15l.24,0h.12l.37,0,.15,0,.14,0,.47-.08.73-.14A10.29,10.29,0,0,0,77.14,63a4.39,4.39,0,0,0,.63-.26l.33-.16.18-.11a2.16,2.16,0,0,0,.22-.16l.18-.16.15-.14a1,1,0,0,0,.17-.2l.07-.11a1.22,1.22,0,0,0,.07-.17,1.77,1.77,0,0,0,0-.2,1.11,1.11,0,0,0,0-.23,1,1,0,0,0-.2-.76,3.88,3.88,0,0,0-.5-.46l-.28-.2-.16-.09-.09,0-.43-.24-.31-.17L77.07,59l-.15-.09-.56-.3-.65-.34a4.54,4.54,0,0,0-.45-.21,6.09,6.09,0,0,1-.57-.28,5.64,5.64,0,0,1-.67-.4l-.12-.11a3.91,3.91,0,0,1-.2-.41c-.08-.19-.19-.43-.31-.66s-.25-.52-.36-.79a9.78,9.78,0,0,0-.42-.89l-.08-.13a3,3,0,0,0-.15-.27,1.93,1.93,0,0,0-.27-.31,1.18,1.18,0,0,0-.48-.27,1.42,1.42,0,0,0-.46-.06,1.76,1.76,0,0,0-.38,0l-.33.07-.25.1-.27.13a7.51,7.51,0,0,0-.75.42,2.3,2.3,0,0,0-.43.37,1.86,1.86,0,0,0-.18.28,2.32,2.32,0,0,0-.19.6,2.64,2.64,0,0,0-.08.72v.6c0,.18,0,.36,0,.54v.18c0,.23,0,.46,0,.69a4.9,4.9,0,0,1-.07.67V59a5.15,5.15,0,0,1-.11.59,2.61,2.61,0,0,1-.17.28,2.33,2.33,0,0,1-.68.38l-.7.27-.44.17a5.11,5.11,0,0,0-1,.49l-.32.19-.19.13-.28.18-.28.18-.15.1-.43.27-.44.29-.17.12-.21.15a4,4,0,0,1-.34.23l-.37.23-.24.15-.31.2-.17.11L61,63.9l-.1.06-.17.13a4.7,4.7,0,0,0-.44.34l-.22.18-.08.07c-.12.09-.23.19-.34.29l-.41.36-.2.17a4.55,4.55,0,0,1-.58.49l-.13.09-.17.11-.24.15-.25.15-.12.08-.16.09-.21.12-.72.43-.31.18-.15.1-.17.11-.17.11-.17.11-.21.12-.17.1-.32.17-.32.18-.92.53-.08-.07a5.23,5.23,0,0,0-.51-.22c-.37-.12-.73-.26-1.09-.41l-.11,0-.86-.37-.69-.3-.48-.18-.28-.11-.11,0-.25-.1L49,67,48.83,67l-.2-.1-.35-.13-.12-.05-.1,0-.1,0-.2-.08-.4-.19-.63-.28q-.48-.21-1-.39l-.22-.09a5.65,5.65,0,0,1-.66-.31l-.34-.18L44.42,65,44.33,65l-.27-.15a7.1,7.1,0,0,0-.88-.42L43,64.35l-.3-.11-.34-.13c-.35-.15-.56-.26-.77-.36a2.07,2.07,0,0,0-.34-.15L41,63.49l-.31-.14-.33-.16-.79-.34c-.29-.13-.62-.3-1-.48l-.5-.27L38,62l-.1,0-.36-.17-.29-.15-.36-.18c-.33-.16-.59-.29-.84-.43l-.6-.37-.29-.18-.47-.29-.47-.29-.82-.55c-.23-.18-.44-.38-.65-.58l-.15-.15a4.3,4.3,0,0,1-.39-.41,4.41,4.41,0,0,1-.49-.83,3.65,3.65,0,0,1-.15-.5,4,4,0,0,1-.1-.5l0-.14,0-.36,0-.26c0-.17-.06-.33-.09-.48l0-.14a3.42,3.42,0,0,0-.19-.59,4,4,0,0,0-.33-.55,4.45,4.45,0,0,0-.41-.47l-.1-.1a2.11,2.11,0,0,0-.23-.19L29.76,53l-.5-.23a2.68,2.68,0,0,0-.35-.1l-.24,0Z"/><rect class="cls-2" width="100" height="100"/></g></g></g></svg>