<svg xmlns="http://www.w3.org/2000/svg" viewBox="0 0 100 100"><defs><style>.cls-1{fill:#3f3f3f;}.cls-2{fill:#fff;}.cls-3,.cls-4{fill:none;}.cls-3{stroke:#3f3f3f;stroke-miterlimit:10;stroke-width:2px;}</style></defs><g id="Layer_2" data-name="Layer 2"><g id="tile_rumbottle"><g id="tile_rumbottle-2" data-name="tile_rumbottle"><path class="cls-1" d="M58.86,85.63H45.53c-6.6,0-13-.36-13-6.28l-6-32.48c0-5.92,5.4-10.76,12-10.76H66.86c6.6,0,12,4.84,12,10.76l-7,32.48C71.86,85.27,65.46,85.63,58.86,85.63Z"/><rect class="cls-1" x="46.75" y="18.92" width="11.89" height="23.51"/><rect class="cls-1" x="44.81" y="16.13" width="15.68" height="5.97"/><polygon class="cls-1" points="56.44 22.09 48.95 22.09 47.27 7.27 58.11 7.27 56.44 22.09"/><ellipse class="cls-2" cx="52.18" cy="61.92" rx="19.84" ry="8.59"/><line class="cls-3" x1="39" y1="58.65" x2="45.53" y2="65.19"/><line class="cls-3" x1="39" y1="65.19" x2="45.53" y2="58.65"/><line class="cls-3" x1="48.92" y1="58.65" x2="55.45" y2="65.19"/><line class="cls-3" x1="48.92" y1="65.19" x2="55.45" y2="58.65"/><line class="cls-3" x1="58.84" y1="58.65" x2="65.37" y2="65.19"/><line class="cls-3" x1="58.84" y1="65.19" x2="65.37" y2="58.65"/><rect class="cls-4" width="100" height="100"/></g></g></g></svg>