<svg xmlns="http://www.w3.org/2000/svg" viewBox="0 0 100 100"><defs><style>.cls-1{fill:#2c2c2c;}.cls-2{fill:none;}</style></defs><g id="Layer_2" data-name="Layer 2"><g id="tile_icon_token_demon"><g id="tile_icon_token_demon-2" data-name="tile_icon_token_demon"><path class="cls-1" d="M47.67,8.36a.8.8,0,0,0-.3.16l-.21.13-.2.13q-.23.15-.45.33a3.48,3.48,0,0,0-.73.94,3.54,3.54,0,0,0-.29.65,5.7,5.7,0,0,0-.16.55,6.35,6.35,0,0,0-.18,1.54,2.89,2.89,0,0,0,.09.68,4,4,0,0,0,.25.73,2.28,2.28,0,0,0,.5.72l.2.14.25.19a.39.39,0,0,1,.1.08l0,.13,0,.13v.54q0,.27,0,.51v.14c0,.22,0,.43,0,.64,0,.44,0,.89,0,1.34,0,.23,0,.46-.06.68l0,.28,0,.29,0,.14c0,.21-.07.43-.1.65a1.61,1.61,0,0,0,0,.31,1,1,0,0,0,.09.33,1,1,0,0,0,.14.22l.14.11.13.08.12.08.11.07a4.68,4.68,0,0,1,.4.27l.19.13.29.2.28.18.2.12a4.38,4.38,0,0,0,.92.45l0,.12c0,.12,0,.21,0,.31V24A10.86,10.86,0,0,1,49,25.2l0,.16H48.6l-.67,0-.34,0-.64,0h-.16a.73.73,0,0,1-.22-.2,2,2,0,0,1-.24-.37,2.84,2.84,0,0,0-.26-.45,1,1,0,0,0-.34-.32.88.88,0,0,0-.46-.12,1.42,1.42,0,0,0-.77.26,1.33,1.33,0,0,0-.4.43l-.27.41c-.1.15-.18.3-.27.46l-.09.16a2.47,2.47,0,0,1-.21.36l-.09.08a1.78,1.78,0,0,1-.45.26l-.76.34a5.26,5.26,0,0,0-.47.27c-.27.18-.44.27-.6.36l-.12.07-.35.2-.31.18-.39.19a1.77,1.77,0,0,0-.3.14,1.68,1.68,0,0,0-.37.21l-.25.15a2.32,2.32,0,0,1-.41.22l-.15.07a.65.65,0,0,0-.16.09L37.9,29l-.2.1h-.2a1.67,1.67,0,0,1-.24-.16c-.15-.13-.25-.21-.34-.3l-.33-.29-.31-.27-.1-.08a3.9,3.9,0,0,1-.5-.49l-.11-.16-.32-.45c-.11-.15-.25-.31-.39-.47l-.11-.14-.11-.13a2.62,2.62,0,0,0-.22-.25l-.26-.27-.52-.46c-.2-.18-.41-.34-.61-.51a8.92,8.92,0,0,1-1.16-1.1,6.53,6.53,0,0,0-.6-.59c-.14-.11-.29-.21-.44-.31l-.25-.17a2.25,2.25,0,0,1,.07-.4c0-.14.07-.27.1-.42A4.18,4.18,0,0,0,30.8,21a2.32,2.32,0,0,0,0-.24,4.41,4.41,0,0,0-.09-.52,3.08,3.08,0,0,0-.21-.53,1.51,1.51,0,0,0-.11-.22,1.24,1.24,0,0,0-.3-.31,2.26,2.26,0,0,0-.56-.28l-.14-.05-.11,0a2.24,2.24,0,0,0-.35-.1h-.22l-.63.11a2.5,2.5,0,0,0-.59.23l-.18.12-.14.09-.37.26a2.6,2.6,0,0,0-.36.3,2.31,2.31,0,0,0-.31.39,4.24,4.24,0,0,0-.5,1,4.33,4.33,0,0,0-.22.87,8.08,8.08,0,0,0-.1.86q0,.39,0,.78a3.62,3.62,0,0,0,.2,1.15c.11.3.4.48.88.54h.78l.3,0,.57,0,.48,0a.16.16,0,0,0,0,.22.21.21,0,0,0,.17.13.61.61,0,0,0,.14.07,2.73,2.73,0,0,1,.42.22,4.64,4.64,0,0,1,.93,1.26l.18.37.07.17c.12.24.24.48.37.72s.41.75.63,1.12a8.6,8.6,0,0,0,.49.74l.23.32A6.48,6.48,0,0,1,32.79,32l.08.18c.06.11.11.23.18.35a1.86,1.86,0,0,0,.13.23l.1.16.09.15.22.34c.16.24.31.48.45.73l.13.23,0,.09.14.24c.08.14.19.28.29.42l.15.21.12.14a2.65,2.65,0,0,0,.33.41c.11.09.25.18.37.26a2.2,2.2,0,0,0,.38.19.55.55,0,0,0,.18,0h.12a1.94,1.94,0,0,0,.59-.15l.86-.33.36-.13.58-.22.36-.14.15-.07,1.14-.42.39-.14.22-.09.61-.23.54-.2.17-.07.34-.12a2.91,2.91,0,0,1,.39-.12l.12,0,.18,0,.44-.13.23-.08.11,0,.22-.07.34-.1,0,.15V34c0,.17,0,.35,0,.52v.2c0,.19,0,.37,0,.56V37c0,.17,0,.35,0,.53,0,.45.09.91.14,1.35A9.52,9.52,0,0,0,45,40c.07.32.15.62.23.93a7.91,7.91,0,0,0,.29,1c.12.3.25.6.39.89s.23.44.35.65a7,7,0,0,0,.39.62c.13.16.26.32.4.47l.32.37a2.2,2.2,0,0,1,.23.4,2.47,2.47,0,0,1,.13.52,2.35,2.35,0,0,1,0,.27l-.21.07a2.36,2.36,0,0,1-.42-.1,2.2,2.2,0,0,1-.4-.23l-.48-.45a2.7,2.7,0,0,1-.35-.38l-.14-.18a3.79,3.79,0,0,0-.46-.58,5.37,5.37,0,0,0-.72-.66,3.13,3.13,0,0,0-.7-.37L43.44,43a4.93,4.93,0,0,0-1-.36,5.72,5.72,0,0,0-.68-.12,4.46,4.46,0,0,0-.63-.05H41a4.18,4.18,0,0,0-1.37.34,2.62,2.62,0,0,0-.51.3,1.54,1.54,0,0,0-.36.37,2.31,2.31,0,0,0-.26.69c0,.26-.06.34-.07.43a2,2,0,0,0,0,.44c0,.12,0,.23.07.35.08.31.14.53.22.75a2.65,2.65,0,0,0,.11.3,2.06,2.06,0,0,0,.12.26,1.72,1.72,0,0,0,.29.45,2.81,2.81,0,0,0,.34.35,2.15,2.15,0,0,0,.46.33,3,3,0,0,0,.77.28l.17.05a2.26,2.26,0,0,1,.37.11,3.46,3.46,0,0,1,.47.31,1.69,1.69,0,0,1,.33.32l.14.17.14.17a1.67,1.67,0,0,1,.17.26,2.23,2.23,0,0,1,.09.39,4,4,0,0,1,0,.49v.49a2.08,2.08,0,0,0,.13.8,3.29,3.29,0,0,0,.39.77,2.52,2.52,0,0,0,.3.35l.11.08-.09.3,0,.2c-.07.33-.14.66-.2,1l0,.24,0,.24,0,.24,0,.3v.11l0,.35c-.05.46-.06.92-.08,1.37v1.13c0,.14,0,.25,0,.36,0,.47-.07.95-.09,1.43s0,.87,0,1.31v2.16A3.1,3.1,0,0,0,43,64a1,1,0,0,0,0,.17h0a.27.27,0,0,0-.14.07,1.18,1.18,0,0,0-.17.24,1.64,1.64,0,0,0-.18.68,4.13,4.13,0,0,0-.05.58,10.17,10.17,0,0,0,.08,1.1,3.19,3.19,0,0,0,.29,1.07c.07.14.15.27.23.4l.08.14.16.23.07.1.07.09a1.21,1.21,0,0,0,.16.16l0,.12c-.07.43-.14.85-.2,1.27l-.09.8c0,.16,0,.33,0,.5V72l0,.24c0,.41-.05.81-.07,1.22a5.3,5.3,0,0,0,0,.69c0,.26,0,.53,0,.79v.38l0,.24,0,.8V77c0,.23,0,.47,0,.7v.66l0,.37,0,.37c0,.23,0,.46.07.69l0,.33,0,.34c0,.3.07.6.12.9a5.09,5.09,0,0,1,0,1.15,1,1,0,0,1-.07.28.46.46,0,0,1-.07.14,4.29,4.29,0,0,1-.38.33,2,2,0,0,1-.29.19l-.19.09-.1,0-.19.09-.39.2-.19.1-.5.25c-.4.16-.81.3-1.22.43l-.51.14-.13,0-.54.15c-.41.13-.8.27-1.2.41l-.31.12-.31.11-.7.26a10.71,10.71,0,0,0-1.37.61l-.34.2-.12.09-.23.12-.22.12a.87.87,0,0,0-.31.28l-.06.1a.43.43,0,0,0,0,.34.81.81,0,0,0,.15.27l.19.2a2,2,0,0,0,.72.33,3.73,3.73,0,0,0,.64.11h.19l.18,0,.53,0,.28,0c.32,0,.63,0,.95.06a4.34,4.34,0,0,0,.77-.08c.54-.06,1-.08,1.4-.1h.67c.34,0,.68-.05,1-.1a5.81,5.81,0,0,0,.76-.22,1.4,1.4,0,0,1,.45-.12l.29-.08.26,0a5.61,5.61,0,0,0,.86-.31,2,2,0,0,0,.57-.44c.06-.06.11-.13.16-.19l.23-.26.09,0a1.39,1.39,0,0,1,.19-.06h.12l.18,0a.61.61,0,0,1,.14.13,1,1,0,0,1,.14.21l0,.16.08.22a1.22,1.22,0,0,0,.07.17.49.49,0,0,0,.09.15.87.87,0,0,0,.43.27,1,1,0,0,0,.29.06H47l.32,0a1.24,1.24,0,0,0,.29-.06,2.15,2.15,0,0,0,.27-.1,1.42,1.42,0,0,0,.78-1.36,1.4,1.4,0,0,0-.09-.39,1.92,1.92,0,0,0-.18-.35c-.09-.13-.19-.26-.29-.38L48,85.38l-.1-.14a1.38,1.38,0,0,1-.14-.24,6.29,6.29,0,0,1-.37-1.48l0-.23,0-.2,0-.12a2.42,2.42,0,0,0-.06-.47l-.05-.23L47.08,82c-.07-.32-.13-.65-.18-1a34.7,34.7,0,0,1-.12-3.52v-.35c0-.22,0-.45,0-.68l0-.24c0-.14,0-.28,0-.42s0-.33,0-.5l0-.33,0-.17,0-.39c0-.33.07-.67.12-1l0-.38,0-.2,0-.28,0-.27c0-.24.07-.46.11-.69l0-.19,0-.13a3.87,3.87,0,0,0,.06-.46l0-.21a5.15,5.15,0,0,0,0-1.35.32.32,0,0,0-.18-.23l0-.12a1.14,1.14,0,0,0,.26-.09,1.21,1.21,0,0,0,.24-.16,2.72,2.72,0,0,0,.38-.38,1.49,1.49,0,0,0,.25-.43,3.22,3.22,0,0,0,.14-.44,2.27,2.27,0,0,0,0-.48c0-.08,0-.16,0-.25,0-.27,0-.45-.08-.64a2.79,2.79,0,0,0-.17-.6.41.41,0,0,0-.12-.21.47.47,0,0,0-.21-.17l-.17,0h-.33l-.11,0a1.25,1.25,0,0,0,.09-.36l.06-.52.06-.46c0-.27,0-.55.06-.82s0-.56,0-.84.06-.64.09-1,0-.56,0-.84c0-.59.07-1.17.17-1.9l.08-.56.09-.59,0-.22a5.58,5.58,0,0,1,.13-.69,6,6,0,0,1,.27-.82,2,2,0,0,1,.12-.26l.15-.22c.11-.13.22-.26.33-.37l.07-.09.2-.21a1.72,1.72,0,0,1,.36.09l.15,0,.2,0,.41.13.47.24a1.35,1.35,0,0,0,.73.24,1.64,1.64,0,0,0,.55-.14l.11,0,.27-.11.1,0,0,.21,0,.13a.34.34,0,0,0,0,.2l0,.14,0,.17.14,1,.07.56c0,.29.07.6.09.92s0,.34,0,.52l0,.41,0,.14v.13l0,.18,0,.25,0,.25,0,.2c0,.26.06.52.1.78l.08.43.08.44c.05.3.1.59.16.89l0,.1c.05.24.09.47.16.7l0,.13a1.2,1.2,0,0,1,.06.24L54,64a1.35,1.35,0,0,0-.42.4,2,2,0,0,0-.3.58,2.35,2.35,0,0,0-.19.85,2.5,2.5,0,0,0,.1.64,1,1,0,0,0,.11.29,1.25,1.25,0,0,0,.2.38,2.13,2.13,0,0,0,.23.28,1.66,1.66,0,0,0,.3.22,1.08,1.08,0,0,0,.18.11l.26.15.07.09v.09a2,2,0,0,0,0,.25v.22c0,.29,0,.49,0,.68q0,.7-.12,1.41c0,.29-.06.59-.09.88s0,.38,0,.57c0,.48-.07,1-.08,1.46,0,.68,0,1.37,0,2v2.54c0,.22,0,.45,0,.67V79c0,.19,0,.37,0,.56,0,.65,0,1.29,0,1.94v1c0,.31,0,.61,0,.91a4,4,0,0,1-.22.82,2.12,2.12,0,0,1-.11.21l-.1.1-.21.23c-.11.14-.23.27-.35.4a4.12,4.12,0,0,0-.35.45,1.87,1.87,0,0,0-.31.79,1.41,1.41,0,0,0,0,.29c0,.14,0,.17.06.17a.28.28,0,0,0,0,.16,1.66,1.66,0,0,0,.22.31l.18.13a1,1,0,0,0,.21.09,1.27,1.27,0,0,0,.5.1,3.13,3.13,0,0,0,.48,0,2.42,2.42,0,0,0,.56-.24l.23-.14.24-.14.18-.06h.22l.18,0a3.91,3.91,0,0,1,.6.4l.25.16a2,2,0,0,0,.44.22l.64.24a7,7,0,0,1,.69.26,5.67,5.67,0,0,0,.57.23,5,5,0,0,0,.69.19,13.53,13.53,0,0,0,1.47.13l.62,0,.34,0h.11l.24,0h.56a6.11,6.11,0,0,0,.81-.06l.95-.19.35-.07.45-.11.2,0,.14,0,.44-.08a2.14,2.14,0,0,0,.51-.15.55.55,0,0,0,.3-.32.52.52,0,0,0-.14-.52,1.18,1.18,0,0,0-.53-.22l-.29-.06-.41-.09a5.48,5.48,0,0,1-.89-.3l-.15-.06-.47-.18q-.42-.15-.84-.33L62.91,86l-.17-.07a12.92,12.92,0,0,1-1.64-.84c-.15-.1-.3-.2-.44-.31l-.09-.06-.26-.2-.21-.14a3.44,3.44,0,0,1-.27-.27L59.69,84l-.08-.09-.09-.09a3.31,3.31,0,0,1-.23-.26.62.62,0,0,1-.1-.16c-.19-.49-.36-.93-.5-1.38a11.94,11.94,0,0,1-.33-1.62c-.06-.49-.11-.89-.15-1.3l0-.38c0-.26-.05-.51-.06-.77s0-.82,0-1.23c0-.17,0-.34,0-.51V76l0-.42c0-.42,0-.85.07-1.27l0-.58,0-.59c0-.6.07-1.41.19-2.3l.06-.42,0-.19,0-.18,0-.25.06-.5.06-.48a.58.58,0,0,1,0-.19.66.66,0,0,1,.11-.16l.19-.24.11-.12a3,3,0,0,0,.38-.62,2.55,2.55,0,0,0,.13-.29l0-.1c0-.12.09-.25.13-.38A7.55,7.55,0,0,0,60,65.61a3.08,3.08,0,0,0-.1-1,3.68,3.68,0,0,0-.15-.35c-.07-.14-.12-.25-.18-.35a2.4,2.4,0,0,0-.19-.29l-.19-.28a5.07,5.07,0,0,1-.35-.65l-.09-.4,0-.14-.05-.27,0-.22c-.06-.34-.12-.63-.15-.93l0-.18,0-.19c0-.15,0-.35-.06-.55s0-.47-.07-.7-.05-.26-.08-.39l0-.23,0-.13c0-.17-.07-.34-.1-.51l0-.41,0-.23,0-.29c0-.3,0-.6,0-.9,0-.14,0-.28,0-.42v-.29l0-.2a3.84,3.84,0,0,1,0-.48.65.65,0,0,0,.2-.15,2.07,2.07,0,0,0,.29-.39,3.4,3.4,0,0,0,.34-.69l.05-.12c.11-.27.25-.61.36-.95a2.18,2.18,0,0,0,.12-1.17.43.43,0,0,0,.21-.11,3.05,3.05,0,0,0,.43-.45l.14-.16.08-.09.16-.19a3.3,3.3,0,0,0,.3-.43c.09-.13.17-.25.25-.39a4.2,4.2,0,0,0,.26-.52,2.82,2.82,0,0,0,.18-.62l0-.24v-.69a5.08,5.08,0,0,0-.16-1,5,5,0,0,0-.42-1,4.06,4.06,0,0,0-.46-.66.94.94,0,0,0-.24-.18,1.35,1.35,0,0,0-.36-.18,2.3,2.3,0,0,0-.64-.15A7.07,7.07,0,0,0,58,44a3.26,3.26,0,0,0-1.08.15,3.9,3.9,0,0,0-1.32.75,2.37,2.37,0,0,0-.28.27l-.13.15c-.11.1-.23.21-.36.31a2.28,2.28,0,0,1-.43.3l-.39.14-.29.08.16-.2.08-.19,0-.1.17-.37a5.82,5.82,0,0,1,.44-.66l.13-.16.11-.13.07-.1.4-.48.2-.32.06-.11.12-.19.16-.25.34-.59.07-.13.2-.37.25-.41.08-.16a5.85,5.85,0,0,1,.37-.55l.38-.55.37-.52c.23-.34.46-.67.67-1,.13-.19.23-.39.34-.59l.2-.38c.11-.2.2-.36.28-.52l.18-.4.09-.22c.12-.31.23-.61.32-.92l0-.14c.07-.24.13-.49.22-.73h3c.48,0,1,0,1.42,0l.85,0c.24,0,.5,0,.75.05l.54.1.1,0,.59.13.42.06.23,0,.15,0,.53,0h.5c.25,0,.41,0,.57,0a1,1,0,0,0,.57-.18,2.88,2.88,0,0,0,.19-.24l.12-.15.15-.19A3.7,3.7,0,0,1,71.4,34l.28-.24.24-.21a3.45,3.45,0,0,0,.43-.53l.12-.17.24-.33.47-.66c.21-.3.4-.61.59-.93s.39-.61.6-.91l.13-.17.16-.21.25-.37.09-.14c.16-.25.33-.48.5-.71s.37-.45.55-.67l.09-.11.21-.25.12-.15.33-.42q.23-.26.45-.54a6.29,6.29,0,0,0,.63-1.08c.1-.2.2-.4.28-.6a4.72,4.72,0,0,1,.29-.56l.42.08a3.53,3.53,0,0,0,.45.11h.59c.27,0,.53-.05.79-.09l.24-.07a2.35,2.35,0,0,0,.53-.22,3.24,3.24,0,0,0,.6-.48,3.08,3.08,0,0,0,.37-.47,1.43,1.43,0,0,0,.2-.46,1.48,1.48,0,0,0,.08-.62,2.91,2.91,0,0,0-.19-.76c-.1-.24-.21-.47-.32-.7a5,5,0,0,0-.73-1.11A3.16,3.16,0,0,0,81,18.8a4.07,4.07,0,0,0-.64-.39,4.35,4.35,0,0,0-.59-.25.83.83,0,0,0-.21-.06L79.13,18l-.28,0a4.76,4.76,0,0,0-.66.08,2.15,2.15,0,0,0-.8.29,1.9,1.9,0,0,0-.61.62,1.79,1.79,0,0,0-.32.93,2.67,2.67,0,0,0,.08.58l0,.16c0,.09,0,.15,0,.22a3.15,3.15,0,0,1,0,.6l0,.09a3.71,3.71,0,0,1-.65.61l-.18.14-.37.27c-.32.24-.58.45-.83.67a3.41,3.41,0,0,0-.38.38c-.1.12-.2.24-.29.37l-.09.11-.22.26-.11.13-.09.09-.3.35-.29.36-.44.52a7.23,7.23,0,0,1-.61.63,4.41,4.41,0,0,0-.56.62,4.51,4.51,0,0,0-.35.54l-.1.17c-.18.3-.32.52-.46.73l-.09.1L70,28.49a3,3,0,0,0-.72-.26c-.26-.05-.52-.08-.79-.11l-.32,0-.34,0a7.14,7.14,0,0,1-.78-.15l-.19-.06-.19,0a2.89,2.89,0,0,0-.51-.11,3.63,3.63,0,0,0-.57,0H64.29a18.62,18.62,0,0,1-1.94-.11,8.1,8.1,0,0,0-.86-.06h-.22c-.23,0-.45,0-.68,0h-.12l.06-.08,0-.13a4,4,0,0,0,.06-.45,3.34,3.34,0,0,0-.06-.82,2.63,2.63,0,0,0-.09-.3c-.08-.22-.12-.31-.16-.4a1.75,1.75,0,0,0-.26-.42l-.16-.16a1.53,1.53,0,0,0-.39-.28,1,1,0,0,0-.48-.12H58.8a2.67,2.67,0,0,0-1.15.41,2.64,2.64,0,0,0-.29.21,2,2,0,0,0-.28.33,3.14,3.14,0,0,0-.18.31l-.07.15a.83.83,0,0,0-.23-.1,5.25,5.25,0,0,0-.55-.09l-.58,0a3.85,3.85,0,0,1-.48,0s0-.06,0-.08v-.16l0-.31c0-.19,0-.38,0-.58v-.58a1.71,1.71,0,0,1,.23-.13l.47-.25.23-.15.14-.09.13-.08.22-.12.1-.06c.57-.33,1.14-.66,1.69-1a1.25,1.25,0,0,0,.51-.47,1.31,1.31,0,0,0,.14-.62l0-.45v-.19a5.44,5.44,0,0,1,0-.57l0-.31,0-.3V16.59c0-.22,0-.44,0-.67l.26-.23a5.22,5.22,0,0,0,.39-.43c.14-.18.28-.37.4-.56a2.9,2.9,0,0,0,.36-.75,3.71,3.71,0,0,0,0-2.1c-.07-.33-.15-.66-.25-1,0-.14-.09-.27-.14-.4a1.53,1.53,0,0,0-.25-.44,3.46,3.46,0,0,0-.22-.31l-.1-.13A4.42,4.42,0,0,0,59,9a.89.89,0,0,0-.57-.24.49.49,0,0,0-.25.08.5.5,0,0,0-.21.28.57.57,0,0,0,0,.25,1.88,1.88,0,0,1,0,.19c0,.16,0,.32,0,.47l.12.84a4.1,4.1,0,0,1,0,.5c0,.13,0,.27,0,.41a2.88,2.88,0,0,1-.14.63,1,1,0,0,1-.14.2,3.16,3.16,0,0,1-.5.52,1.69,1.69,0,0,1-.3.17l-.17,0H56.7a4.23,4.23,0,0,1-.5-.05,9,9,0,0,0-1.08-.07H53l-1.4,0h-.69a7.9,7.9,0,0,0-.91,0l-.57.09-.12.05c-.08-.08-.13-.12-.17-.17l-.29-.31-.15-.17-.15-.16-.11-.13a1.45,1.45,0,0,1-.22-.24L48,12a2.49,2.49,0,0,1-.22-.43,2.79,2.79,0,0,1-.15-.47,4.65,4.65,0,0,1,0-1l0-.16a1.13,1.13,0,0,1,0-.18,1.45,1.45,0,0,1,.07-.26,1.87,1.87,0,0,1,.2-.32,1.41,1.41,0,0,0,.2-.32A.39.39,0,0,0,48,8.38a.56.56,0,0,0-.2-.06.27.27,0,0,0-.14,0ZM55,17.79c.2-.12.41-.23.62-.34l.25-.13.18-.09.17-.09.16-.09.09-.05L56.6,17l0,.2a5.69,5.69,0,0,1,0,.6l-.12,0-.17.06-.21,0c-.42.05-.68.07-1,.09h-.36l.29-.19Zm-6.16-.47a.31.31,0,0,1,.29-.21.71.71,0,0,1,.2,0,4.48,4.48,0,0,1,.62.2l-.06,0,.16.07h0l.28.12.17.08c.12.05.25.07.38.11a.83.83,0,0,1,.16.09.28.28,0,0,1,.09.19.26.26,0,0,1-.13.22.39.39,0,0,1-.18,0h-.32l-.34,0h-.45l-.4,0h0a.25.25,0,0,1-.25,0c-.12,0-.14-.21-.16-.33l0-.33a.15.15,0,0,0,0,.07.9.9,0,0,1,0-.4Zm3.72,3a.35.35,0,0,1-.26-.08.32.32,0,0,1-.09-.22.27.27,0,0,1,0-.12l0-.08,0-.1.11-.27c0-.12.07-.23.1-.35a.25.25,0,0,1,.14-.16l0,0a.23.23,0,0,1,.17-.08.23.23,0,0,1,.18.08c.09.09.09.24.12.36s.09.29.14.42a.91.91,0,0,0,.07.14.61.61,0,0,1,0,.18.34.34,0,0,1-.09.22.36.36,0,0,1-.22.09H52.6Zm-.85,1.69a3.68,3.68,0,0,1-.47-.15h0l0,0-.1,0a.23.23,0,0,1-.12-.15.32.32,0,0,1,0-.19.24.24,0,0,1,.15-.11h.06a.38.38,0,0,1,.13,0h0l.11,0,.11,0h0c.17,0,.33,0,.49,0l.49.05h0l.22,0,.16,0h1a.25.25,0,1,1,0,.49h-.45l-.41,0h-.9a1.83,1.83,0,0,1-.47-.05Zm-4.92,15a.22.22,0,0,1,0-.14.37.37,0,0,1,0-.14l.07-.08,0,0a.26.26,0,0,1,.17-.17l.06-.07.1-.09.2-.17.21-.2a1.1,1.1,0,0,1,.28-.2c.22-.12.45-.22.67-.32a2,2,0,0,0,.32-.17l.24-.13a.6.6,0,0,1,.21-.08l.13,0h0a.33.33,0,0,1,.13,0c.18.08.2.31.17.48s-.06.25-.1.38,0,.09,0,.13l-.07.1a.36.36,0,0,1-.21.08l0,0c-.24.12-.45.32-.7.44a3.12,3.12,0,0,1-.42.18l-.13,0L48,37a1.72,1.72,0,0,1-.45.16,2.2,2.2,0,0,1-.36,0h0a.32.32,0,0,1-.29-.15Zm6.49-.8.51.12.25,0,.25,0,.28.06.3.09.63.17.14,0,.75.23H55a7,7,0,0,0-.84.05l-.23,0a5,5,0,0,1-.66.05h-.13l-.12-.09a3.75,3.75,0,0,1,0-.44v-.2l.06-.1h0l.25-.05Zm-4.82,2,.41-.19a2.72,2.72,0,0,0,.35-.16.49.49,0,0,1,.25-.1h0a.29.29,0,0,1,.27.16.56.56,0,0,1,.06.21l0,.21c0,.15,0,.3.08.45a.25.25,0,0,1,0,.19.19.19,0,0,1-.06.07.39.39,0,0,1,0,.15.35.35,0,0,1-.17.21.55.55,0,0,1-.28.06,3.76,3.76,0,0,1-.88-.09l-.31,0-.3,0c-.2,0-.38,0-.57,0a1.5,1.5,0,0,1-.37,0,.27.27,0,0,1-.18-.33.26.26,0,0,1,.13-.16l.14-.06.19-.08h0l.2-.09.29-.14c.18-.06.35-.1.52-.17h0l.23-.09Zm5.31,1.1a3.84,3.84,0,0,1-.64-.12l-.07-.15.13,0h.11a4.26,4.26,0,0,1,.58,0l.87.13.37.06h-.08l-.61,0h-.36l-.3,0Zm-4.53,2.24h-.22a3,3,0,0,1-.56-.13,1.2,1.2,0,0,1-.24-.15,1.54,1.54,0,0,1-.19-.28h.15l.2,0a4.72,4.72,0,0,0,.54-.13l.28-.08.11,0,0,.12,0,.3v.1c0,.11,0,.21,0,.32Zm3.18.15q.06-.3.15-.66h.18l.17.05.23.08.23.08a4.12,4.12,0,0,0,.42.17l.09,0h0l-.14,0-.32.07-.33.07-.23.06-.24.07h-.13l0,0Z"/><rect class="cls-2" width="100" height="100"/></g></g></g></svg>